<?xml version="1.0" encoding="utf-8"?>
<!-- Generator: Adobe Illustrator 24.2.1, SVG Export Plug-In . SVG Version: 6.00 Build 0)  -->
<svg version="1.1" id="Ebene_1" xmlns="http://www.w3.org/2000/svg" xmlns:xlink="http://www.w3.org/1999/xlink" x="0px" y="0px"
	 width="430px" height="88px" viewBox="0 0 430 88" style="enable-background:new 0 0 430 88;" xml:space="preserve">
<style type="text/css">
	.st0{fill-rule:evenodd;clip-rule:evenodd;fill:url(#SVGID_1_);}
	.st1{opacity:0.75;fill-rule:evenodd;clip-rule:evenodd;}
	.st2{opacity:0.29;fill-rule:evenodd;clip-rule:evenodd;fill:url(#SVGID_2_);}
</style>
<linearGradient id="SVGID_1_" gradientUnits="userSpaceOnUse" x1="215" y1="88" x2="215" y2="-9.094947e-13">
	<stop  offset="0" style="stop-color:#042057"/>
	<stop  offset="1" style="stop-color:#021538"/>
</linearGradient>
<path class="st0" d="M430,0H28.83c-7.52,0-13.97,5.39-15.3,12.8L0,88h401.17c7.52,0,13.97-5.39,15.3-12.8L430,0z"/>
<path class="st1" d="M428.82,0l-13.35,74.2c-1.33,7.41-7.78,12.8-15.3,12.8H0.18L0,88h401.17c7.52,0,13.97-5.39,15.3-12.8L430,0
	H428.82z"/>
<linearGradient id="SVGID_2_" gradientUnits="userSpaceOnUse" x1="0" y1="44" x2="430" y2="44">
	<stop  offset="0" style="stop-color:#FFFFFF"/>
	<stop  offset="1" style="stop-color:#021538"/>
</linearGradient>
<path class="st2" d="M14.53,13.8C15.87,6.39,22.31,1,29.83,1h399.99L430,0H28.83c-7.52,0-13.97,5.39-15.3,12.8L0,88h1.18L14.53,13.8
	z"/>
</svg>
