<?xml version="1.0" encoding="UTF-8"?>
<svg id="SUN_ICON" data-name="SUN ICON" width="40" height="40" xmlns="http://www.w3.org/2000/svg" viewBox="0 0 39.38 40.72">
  <defs>
    <style>
      .cls-1 {
        fill: #fff;
      }

      .cls-2 {
        fill: none;
        stroke: #fff;
        stroke-miterlimit: 10;
        stroke-width: 2px;
      }
    </style>
  </defs>
  <circle class="cls-2" cx="19.68" cy="21.27" r="9.21"/>
  <g>
    <polygon class="cls-1" points="17.68 7.44 19.68 0 21.68 7.44 17.68 7.44"/>
    <polygon class="cls-1" points="21.68 34.32 19.68 40.72 17.68 34.32 21.68 34.32"/>
    <polygon class="cls-1" points="33.03 18.6 39.38 20.6 33.03 22.6 33.03 18.6"/>
    <polygon class="cls-1" points="6.56 23.79 0 21.79 6.56 19.79 6.56 23.79"/>
  </g>
  <g>
    <polygon class="cls-1" points="27.4 9.81 34.08 5.96 30.23 12.63 27.4 9.81"/>
    <polygon class="cls-1" points="11.23 31.64 5.28 34.75 8.4 28.81 11.23 31.64"/>
    <polygon class="cls-1" points="30.37 28.55 33.45 34.45 27.54 31.37 30.37 28.55"/>
    <polygon class="cls-1" points="7.98 13.51 4.75 7.45 10.81 10.68 7.98 13.51"/>
  </g>
</svg>