<?xml version="1.0" encoding="UTF-8"?>
<svg width="128px" height="128px" viewBox="0 0 128 128" version="1.1" xmlns="http://www.w3.org/2000/svg" xmlns:xlink="http://www.w3.org/1999/xlink">
    <!-- Generator: Sketch 50.2 (55047) - http://www.bohemiancoding.com/sketch -->
    <title>Hat Dog / 2</title>
    <desc>Created with Sketch.</desc>
    <defs></defs>
    <g id="Hat-Dog-/-2" stroke="none" stroke-width="1" fill="none" fill-rule="evenodd">
        <rect id="Container" fill="#0003EE" x="0" y="0" width="128" height="128"></rect>
        <path d="M46,92.876 L46,80.74 L67.156,57.78 C68.2493388,56.6319943 69.0146645,55.620671 69.452,54.746 C69.8893355,53.871329 70.108,52.8053396 70.108,51.548 C70.108,49.9626587 69.670671,48.6643384 68.796,47.653 C67.921329,46.6416616 66.6093421,46.136 64.86,46.136 C64.2586637,46.136 63.6300033,46.2179992 62.974,46.382 C62.3179967,46.5460008 61.7303359,46.8466645 61.211,47.284 C60.6916641,47.7213355 60.2680016,48.2953298 59.94,49.006 C59.6119984,49.7166702 59.448,50.6459943 59.448,51.794 L46,51.794 C46,48.9513191 46.5056616,46.4230111 47.517,44.209 C48.5283384,41.9949889 49.8949914,40.1226743 51.617,38.592 C53.3390086,37.0613257 55.334322,35.9133372 57.603,35.148 C59.871678,34.3826628 62.2906538,34 64.86,34 C67.5386801,34 70.0259885,34.4099959 72.322,35.23 C74.6180115,36.0500041 76.5996583,37.2116592 78.267,38.715 C79.9343417,40.2183409 81.232662,42.0633224 82.162,44.25 C83.091338,46.4366776 83.556,48.896653 83.556,51.63 C83.556,53.1606743 83.4056682,54.5409939 83.105,55.771 C82.8043318,57.0010062 82.3396698,58.1626612 81.711,59.256 C81.0823302,60.3493388 80.3170045,61.4426612 79.415,62.536 C78.5129955,63.6293388 77.4880057,64.7773273 76.34,65.98 L62.4,80.74 L83.556,80.74 L83.556,92.876 L46,92.876 Z" id="Position" fill="#FFFFFF"></path>
    </g>
</svg>