<?xml version="1.0" encoding="UTF-8"?>
<svg width="128px" height="128px" viewBox="0 0 128 128" version="1.1" xmlns="http://www.w3.org/2000/svg" xmlns:xlink="http://www.w3.org/1999/xlink">
    <!-- Generator: Sketch 50.2 (55047) - http://www.bohemiancoding.com/sketch -->
    <title>Hat Dog / 6</title>
    <desc>Created with Sketch.</desc>
    <defs></defs>
    <g id="Hat-Dog-/-6" stroke="none" stroke-width="1" fill="none" fill-rule="evenodd">
        <rect id="Container" fill="#E5E5E5" x="0" y="0" width="128" height="128"></rect>
        <g id="Background" transform="translate(0.000000, 16.000000)" fill="#000000">
            <rect id="Line" x="0" y="0" width="128" height="18"></rect>
            <rect id="Line" x="0" y="39" width="128" height="18"></rect>
            <rect id="Line" x="0" y="78" width="128" height="18"></rect>
        </g>
        <path d="M67.67,75.098 C67.67,73.356876 67.2456561,72.162792 66.4493682,71.4035407 C65.6003967,70.5940563 64.6255236,70.206 63.434,70.206 C62.2424764,70.206 61.2676033,70.5940563 60.4186318,71.4035407 C59.6223439,72.162792 59.198,73.356876 59.198,75.098 C59.198,76.839124 59.6223439,78.033208 60.4186318,78.7924593 C61.2676033,79.6019437 62.2424764,79.99 63.434,79.99 C64.6255236,79.99 65.6003967,79.6019437 66.4493682,78.7924593 C67.2456561,78.033208 67.67,76.839124 67.67,75.098 Z M67.059845,55.7190943 C67.137566,55.7183651 67.2136156,55.718 67.288,55.718 C69.3296313,55.718 71.3756807,56.1487472 73.4157878,57.0013293 C75.4557118,57.8538349 77.3092415,59.0996499 78.9690326,60.7292631 C80.6373413,62.3672388 81.9926565,64.3851526 83.0362753,66.770567 C84.0949681,69.1904362 84.618,71.9699772 84.618,75.098 C84.618,78.448765 84.052465,81.4103826 82.9076163,83.9712284 C81.7698132,86.5163143 80.2163641,88.6730446 78.2521283,90.4257473 C76.2974163,92.1699518 74.0272373,93.4779358 71.4551799,94.3452575 C68.9216801,95.1995772 66.2455093,95.626 63.434,95.626 C60.6224907,95.626 57.9463199,95.1995772 55.4128201,94.3452575 C52.8407627,93.4779358 50.5705837,92.1699518 48.6158717,90.4257473 C46.6516359,88.6730446 45.0981868,86.5163143 43.9603837,83.9712284 C42.815535,81.4103826 42.25,78.448765 42.25,75.098 C42.25,71.8558569 42.8851791,68.7390476 44.1528516,65.7614913 C45.3404709,62.971967 46.6244009,60.1694101 48.0019234,57.359289 L59.7145922,33.25 L78.4151938,33.25 L67.0598443,55.7190957 Z" id="6" stroke="#FFFFFF" stroke-width="3.5"></path>
        <path d="M69.42,75.098 C69.42,72.9113224 68.8323392,71.2576723 67.657,70.137 C66.4816608,69.0163277 65.0740082,68.456 63.434,68.456 C61.7939918,68.456 60.3863392,69.0163277 59.211,70.137 C58.0356608,71.2576723 57.448,72.9113224 57.448,75.098 C57.448,77.2846776 58.0356608,78.9383277 59.211,80.059 C60.3863392,81.1796723 61.7939918,81.74 63.434,81.74 C65.0740082,81.74 66.4816608,81.1796723 67.657,80.059 C68.8323392,78.9383277 69.42,77.2846776 69.42,75.098 Z M82.868,75.098 C82.868,78.2140156 82.3486719,80.933655 81.31,83.257 C80.2713281,85.5803449 78.8636756,87.5346587 77.087,89.12 C75.3103245,90.7053413 73.2466784,91.8943294 70.896,92.687 C68.5453216,93.4796706 66.0580131,93.876 63.434,93.876 C60.8099869,93.876 58.3226784,93.4796706 55.972,92.687 C53.6213216,91.8943294 51.5576756,90.7053413 49.781,89.12 C48.0043245,87.5346587 46.5966719,85.5803449 45.558,83.257 C44.5193281,80.933655 44,78.2140156 44,75.098 C44,72.0913183 44.5876608,69.2076805 45.763,66.447 C46.9383392,63.6863195 48.2093265,60.9120139 49.576,58.124 L60.81,35 L75.57,35 L64.008,57.878 C64.6093363,57.6593322 65.1969971,57.5363335 65.771,57.509 C66.3450029,57.4816665 66.8506645,57.468 67.288,57.468 C69.092009,57.468 70.9096575,57.8506628 72.741,58.616 C74.5723425,59.3813372 76.2396591,60.5019926 77.743,61.978 C79.2463409,63.4540074 80.4763286,65.2853224 81.433,67.472 C82.3896715,69.6586776 82.868,72.2006522 82.868,75.098 Z" id="6" fill="#FF0000"></path>
    </g>
</svg>