<svg height="128" viewBox="0 0 128 128" width="128" xmlns="http://www.w3.org/2000/svg"><g fill="none" fill-rule="evenodd"><path d="m0 0h128v128h-128z" fill="#407d32"/><path d="m82.884 73.458c0 1.7493421-.0819992 3.3346596-.246 4.756s-.450998 2.7469939-.861 3.977-.9566633 2.3779947-1.64 3.444-1.5716612 2.1456612-2.665 3.239c-1.2573396 1.2573396-3.0066555 2.4053281-5.248 3.444s-5.0019836 1.558-8.282 1.558-6.0953216-.5329947-8.446-1.599-4.1546604-2.2276604-5.412-3.485c-2.0773437-2.0773437-3.4029971-4.2639885-3.977-6.56s-.9429992-4.5099893-1.107-6.642h13.448c.2186678 1.9133429.7516624 3.4166612 1.599 4.51s2.1456579 1.64 3.895 1.64c1.5306743 0 2.7879951-.4919951 3.772-1.476 1.1480057-1.1480057 1.722-3.4166497 1.722-6.806 0-3.2253495-.5056616-5.4119943-1.517-6.56s-2.3369918-1.722-3.977-1.722c-.9840049 0-1.7903302.1503318-2.419.451s-1.147998.6559979-1.558 1.066-.7243322.8609975-.943 1.353-.4099992.9293314-.574 1.312h-12.382v-34.358h35.588v12.136h-23.37v9.02c.6013363-.4373355 1.6126596-.9293306 3.034-1.476s3.033991-.82 4.838-.82c2.5693462 0 4.7969906.3826628 6.683 1.148s3.4303273 1.7493273 4.633 2.952 2.1593298 2.4189939 2.87 3.649 1.2573314 2.5009934 1.64 3.813.6286661 2.63766.738 3.977.164 2.6923265.164 4.059z" fill="#fff"/></g></svg>