<?xml version="1.0" encoding="utf-8"?>
<!-- Generator: Adobe Illustrator 27.2.0, SVG Export Plug-In . SVG Version: 6.00 Build 0)  -->
<svg version="1.1" id="Ebene_1" xmlns="http://www.w3.org/2000/svg" xmlns:xlink="http://www.w3.org/1999/xlink" x="0px" y="0px"
	 viewBox="0 0 28 20" style="enable-background:new 0 0 28 20;" xml:space="preserve">
<style type="text/css">
	.st0{fill:#FFFFFF;}
	.st1{fill:#204CA8;}
	.st2{fill:#098520;}
	.st3{fill-rule:evenodd;clip-rule:evenodd;fill:#FFFFFF;}
	.st4{fill:#FF2D2D;}
	.st5{fill:#7B510E;}
	.st6{fill:#7E7E7E;}
	.st7{fill:url(#SVGID_1_);}
	.st8{fill:url(#SVGID_00000083806217930765215710000009949351123046630542_);}
	.st9{fill:url(#SVGID_00000060750597457793977580000016265708586822114713_);}
	.st10{fill:url(#SVGID_00000060032113831368059050000008072322912211946372_);}
	.st11{fill:url(#SVGID_00000179636520422785198300000004165324076086034597_);}
	.st12{fill:url(#SVGID_00000034049206379136130500000004388633503884633216_);}
	.st13{fill:url(#SVGID_00000067226194528566184620000009080876815923328660_);}
	.st14{fill:url(#SVGID_00000162325862124176687500000002451709261732225947_);}
	.st15{fill:#DFDFDF;}
	.st16{clip-path:url(#SVGID_00000145037068351252214260000008559427333877531829_);}
	.st17{fill:#EE6060;}
	.st18{fill:#708444;}
</style>
<g>
	<g>
		<path class="st1" d="M25.227,11.736c-1.327-0.347-4.836-1.464-7.417-4.123c-2.787-2.871-4.858-3.992-8.26-3.388
			c-0.1-0.016-0.205-0.03-0.308-0.009C6.689,4.739,4.497,3.525,2.737,2.999c0,0,0.829,2.016,1.654,2.908
			c-0.697,0.293-1.436,0.62-2.227,0.983C1.746,7.081,1.336,7.236,0.931,7.362c-0.128,0.04-0.256,0.076-0.382,0.11
			C0.544,7.474,0.538,7.475,0.533,7.476C0.385,7.541,0.202,7.609,0,7.678v11.078c3.495-1.693,7.067-3.703,7.834-4.017
			c3.489-1.427,9.848-0.661,12.028-0.164c2.13,0.486,5.324,0.108,5.723-2.308C25.624,12.026,25.464,11.797,25.227,11.736z"/>
	</g>
	<circle class="st0" cx="14.469" cy="7.516" r="0.806"/>
</g>
</svg>
