<?xml version="1.0" encoding="utf-8"?>
<!-- Generator: Adobe Illustrator 27.7.0, SVG Export Plug-In . SVG Version: 6.00 Build 0)  -->
<svg version="1.1" id="Ebene_1" xmlns="http://www.w3.org/2000/svg" xmlns:xlink="http://www.w3.org/1999/xlink" x="0px" y="0px"
	 viewBox="0 0 28 20" style="enable-background:new 0 0 28 20;" xml:space="preserve">
<style type="text/css">
	.st0{fill:#FFFFFF;}
	.st1{fill-rule:evenodd;clip-rule:evenodd;fill:#000100;}
	.st2{fill-rule:evenodd;clip-rule:evenodd;fill:#373A40;}
	.st3{fill-rule:evenodd;clip-rule:evenodd;fill:#1F71B6;}
	.st4{fill-rule:evenodd;clip-rule:evenodd;fill:#EEF3F6;}
	.st5{fill-rule:evenodd;clip-rule:evenodd;fill:#FFFFFF;}
	.st6{fill-rule:evenodd;clip-rule:evenodd;fill:url(#SVGID_1_);}
</style>
<circle class="st0" cx="14.469" cy="7.516" r="0.806"/>
<g>
	<path class="st1" d="M17.555,13.666c0.813-0.328,1.502-0.789,2.041-1.335c0.532-0.537,0.913-1.151,1.128-1.791
		c0.211-0.624,0.262-1.267,0.151-1.888c-0.108-0.602-0.368-1.178-0.782-1.697l-4.377-5.482c-0.127-0.158-0.277-0.299-0.446-0.421
		c-0.166-0.121-0.351-0.225-0.551-0.311c-0.197-0.085-0.408-0.154-0.63-0.206c-0.219-0.052-0.449-0.087-0.686-0.106
		c-0.235-0.019-0.478-0.022-0.724-0.01c-0.244,0.012-0.494,0.04-0.744,0.083c-0.249,0.043-0.501,0.103-0.752,0.177
		c-0.25,0.075-0.499,0.165-0.747,0.272l-6.615,2.87C3.342,4.03,2.895,4.293,2.496,4.594C2.093,4.896,1.735,5.239,1.437,5.603
		c-0.304,0.37-0.546,0.765-0.71,1.165c-0.166,0.409-0.251,0.825-0.23,1.226l0.367,6.922c0.018,0.321,0.07,0.628,0.152,0.915
		c0.084,0.294,0.201,0.569,0.348,0.821c0.15,0.258,0.33,0.492,0.538,0.7c0.211,0.211,0.45,0.396,0.713,0.55
		c0.268,0.157,0.56,0.281,0.871,0.371c0.316,0.09,0.651,0.145,1.003,0.161c0.354,0.015,0.723-0.009,1.099-0.077
		c0.38-0.068,0.768-0.178,1.156-0.336L17.555,13.666L17.555,13.666L17.555,13.666z M20.765,6.677
		c0.484,0.584,0.797,1.236,0.935,1.918c0.056,0.274,0.084,0.554,0.084,0.834v0.008c-0.001,0.441-0.073,0.885-0.211,1.321
		c-0.235,0.739-0.662,1.447-1.27,2.072c-0.618,0.632-1.411,1.167-2.351,1.547L6.906,18.808c-0.45,0.18-0.897,0.305-1.335,0.382
		c-0.435,0.075-0.859,0.098-1.266,0.077c-0.402-0.022-0.786-0.089-1.147-0.199c-0.356-0.108-0.687-0.257-0.99-0.441
		c-0.296-0.183-0.565-0.4-0.801-0.647c-0.232-0.243-0.432-0.515-0.595-0.813c-0.161-0.292-0.288-0.609-0.376-0.945
		c-0.088-0.331-0.14-0.68-0.153-1.048L0.001,8.205c-0.015-0.457,0.087-0.927,0.281-1.387c0.189-0.449,0.466-0.891,0.809-1.304
		C1.427,5.109,1.83,4.727,2.281,4.39c0.447-0.333,0.944-0.627,1.481-0.86l6.53-2.838c0.275-0.12,0.554-0.222,0.833-0.305
		c0.28-0.084,0.561-0.151,0.839-0.2c0.28-0.05,0.559-0.082,0.833-0.097c0.115-0.007,0.23-0.01,0.343-0.01h0.032
		c0.147,0.001,0.292,0.006,0.436,0.017c0.263,0.019,0.52,0.056,0.765,0.111c0.248,0.056,0.485,0.129,0.708,0.221
		c0.225,0.094,0.435,0.206,0.626,0.337c0.194,0.133,0.367,0.287,0.516,0.46c0,0,0.211,0.253,0.54,0.647
		c0.342,0.411,0.824,0.989,1.341,1.611c0.547,0.657,1.139,1.367,1.633,1.961C20.258,6.068,20.659,6.549,20.765,6.677z"/>
	<path class="st2" d="M21.745,9.998l-0.171,1.263v0.001l-0.003,0.019v0.001L21.568,11.3l0,0l-0.003,0.019l0,0l-0.003,0.019l0,0
		l-0.003,0.019l0,0l-0.003,0.019l0,0l-0.003,0.02l0,0l-0.003,0.019l0,0l-0.003,0.02l0,0l-0.003,0.019l0,0l-0.003,0.019l0,0
		l-0.004,0.02l0,0l-0.003,0.019l0,0l-0.003,0.02l0,0l-0.004,0.019l0,0l-0.003,0.019l0,0l-0.004,0.019l0,0l-0.004,0.019l0,0
		l-0.004,0.019l0,0l-0.004,0.02l0,0L21.5,11.667l0,0l-0.004,0.02l0,0l-0.005,0.019l0,0l-0.005,0.019l0,0l-0.004,0.02l0,0
		l-0.006,0.019l0,0l-0.004,0.019l0,0l-0.005,0.019l0,0l-0.006,0.019l0,0l-0.006,0.019l0,0l-0.005,0.019l0,0l-0.005,0.019l0,0
		l-0.006,0.019l0,0l-0.005,0.018l0,0l-0.006,0.02l0,0l-0.006,0.019l0,0l-0.006,0.019l0,0l-0.006,0.02l0,0l-0.006,0.018l0,0
		l-0.006,0.019l0,0l-0.006,0.019l0,0l-0.006,0.019l0,0l-0.007,0.019l0,0l-0.006,0.019l0,0l-0.006,0.019l0,0l-0.006,0.019l0,0
		l-0.007,0.018l0,0l-0.007,0.019l0,0l-0.007,0.019l0,0c-0.034,0.095-0.072,0.189-0.115,0.282c-0.007,0.019-0.016,0.038-0.025,0.056
		l0,0l-0.009,0.018l0,0l-0.009,0.019l0,0l-0.009,0.019l0,0l-0.009,0.018l0,0l-0.01,0.02l0,0l-0.009,0.018l0,0l-0.009,0.018l0,0
		l-0.009,0.018l0,0l-0.009,0.019v0.001l-0.01,0.018l0,0L21.1,12.746l0,0l-0.01,0.018l0,0l-0.01,0.019l0,0l-0.01,0.018l0,0
		l-0.01,0.019l0,0l-0.01,0.018l0,0l-0.011,0.018l0,0l-0.01,0.018l0,0l-0.01,0.019l0,0l-0.011,0.018l0,0l-0.01,0.018l0,0
		l-0.011,0.018l0,0l-0.01,0.018l0,0l-0.01,0.018l0,0l-0.011,0.018l0,0l-0.011,0.018l0,0l-0.011,0.018l0,0l-0.011,0.018l0,0
		l-0.011,0.018l0,0l-0.011,0.018l0,0l-0.011,0.018l0,0l-0.011,0.018l0,0l-0.011,0.018l0,0l-0.012,0.018l0,0l-0.012,0.018l0,0
		l-0.011,0.018l0,0L20.82,13.22l0,0l-0.012,0.018l0,0l-0.012,0.017l0,0l-0.013,0.018l0,0l-0.011,0.017l0,0l-0.013,0.018l0,0
		l-0.012,0.018l0,0l-0.012,0.018l0,0l-0.013,0.017l0,0l-0.012,0.018l0,0c-0.063,0.087-0.13,0.173-0.2,0.258
		c-0.108,0.132-0.223,0.259-0.346,0.383l0,0l-0.015,0.015l0,0l-0.017,0.017l0,0l-0.016,0.016l0,0l-0.016,0.015l0,0L20.082,14.1l0,0
		l-0.017,0.016l0,0l-0.017,0.015l0,0l-0.016,0.016l0,0l-0.016,0.015l0,0l-0.018,0.016l0,0l-0.016,0.015l0,0l-0.017,0.016l0,0
		l-0.018,0.015l0,0L19.93,14.24l0,0l-0.017,0.015l0,0l-0.018,0.016l0,0l-0.017,0.016l0,0l-0.018,0.016l0,0l-0.017,0.015l0,0
		l-0.018,0.015l0,0l-0.018,0.015l0,0l-0.017,0.016l0,0l-0.018,0.015l-0.019,0.015l-0.018,0.014l-0.018,0.015l-0.018,0.015
		l-0.018,0.015l-0.018,0.014l-0.018,0.015l-0.019,0.015l-0.018,0.014l-0.018,0.016l-0.019,0.014l-0.019,0.013l-0.019,0.015
		l-0.019,0.014l-0.019,0.014l-0.018,0.014l-0.019,0.014l-0.02,0.014c-0.413,0.299-0.88,0.556-1.392,0.762l0,0L7.774,19.497
		c-0.41,0.163-0.82,0.277-1.222,0.346l-0.018,0.003L6.515,19.85l-0.019,0.003l0,0l-0.019,0.003l0,0l-0.018,0.003l0,0L6.44,19.861
		l0,0l-0.019,0.003l0,0l-0.019,0.003l0,0L6.383,19.87l0,0l-0.019,0.003l0,0l-0.018,0.002l0,0l-0.019,0.002l0,0L6.308,19.88l0,0
		l-0.019,0.001v0.001l-0.018,0.002l0,0l-0.018,0.003l0,0l-0.019,0.002l0,0l-0.019,0.003l0,0l-0.018,0.002l0,0l-0.018,0.001l0,0
		L6.16,19.897l0,0l-0.019,0.001l0,0L6.124,19.9l0,0l-0.019,0.002l0,0l-0.018,0.002l0,0l-0.018,0.001v0.001l-0.019,0.002l0,0
		l-0.018,0.001l0,0l-0.018,0.001l0,0l-0.018,0.002l0,0l-0.018,0.001l0,0l-0.018,0.001l0,0l-0.019,0.002l0,0l-0.018,0.001l0,0
		l-0.018,0.001l0,0l-0.017,0l0,0l-0.018,0.001l0,0L5.85,19.918l0,0H5.832l0,0l-0.018,0.002l0,0H5.796l0,0l-0.018,0.001l0,0H5.759
		l0,0H5.741l0,0H5.723l0,0l-0.018,0.001l0,0H5.687l0,0H5.669l0,0H5.65H5.633l0,0H5.615l0,0H5.597l0,0l-0.018-0.001H5.561H5.543
		H5.525l-0.018-0.001H5.49l-0.018-0.001l-0.018-0.001l-0.018-0.001l-0.018-0.001l-0.017-0.001l-0.018-0.001
		c-0.374-0.019-0.732-0.081-1.071-0.181l-0.016-0.004l-0.016-0.005l-0.016-0.005L4.25,19.715l-0.015-0.006l-0.016-0.004
		l-0.015-0.006l-0.016-0.004L4.172,19.69l-0.016-0.005L4.142,19.68l0,0l-0.016-0.006l0,0l-0.015-0.005l0,0l-0.015-0.006l0,0
		L4.08,19.658l0,0l-0.015-0.005l0,0L4.05,19.648l0,0l-0.015-0.006l0,0L4.02,19.636l0,0l-0.015-0.006l0,0L3.99,19.625l0,0
		l-0.015-0.006l0,0l-0.015-0.006l0,0l-0.015-0.006l0,0l-0.016-0.006l0,0l-0.014-0.006l0,0L3.901,19.59l0,0l-0.015-0.006l0,0
		L3.87,19.577l0,0l-0.015-0.006l0,0l-0.014-0.006l0,0l-0.015-0.006H3.826l-0.014-0.007l0,0l-0.015-0.006l0,0l-0.015-0.007l0,0
		l-0.015-0.006l0,0l-0.013-0.006l0,0l-0.016-0.007l0,0l-0.014-0.006l0,0l-0.015-0.007l0,0l-0.013-0.007l0,0l-0.015-0.007l0,0
		l-0.015-0.006l0,0l-0.014-0.007l0,0l-0.014-0.006l0,0l-0.014-0.007l0,0L3.61,19.458l0,0l-0.014-0.007l0,0l-0.014-0.007l0,0
		l-0.014-0.009l0,0l-0.015-0.007l0,0l-0.014-0.007l0,0l-0.013-0.007l0,0l-0.014-0.007l0,0l-0.014-0.009l0,0l-0.014-0.007l0,0
		L3.47,19.384l0,0l-0.014-0.008l0,0l-0.013-0.007l0,0l-0.014-0.008l0,0l-0.013-0.008l0,0l-0.013-0.009l0,0l-0.014-0.007
		l-0.013-0.008l-0.053-0.031l-0.005-0.003l-1.042-0.608l-0.017-0.01l-0.003-0.001L2.243,18.67l0.012,0.006l0.013,0.009l0,0
		l0.015,0.009l0,0L2.297,18.7l0,0l0.014,0.009l0,0l0.014,0.009l0,0l0.015,0.007l0,0l0.014,0.009l0,0l0.015,0.009l0,0l0.015,0.007
		l0,0l0.014,0.008l0,0l0.015,0.008l0,0l0.015,0.007l0,0l0.014,0.008l0,0l0.015,0.008l0,0l0.015,0.007l0,0l0.015,0.007l0,0
		l0.015,0.007h0.001l0.014,0.007l0,0l0.015,0.007l0,0l0.016,0.007l0,0l0.015,0.007l0,0l0.015,0.007l0,0l0.015,0.007l0,0l0.015,0.007
		l0,0l0.015,0.007l0,0l0.015,0.006l0,0l0.016,0.007l0,0l0.015,0.007l0,0l0.015,0.006l0,0l0.016,0.006l0,0l0.016,0.006l0,0
		l0.015,0.007l0,0l0.016,0.006l0,0l0.016,0.006h0.001l0.015,0.006l0,0l0.016,0.006l0,0l0.016,0.006l0,0l0.015,0.006l0,0l0.016,0.006
		l0,0l0.015,0.007l0,0l0.017,0.006l0,0l0.016,0.006l0,0l0.016,0.006l0,0l0.016,0.007l0,0l0.015,0.005l0,0l0.016,0.005l0,0
		l0.016,0.006l0,0l0.016,0.006l0,0l0.016,0.005L3.01,19.02l0.016,0.005l0.016,0.006l0.016,0.006l0.016,0.006l0.016,0.005
		l0.016,0.006l0.016,0.005l0.016,0.004l0.016,0.006l0.017,0.006l0.016,0.004l0.016,0.004l0.016,0.006
		c0.356,0.103,0.735,0.164,1.131,0.183l0.019,0.001h0.019l0.02,0.001l0.018,0.001l0.019,0.001h0.018l0.019,0.001h0.019l0.02,0.001
		h0.018h0.019H4.58h0.019h0.02h0.018h0.019h0.019l0.019-0.001h0.019l0.019-0.001l0,0h0.02l0,0l0.019-0.002l0,0h0.019l0,0l0.02-0.001
		l0,0l0.019-0.001l0,0l0.019-0.001l0,0l0.019-0.002l0,0l0.019-0.001l0,0l0.02-0.001l0,0l0.019-0.001l0,0l0.02-0.002l0,0l0.019-0.001
		l0,0l0.019-0.001l0,0l0.019-0.001l0,0l0.02-0.003l0.019-0.001l0.019-0.002l0.02-0.001l0.019-0.002l0.019-0.001l0.02-0.003
		l0.019-0.001l0.019-0.003L5.2,19.24l0.019-0.002l0.02-0.002l0.019-0.002l0.02-0.002l0.019-0.003l0.02-0.002l0.019-0.003l0.02-0.003
		l0.02-0.003l0.02-0.003l0.019-0.003l0.02-0.003l0.02-0.003l0.019-0.003l0.02-0.003l0.02-0.003l0.019-0.003l0.021-0.004l0.02-0.003
		l0.02-0.003l0.021-0.004l0.019-0.004l0.02-0.003l0.02-0.004l0.021-0.004l0.021-0.003l0.019-0.005l0.021-0.004l0.02-0.003
		l0.02-0.006l0.021-0.003l0.02-0.005l0.021-0.005l0.019-0.004l0.02-0.004l0.021-0.006l0.02-0.004l0.021-0.004l0.021-0.006
		l0.02-0.005l0.021-0.005l0.021-0.005l0.02-0.005l0.021-0.006l0.021-0.006l0.02-0.006l0.021-0.006l0.02-0.005l0.021-0.005
		l0.02-0.006l0.02-0.006l0.021-0.006l0.021-0.006l0.02-0.006l0.021-0.006L6.33,19.01l0.02-0.006l0.02-0.007l0.021-0.006l0.02-0.007
		l0.021-0.006l0.021-0.006l0.021-0.007l0.02-0.006l0.021-0.007l0.019-0.007l0.021-0.007l0.021-0.007l0.02-0.007l0.021-0.007
		l0.021-0.007l0.021-0.007l0.021-0.008l0.021-0.007l0.021-0.008l0.02-0.008l0,0l0.021-0.009l0,0l0.021-0.007l0,0l0.02-0.008l0,0
		l0.021-0.008l0,0l0.021-0.009l0,0l0.021-0.007l0,0l0.02-0.009l0,0l0.021-0.009l0,0l11.046-4.431c0.552-0.223,1.053-0.499,1.5-0.818
		c0.444-0.318,0.829-0.676,1.152-1.064c0.321-0.383,0.578-0.792,0.769-1.216C21.562,10.861,21.686,10.431,21.745,9.998z"/>
	<path class="st3" d="M20.085,9.514c-0.025,0.274-0.088,0.548-0.183,0.816c-0.098,0.271-0.228,0.538-0.393,0.792
		c-0.165,0.257-0.362,0.503-0.592,0.733c-0.231,0.23-0.495,0.444-0.786,0.635c-0.043,0.028-0.086,0.056-0.131,0.081
		c-0.077,0.049-0.156,0.096-0.238,0.139c-0.186,0.102-0.384,0.194-0.588,0.278L6.589,17.27c-0.331,0.134-0.661,0.229-0.984,0.289
		c-0.323,0.06-0.637,0.083-0.939,0.074c-0.3-0.01-0.589-0.054-0.86-0.127c-0.27-0.074-0.523-0.176-0.756-0.307
		C2.82,17.07,2.61,16.916,2.424,16.737c-0.183-0.175-0.342-0.372-0.475-0.591c-0.132-0.215-0.237-0.449-0.316-0.7
		c-0.078-0.246-0.127-0.51-0.147-0.787l-0.079-1.103L1.33,12.476L0.994,7.78C0.98,7.607,0.992,7.428,1.023,7.25
		c0.031-0.178,0.083-0.357,0.154-0.534c0.017-0.043,0.035-0.087,0.054-0.13c0.061-0.132,0.13-0.261,0.206-0.391
		c0.102-0.17,0.22-0.338,0.352-0.501C1.918,5.534,2.059,5.38,2.211,5.235C2.214,5.231,2.217,5.23,2.219,5.226
		C2.373,5.077,2.54,4.935,2.717,4.801c0.175-0.132,0.363-0.257,0.556-0.37c0.194-0.113,0.399-0.217,0.611-0.309l6.702-2.904
		c0.216-0.094,0.437-0.174,0.657-0.239c0.22-0.064,0.442-0.116,0.662-0.152c0.22-0.038,0.439-0.061,0.654-0.071
		c0.216-0.009,0.427-0.005,0.635,0.014c0.208,0.017,0.407,0.05,0.597,0.097c0.195,0.049,0.377,0.109,0.547,0.186
		c0.172,0.078,0.331,0.169,0.473,0.278c0.143,0.107,0.27,0.232,0.378,0.37l4.233,5.533c0.173,0.225,0.312,0.463,0.418,0.708
		c0.109,0.249,0.183,0.506,0.223,0.768C20.105,8.974,20.111,9.243,20.085,9.514z"/>
	<path id="XMLID_00000084487824619194906050000017359942623653110434_" class="st4" d="M6.589,17.269
		c-0.121,0.049-0.243,0.093-0.364,0.133c-0.209,0.067-0.416,0.119-0.62,0.156c-0.322,0.06-0.637,0.083-0.939,0.073
		c-0.3-0.01-0.589-0.054-0.861-0.127c-0.269-0.073-0.521-0.176-0.754-0.306C2.82,17.07,2.61,16.916,2.425,16.738
		c-0.183-0.175-0.343-0.373-0.477-0.591c-0.132-0.216-0.237-0.449-0.315-0.701c-0.077-0.246-0.127-0.51-0.147-0.787L0.993,7.781
		c-0.013-0.175-0.001-0.353,0.03-0.533c0.032-0.177,0.084-0.356,0.154-0.533c0.07-0.176,0.157-0.35,0.26-0.523
		c0.102-0.17,0.22-0.337,0.352-0.5c0.13-0.161,0.274-0.317,0.43-0.467c0.154-0.149,0.321-0.291,0.497-0.424
		c0.176-0.133,0.361-0.258,0.556-0.371c0.194-0.114,0.399-0.218,0.61-0.31l6.702-2.904c0.217-0.094,0.437-0.174,0.657-0.238
		c0.22-0.066,0.442-0.117,0.661-0.154c0.22-0.037,0.439-0.061,0.654-0.071c0.216-0.01,0.429-0.005,0.635,0.013
		c0.207,0.018,0.408,0.051,0.599,0.098c0.193,0.048,0.375,0.11,0.546,0.186c0.172,0.078,0.33,0.169,0.473,0.277
		c0.143,0.109,0.271,0.232,0.378,0.371l4.233,5.533c0.172,0.225,0.312,0.462,0.418,0.708c0.108,0.249,0.183,0.506,0.223,0.768
		c0.042,0.266,0.049,0.536,0.022,0.806c-0.027,0.274-0.088,0.548-0.183,0.816c-0.098,0.272-0.228,0.538-0.393,0.792
		c-0.165,0.257-0.363,0.503-0.592,0.733c-0.232,0.229-0.494,0.443-0.785,0.634c-0.292,0.191-0.612,0.358-0.958,0.499l-8.472,3.427
		L6.589,17.269L6.589,17.269z M20.869,8.652c-0.054-0.303-0.148-0.599-0.28-0.886c-0.13-0.281-0.296-0.552-0.502-0.809l-4.376-5.482
		c-0.127-0.158-0.276-0.298-0.445-0.42c-0.166-0.121-0.352-0.225-0.55-0.311c-0.197-0.085-0.409-0.154-0.629-0.206
		c-0.219-0.052-0.45-0.087-0.686-0.106c-0.235-0.019-0.476-0.023-0.724-0.01c-0.244,0.012-0.493,0.04-0.743,0.083
		c-0.249,0.043-0.501,0.103-0.752,0.177c-0.249,0.075-0.499,0.165-0.745,0.272L3.822,3.824c-0.238,0.103-0.468,0.22-0.688,0.348
		c-0.22,0.129-0.43,0.268-0.63,0.417c-0.2,0.149-0.389,0.308-0.564,0.475C1.764,5.231,1.6,5.407,1.452,5.588
		C1.301,5.772,1.164,5.964,1.044,6.159C0.922,6.356,0.819,6.557,0.735,6.759c-0.084,0.204-0.148,0.41-0.189,0.616
		C0.506,7.582,0.489,7.788,0.501,7.992l0.368,6.923c0.018,0.321,0.068,0.627,0.151,0.915c0.084,0.292,0.201,0.567,0.348,0.819
		c0.149,0.256,0.329,0.49,0.536,0.699c0.211,0.211,0.449,0.396,0.711,0.549c0.268,0.156,0.559,0.28,0.871,0.371
		c0.315,0.091,0.651,0.145,1.002,0.161c0.354,0.016,0.723-0.009,1.099-0.075c0.38-0.068,0.767-0.179,1.156-0.336l10.809-4.354
		c0.406-0.164,0.782-0.362,1.123-0.586c0.341-0.225,0.647-0.476,0.916-0.748c0.267-0.269,0.496-0.559,0.685-0.861
		c0.187-0.3,0.335-0.611,0.442-0.929c0.106-0.313,0.172-0.632,0.197-0.951C20.939,9.273,20.925,8.96,20.869,8.652z"/>
	<path class="st5" d="M20.822,8.43c-0.236,0.151-0.484,0.285-0.742,0.402c-0.004-0.042-0.01-0.083-0.017-0.125
		c-0.041-0.262-0.115-0.519-0.223-0.768c-0.106-0.245-0.246-0.482-0.418-0.708l-4.233-5.533c-0.107-0.139-0.235-0.263-0.378-0.371
		c-0.143-0.108-0.301-0.199-0.473-0.277c-0.171-0.076-0.353-0.138-0.546-0.186c-0.191-0.047-0.392-0.079-0.599-0.098
		c-0.206-0.018-0.419-0.023-0.635-0.013c-0.215,0.01-0.434,0.033-0.654,0.071c-0.219,0.037-0.441,0.088-0.661,0.154
		c-0.22,0.065-0.439,0.144-0.657,0.238L7.573,2.523c-0.034-0.095-0.066-0.19-0.097-0.285l2.962-1.285
		c0.247-0.107,0.496-0.198,0.745-0.272c0.251-0.074,0.502-0.134,0.752-0.177c0.25-0.043,0.499-0.071,0.743-0.083
		c0.247-0.012,0.489-0.009,0.724,0.01c0.236,0.019,0.467,0.054,0.686,0.106c0.221,0.052,0.433,0.121,0.629,0.206
		c0.199,0.086,0.384,0.19,0.55,0.311c0.169,0.122,0.318,0.262,0.445,0.42l4.375,5.482c0.206,0.257,0.373,0.528,0.502,0.809
		C20.689,7.982,20.767,8.204,20.822,8.43z"/>
	
		<linearGradient id="SVGID_1_" gradientUnits="userSpaceOnUse" x1="8.9243" y1="21.3401" x2="19.3711" y2="12.5742" gradientTransform="matrix(1 0 0 -1 0 22.252)">
		<stop  offset="0" style="stop-color:#FDFAE2"/>
		<stop  offset="1" style="stop-color:#1F71B6"/>
	</linearGradient>
	<path class="st6" d="M19.84,7.94c-0.106-0.245-0.246-0.482-0.418-0.708l-4.233-5.533c-0.107-0.139-0.235-0.263-0.378-0.371
		c-0.143-0.108-0.301-0.199-0.473-0.277c-0.17-0.076-0.353-0.138-0.546-0.186c-0.191-0.047-0.392-0.079-0.599-0.098
		c-0.206-0.018-0.419-0.023-0.635-0.013c-0.215,0.01-0.434,0.033-0.654,0.071c-0.22,0.037-0.442,0.088-0.662,0.154
		c-0.22,0.065-0.439,0.144-0.657,0.238L7.573,2.523c0.847,2.351,2.741,4.55,5.294,5.84c2.557,1.292,5.205,1.383,7.213,0.47
		c-0.004-0.042-0.01-0.083-0.016-0.124C20.022,8.446,19.948,8.189,19.84,7.94z"/>
	<path class="st0" d="M15.667,9.471c-0.032,0.172-0.182,0.202-0.229,0.217c-0.045,0.015-0.037,0.122-0.127,0.361
		c-0.202,0.264-0.578,0.09-0.616,0.08c-0.012,0.043-0.047,0.09-0.199,0.09c-0.34,0.048-0.756-0.232-0.783-0.384
		c-0.025-0.15,0.067-0.189-0.023-0.294c-0.092-0.104-0.611-0.34-1.122-0.746c-0.511-0.406-0.835-0.886-1.244-1.224
		c-0.371-0.055-0.683,0.307-1.255,0.856C9.499,8.979,9.376,8.887,8.875,9.27c-0.501,0.381-0.644,0.466-0.983,1.05
		c-0.337,0.584-0.87,0.547-1.095,0.759c0.112,0.033,0.072,0.079,0.596,0.344c0.524,0.267,0.606,0.254,1.562,0.314
		c0.671,0.04,0.689-0.04,1.277,0.167l0.035,0.015c0.392,0.117,1.275,0.836,1.592,0.928c0.365,0.107,0.417,0.344,0.406,0.379
		c-0.012,0.033,0.107,0.147,0.259,0.325c0.152,0.179,0.252,0.412,0.259,0.511c0.009,0.098,0.11-0.062,0.119,0.384
		c0.002,0.015,0,0.029-0.002,0.042c0,0.012-0.002,0.022-0.003,0.032c-0.068,0.344-0.706,0.16-0.942,0.135
		c-0.25-0.027-0.437-0.305-0.514-0.397c-0.075-0.092,0.107-0.311,0.149-0.384c0.043-0.073-0.124-0.085-0.311-0.005
		c-0.189,0.079-0.245-0.13-0.386-0.259c-0.142-0.129-0.716-0.399-1.232-0.649l-0.055-0.022c-0.559-0.222-1.484-0.073-2.495-0.01
		c-1.01,0.063-1.891-0.139-2.1-0.195c-0.189-0.053-1.052-0.614-1.501-0.593c-0.108-0.082-0.227-0.154-0.354-0.21
		c-0.571-0.252-1.125-0.471-1.721-0.631c-0.067-0.035-0.133-0.07-0.199-0.105L0.992,7.78c-0.013-0.174-0.002-0.352,0.03-0.533
		c0.033-0.175,0.083-0.355,0.155-0.533c0.068-0.175,0.157-0.351,0.26-0.523c0.102-0.17,0.219-0.337,0.351-0.501
		C1.844,5.623,1.902,5.557,1.964,5.49C2.468,5.517,2.727,5.393,2.93,5.392C3.297,5.39,3.509,5.36,3.488,5.296
		C3.466,5.231,3.269,5.343,3.07,5.13c0.092,0.028,0.224,0.068,0.372-0.02c0.149-0.087,0.28-0.124,0.435-0.095
		c0.154,0.029,0.551-0.002,0.688-0.055c0.139-0.054,0.167-0.215,0.347-0.276c0.182-0.058,0.344,0.01,0.22-0.124
		c0.255-0.035,0.33-0.013,0.537-0.025c0.209-0.013,0.3-0.185,0.501-0.21c0.2-0.023,0.127-0.15,0.257-0.112
		c0.132,0.042,0.295,0.035,0.407,0.002c0.112-0.032,0.152-0.097,0.112-0.204c0.164,0.068,0.115,0.092,0.451,0.062
		c0.336-0.03,0.646,0.11,0.693-0.003C7.856,3.996,7.592,3.878,7.617,3.707c0.199,0.06,0.25,0.025,0.496-0.027
		c0.245-0.052,0.756,0.195,1.05,0.26c0.294,0.065,0.232-0.005,0.26-0.098C9.238,3.734,9.085,3.611,9.225,3.464
		c0.426,0.207,0.736,0.124,1.22,0.184c0.519-0.235,1.351,0.122,1.659,0.269c-0.115-0.164-0.165-0.446-0.042-0.638
		c0.2,0.012,0.464,0.27,1.02,0.952c0.794,0.205,1.053,1.362,1.225,1.844c0.172,0.482,0.302,1.067,0.514,1.417
		c0.21,0.352,0.514,1.158,0.678,1.481C15.61,9.186,15.697,9.299,15.667,9.471z"/>
	<path class="st0" d="M9.829,15.126c0.015-0.099-0.028-0.348-0.136-0.556c-0.108-0.208-0.197-0.346-0.178-0.376
		c0.019-0.031,0.022-0.274-0.31-0.461c-0.288-0.162-1.166-0.911-1.522-1.114l-0.03-0.021c-0.526-0.336-0.563-0.262-1.206-0.454
		c-0.918-0.274-1.001-0.28-1.45-0.659c-0.451-0.378-0.401-0.413-0.502-0.471c0.2-0.115,0.533-0.058,0.88-0.225
		c-0.032-0.008-0.066-0.013-0.098-0.021c-0.842-0.222-1.662-0.551-2.454-0.912c-0.336-0.153-0.67-0.312-1.009-0.459
		c-0.011-0.005-0.023-0.01-0.034-0.015C1.745,9.457,1.707,9.529,1.662,9.598c-0.072,0.111-0.157,0.23-0.252,0.347
		c0.175,0.396,0.26,0.838,0.245,1.274c0.363,0.055,0.713,0.113,0.698,0.197c-0.028,0.153,0.035,0.558,0.206,0.653
		c0.191,0.102,1.004,0.499,2.002,0.667c0.998,0.168,1.933,0.233,2.426,0.576l0.049,0.034c0.446,0.36,0.944,0.753,1.053,0.911
		c0.108,0.158,0.116,0.374,0.317,0.339c0.2-0.034,0.36,0.014,0.302,0.076c-0.057,0.061-0.284,0.234-0.232,0.34
		c0.054,0.106,0.173,0.42,0.411,0.503c0.223,0.077,0.803,0.402,0.947,0.083c0.003-0.01,0.008-0.02,0.011-0.031
		c0.004-0.012,0.008-0.026,0.01-0.04C9.95,15.091,9.814,15.225,9.829,15.126z"/>
</g>
</svg>
