<?xml version="1.0" encoding="utf-8"?>
<svg version="1.1" id="Ebene_1" xmlns="http://www.w3.org/2000/svg" xmlns:xlink="http://www.w3.org/1999/xlink" x="0px" y="0px"
	 width="304px" height="191px" viewBox="0 0 304 191" style="enable-background:new 0 0 304 191;" xml:space="preserve">
<style type="text/css">
	.st00{filter:url(#blur);}
	.st0{opacity:0.7;fill-rule:evenodd;clip-rule:evenodd;}
	.st1{fill-rule:evenodd;clip-rule:evenodd;fill:url(#SVGID_1_);}
	.st2{opacity:0.05;fill-rule:evenodd;clip-rule:evenodd;enable-background:new    ;}
	.st3{opacity:0.22;fill-rule:evenodd;clip-rule:evenodd;enable-background:new    ;}
	.st4{opacity:0.17;fill-rule:evenodd;clip-rule:evenodd;fill:url(#SVGID_2_);enable-background:new    ;}
	.st5{opacity:0.31;fill-rule:evenodd;clip-rule:evenodd;fill:url(#SVGID_3_);enable-background:new    ;}
</style>
<filter id="blur">
	<feGaussianBlur stdDeviation="3"></feGaussianBlur>
</filter>
<g class="st00">
<path class="st0" d="M288,3H58.61C43.84,3,31.19,13.6,28.57,28.17L2,176h229.39c14.77,0,27.42-10.6,30.04-25.17L288,3z"/>
</g>
<linearGradient id="SVGID_1_" gradientUnits="userSpaceOnUse" x1="143" y1="192" x2="143" y2="19" gradientTransform="matrix(1 0 0 -1 0 192)">
	<stop offset="0" style="stop-color:#FEED01"/>
	<stop offset="1" style="stop-color:#A59A06"/>
</linearGradient>
<path class="st1" d="M286,0H56.61C41.84,0,29.19,10.6,26.57,25.17L0,173h229.39c14.77,0,27.42-10.6,30.04-25.17L286,0z"/>
<path class="st0" d="M109,62.5V37.4c0-0.3,0.2-0.5,0.5-0.5l0,0h50.6c0.1,0,0.1,0,0.2,0.1l1.7,0.7l-0.2,0.4l0.2-0.4
	c0.1,0,0.1,0.1,0.2,0.1l11.3,11.1l0.7,0.7l-0.3,0.3l0.3-0.3c0.1,0.1,0.1,0.2,0.1,0.3v12.6c0,0.3-0.2,0.5-0.5,0.5H169
	c-0.3,0-0.5-0.2-0.5-0.5l0,0v-6h-13c-0.3,0-0.5-0.2-0.5-0.5l0,0l0,0v-2.4l0,0V42.7h-40.2v19.8c0,0.3-0.2,0.5-0.5,0.5l0,0h-4.9
	C109.2,63,109,62.7,109,62.5L109,62.5L109,62.5z M115.8,95.9h53.4h0.1c0.7,0,1.4,0.2,2.1,0.4c0.7,0.3,1.3,0.7,1.8,1.2
	s0.9,1.1,1.2,1.8c0.3,0.6,0.4,1.3,0.4,2v0.1v8h11.5h0.1c0.5,0,1-0.1,1.4-0.3c0.5-0.2,0.9-0.5,1.3-0.9c0.4-0.4,0.7-0.8,0.9-1.3
	s0.3-0.9,0.3-1.4v-0.1V74.8v-0.1c0-0.5-0.1-1-0.3-1.4c-0.2-0.5-0.5-0.9-0.9-1.3s-0.8-0.7-1.3-0.9c-0.5-0.2-0.9-0.3-1.4-0.3h-0.1
	H98.6h-0.1c-0.5,0-1,0.1-1.4,0.3c-0.5,0.2-0.9,0.5-1.3,0.9s-0.7,0.8-0.9,1.3c-0.2,0.5-0.3,0.9-0.3,1.4v0.1v30.8v0.1
	c0,0.5,0.1,1,0.3,1.4c0.2,0.5,0.5,0.9,0.9,1.3s0.8,0.7,1.3,0.9c0.5,0.2,0.9,0.3,1.4,0.3h0.1h11.5v-8v-0.1c0-0.7,0.2-1.4,0.4-2
	c0.3-0.7,0.7-1.3,1.2-1.8c0,0,0,0,0.1-0.1c0.5-0.5,1.2-0.9,1.8-1.2c0.7-0.3,1.4-0.4,2.1-0.4C115.7,95.9,115.8,95.9,115.8,95.9
	L115.8,95.9L115.8,95.9z M174.9,115.4v15.1v0.1c0,0.7-0.2,1.4-0.4,2c-0.3,0.7-0.7,1.3-1.2,1.8s-1.1,0.9-1.8,1.2s-1.3,0.4-2.1,0.4
	h-0.1h-53.4h-0.1c-0.7,0-1.4-0.2-2.1-0.4c-0.7-0.3-1.3-0.7-1.8-1.2s-0.9-1.1-1.2-1.8c-0.3-0.6-0.4-1.3-0.4-2v-0.1v-15.1H98.6h-0.1
	c-1.3,0-2.5-0.3-3.7-0.7c-2.4-1-4.4-2.9-5.4-5.3c-0.5-1.1-0.7-2.4-0.7-3.6v-0.1V74.8v-0.1c0-1.3,0.3-2.5,0.7-3.7
	c0.5-1.2,1.2-2.3,2.1-3.2c0.9-0.9,2-1.6,3.2-2.1s2.4-0.7,3.7-0.7h0.1h87.7h0.1c1.3,0,2.5,0.3,3.7,0.7c1.2,0.5,2.3,1.2,3.2,2.1
	s1.6,2,2.1,3.2c0.5,1.1,0.7,2.4,0.7,3.7v0.1v30.8v0.1c0,1.3-0.3,2.5-0.7,3.6c-0.5,1.2-1.2,2.3-2.1,3.2c-0.9,0.9-2,1.6-3.2,2.1
	s-2.4,0.7-3.7,0.7h-0.1h-11.3L174.9,115.4L174.9,115.4z M167,50.7l-6.1-6v6H167z M169,101.7h-53v28.6h53V101.7L169,101.7z"/>
<path class="st2" d="M283.641,0L257.43,145.83C254.81,160.4,242.16,171,227.39,171H0.359L0,173h229.39
	c14.77,0,27.42-10.6,30.04-25.17L286,0H283.641z"/>
<path class="st3" d="M284.82,0l-26.39,146.83C255.81,161.4,243.16,172,228.39,172H0.18L0,173h229.39c14.77,0,27.42-10.6,30.04-25.17
	L286,0H284.82z"/>
<linearGradient id="SVGID_2_" gradientUnits="userSpaceOnUse" x1="50.2437" y1="198.2563" x2="172.0705" y2="76.4295" gradientTransform="matrix(1 0 0 -1 0 192)">
	<stop offset="9.057242e-08" style="stop-color:#FFFFFF"/>
	<stop offset="1" style="stop-color:#EEEEEE"/>
</linearGradient>
<path class="st4" d="M28.57,27.17C31.19,12.6,43.84,2,58.61,2h227.031L286,0H56.61C41.84,0,29.19,10.6,26.57,25.17L0,173h2.359
	L28.57,27.17z"/>
<linearGradient id="SVGID_3_" gradientUnits="userSpaceOnUse" x1="50.2437" y1="198.2563" x2="171.66" y2="76.84" gradientTransform="matrix(1 0 0 -1 0 192)">
	<stop offset="9.057242e-08" style="stop-color:#FFFFFF"/>
	<stop offset="1" style="stop-color:#CCCCCC"/>
</linearGradient>
<path class="st5" d="M27.57,26.17C30.19,11.6,42.84,1,57.61,1h228.21L286,0H56.61C41.84,0,29.19,10.6,26.57,25.17L0,173h1.18
	L27.57,26.17z"/>
</svg>
