<svg height="128" viewBox="0 0 128 128" width="128" xmlns="http://www.w3.org/2000/svg"><g fill="none" fill-rule="evenodd"><path d="m0 0h128v128h-128z" fill="#418ac5"/><path d="m83.868 75.41c0 3.0613486-.5329947 5.7126555-1.599 7.954s-2.4873244 4.0999926-4.264 5.576c-1.7766755 1.4760074-3.8403216 2.5829963-6.191 3.321s-4.8106538 1.107-7.38 1.107c-2.4053454 0-4.769655-.3416633-7.093-1.025-2.323345-.6833368-4.4006575-1.7493261-6.232-3.198s-3.3073277-3.334655-4.428-5.658-1.681-5.1249836-1.681-8.405h13.448c0 2.0773437.5739943 3.6216616 1.722 4.633s2.5693249 1.517 4.264 1.517c1.7493421 0 3.1843277-.5193281 4.305-1.558s1.681-2.5966563 1.681-4.674c0-1.7493421-.5876608-3.2116608-1.763-4.387s-2.664991-1.763-4.469-1.763h-1.886v-11.644h1.886c2.0226768 0 3.4576624-.5876608 4.305-1.763s1.271-2.4189934 1.271-3.731c0-1.858676-.5329947-3.252662-1.599-4.182s-2.3096596-1.394-3.731-1.394-2.6649947.4783285-3.731 1.435c-1.0660053.9566714-1.599 2.3096579-1.599 4.059h-13.448c0-2.733347.4919951-5.1933224 1.476-7.38s2.3233249-4.0316591 4.018-5.535c1.6946751-1.5033408 3.676322-2.6649959 5.945-3.485s4.7149869-1.23 7.339-1.23c2.6786801 0 5.1659885.4236624 7.462 1.271s4.2913249 2.0363257 5.986 3.567 3.006662 3.3619893 3.936 5.494 1.394 4.4553208 1.394 6.97c0 1.5853413-.1776649 2.9929939-.533 4.223s-.8199971 2.2959955-1.394 3.198-1.2299963 1.6673302-1.968 2.296-1.4623298 1.1889975-2.173 1.681c.8200041.5466694 1.6263294 1.1889963 2.419 1.927s1.5033302 1.6126616 2.132 2.624 1.147998 2.18666 1.558 3.526c.4100021 1.33934.615 2.8836579.615 4.633z" fill="#fff"/></g></svg>