<svg xmlns="http://www.w3.org/2000/svg" width="73" height="53" style="enable-background:new 0 0 73 53" xml:space="preserve"><path d="M21.86 0C14.33 0 7.87 5.5 6.54 13.05L0 53h51.14c7.53 0 13.99-5.5 15.32-13.05L73 0H21.86zm4.04 39.448c-.052.314-.262.523-.576.523h-8.063c-.314 0-.523-.209-.471-.523l1.361-8.115c.052-.313.262-.523.576-.523h8.114c.314 0 .524.21.471.523L25.9 39.448zm12.93 0c-.053.314-.262.523-.576.523h-8.063c-.314 0-.523-.209-.471-.523l1.361-8.115c.052-.313.262-.523.576-.523h8.115c.313 0 .523.21.471.523l-1.413 8.115zm12.929 0c-.052.314-.262.523-.575.523h-8.063c-.314 0-.523-.209-.472-.523l1.361-8.115c.053-.313.262-.523.576-.523H52.7c.314 0 .523.21.472.523l-1.413 8.115z" style="fill-rule:evenodd;clip-rule:evenodd"/></svg>