<svg version="1.1" id="Ebene_1" xmlns="http://www.w3.org/2000/svg" x="0" y="0" viewBox="0 0 273 95" style="enable-background:new 0 0 273 95" xml:space="preserve"><style>.st0{fill:#fff}.st1{fill:#c0a630}</style><path class="st0" d="M235.534 1.37c-25.48-5.39-50.54 10.92-55.93 36.4-.14.77-.28 1.61-.42 2.38 1.96-.07 3.99-.35 6.02-.91h.07c.42-.07.77-.21 1.19-.35 1.26-.42 2.52-.84 3.78-1.47 2.45-1.12 4.76-2.1 6.86-3.01-2.52-2.73-3.85-5.67-3.85-5.67 5.46 1.61 15.05.84 18.83.42h.98c10.5-1.89 16.94 1.61 25.55 10.5 7.98 8.19 18.83 11.69 22.96 12.74.7.21 1.26.91 1.12 1.68-1.26 7.49-11.13 8.68-17.71 7.14-6.72-1.54-26.88-2.31-37.24.49-4.41 1.19-11.76 6.93-20.72 12.74 6.65 9.52 16.73 16.59 28.91 19.18 25.48 5.39 50.54-10.92 55.93-36.4s-10.85-50.47-36.33-55.86z"/><path class="st1" d="M108.303 46.6c0-.2.2-.3.4-.3h7.6c4.2 0 6.1 2.3 6.1 6.2 0 2.8-1 9.1-2.3 11.8-1.6 3.3-4.1 4.3-7.7 4.3h-7.6c-.2 0-.3-.1-.3-.3l3.8-21.7zm.6 18.7h3.3c2.4 0 3.9-.9 5-2.9.8-1.6 1.8-7.3 1.8-9.3 0-2.6-1.4-3.6-4-3.6h-3.3c-.1 0-.2.1-.2.2l-2.7 15.4c-.1.2-.1.2.1.2zM126.703 51c1.7-3.5 4.5-5.1 8.4-5.1 4 0 6.7 2.3 6.7 6.7 0 1.8-1.2 9-2.3 11.3-1.7 3.5-4.5 5.1-8.5 5.1-3.9 0-6.7-2.3-6.7-6.7 0-1.8 1.2-9 2.4-11.3zm5 14.7c2.1 0 3.7-1.2 4.6-3.1.9-1.9 1.9-8.1 1.9-9.7 0-2.3-1.3-3.7-3.6-3.7-2.1 0-3.7 1.2-4.6 3.1-.9 1.9-1.9 8.1-1.9 9.7 0 2.3 1.3 3.7 3.6 3.7zM145.903 51c1.7-3.5 4.6-5.1 8.5-5.1 3.5 0 5.9 2.2 6.4 4.7 0 .2 0 .3-.2.4l-2.6 1.1c-.2.1-.3 0-.4-.2-.7-1.8-1.8-2.8-3.8-2.8-2.1 0-3.7 1.2-4.6 3.1-.9 1.9-1.9 8.1-1.9 9.7 0 2.3 1.4 3.7 3.6 3.7 2.1 0 3.6-1 4.5-2.9.4-.8.7-1.7.9-3.1 0-.1 0-.2-.2-.2h-3.5c-.2 0-.3-.1-.2-.3l.4-2.5c0-.2.2-.3.4-.3h7.1c.2 0 .3.1.2.3l-.3 1.9c-.3 1.9-.9 4.2-1.4 5.3-1.7 3.5-4.5 5.1-8.5 5.1-3.9 0-6.8-2.3-6.8-6.7 0-1.7 1.2-8.9 2.4-11.2zM161.503 66.1c-.1-.1-.1-.3 0-.5l2.2-2.1c.2-.2.4-.2.5 0 1.1 1.1 3.1 2.2 5.5 2.2 2.9 0 4.7-1.8 4.7-4.1 0-1.3-.7-2.1-3.3-2.5l-1.1-.2c-3.6-.6-5.5-2.3-5.5-5.5 0-4.6 3.7-7.5 8.4-7.5 2.6 0 5.1 1 6.6 2.3.2.1.2.3 0 .5l-1.8 2.1c-.1.2-.3.2-.4.1-1.5-1.1-3-1.6-4.7-1.6-2.4 0-4.1 1.7-4.1 3.8 0 1.3.8 2.2 3.3 2.5l1.1.2c3.5.5 5.5 2.2 5.5 5.2 0 5.1-3.9 8.1-9.2 8.1-3.3-.1-6.3-1.4-7.7-3z"/><path class="st0" d="M13.003 68.6c-.2 0-.3-.1-.4-.3l-2.9-9.8h-5.9c-.1 0-.2.1-.2.2l-1.7 9.5c0 .2-.2.3-.4.3h-1.1c-.2 0-.3-.1-.3-.3l4-21.6c0-.2.2-.3.4-.3h7.2c3.5 0 5.6 1.8 5.6 5 0 3.8-2.2 6.4-5.7 7.1l2.9 9.9c.1.2 0 .4-.2.4h-1.3v-.1zm2.4-17.1c0-2.3-1.4-3.5-4.1-3.5h-5.5c-.1 0-.2.1-.2.2l-1.5 8.5c0 .1 0 .2.2.2h5.5c3.5 0 5.6-2.1 5.6-5.4zM17.303 68.3l11.3-21.7c.1-.2.2-.3.4-.3h1.1c.2 0 .3.1.3.3l3.6 21.7c0 .2-.1.3-.3.3h-1.1c-.2 0-.3-.1-.4-.3l-.9-5.6h-9.4l-2.9 5.6c-.1.3-.3.3-.5.3h-1.2c-.1 0-.1-.1 0-.3zm13.9-7.2-1.9-11.9h-.1l-6.2 11.9h8.2zM39.603 50.9c1.7-3.4 4-4.9 7.5-4.9 2.7 0 4.9 1.5 5.7 4.3.1.2 0 .3-.2.4l-.9.4c-.2.1-.4 0-.4-.1-.8-2.1-2.2-3.3-4.4-3.3-2.6 0-4.4 1.2-5.6 3.8-1.2 2.4-2.2 8.6-2.2 11 0 3.1 1.6 4.9 4.6 4.9 2.4 0 4.1-1.2 5.5-3.3.1-.1.2-.2.4-.1l.9.5c.2.1.2.3.1.4-1.8 2.9-4.2 4.1-7.1 4.1-3.7 0-6.1-2.3-6.1-6.3-.1-2.6 1-9.2 2.2-11.8zM57.903 46.6c0-.2.2-.3.4-.3h1.1c.2 0 .3.1.3.3l-3.8 21.7c0 .2-.2.3-.4.3h-1.1c-.2 0-.3-.1-.3-.3l3.8-21.7zM65.103 46.6c0-.2.2-.3.4-.3h1.1c.2 0 .3.1.4.3l7.7 18.6h.1l3.3-18.6c0-.2.2-.3.4-.3h1c.2 0 .3.1.3.3l-3.8 21.7c0 .2-.2.3-.4.3h-1c-.2 0-.4-.1-.5-.3l-7.8-18.7h-.1l-3.3 18.7c0 .2-.2.3-.4.3h-1c-.2 0-.3-.1-.3-.3l3.9-21.7zM84.003 50.9c1.6-3.4 4.1-4.9 7.8-4.9 2.8 0 5.2 1.4 6 4.1 0 .2 0 .3-.2.4l-1 .4c-.2.1-.3 0-.4-.1-.8-2.2-2.5-3.2-4.8-3.2-2.7 0-4.7 1.3-5.9 3.8-1.2 2.4-2.2 8.6-2.2 11 0 3.1 1.6 4.9 4.7 4.9 2.6 0 4.6-1.2 5.9-3.8.5-1.1 1-2.5 1.3-4.4 0-.1 0-.2-.2-.2h-4.9c-.2 0-.3-.1-.3-.3l.2-1c0-.2.2-.3.3-.3h6.6c.2 0 .3.1.2.3l-.2 1.3c-.3 1.8-.9 3.9-1.4 5-1.7 3.4-4.2 4.9-7.8 4.9-3.8 0-6.1-2.3-6.1-6.3.1-2.4 1.2-9.1 2.4-11.6z"/><path class="st1" d="M183.403 55v-3.8c0-.2.1-.3.3-.3h4.7c.1 0 .2-.1.2-.2V46c0-.2.1-.3.3-.3h4c.2 0 .3.1.3.3v4.7c0 .1.1.2.2.2h4.7c.2 0 .3.1.3.3V55c0 .2-.1.3-.3.3h-4.7c-.1 0-.2.1-.2.2v4.7c0 .2-.1.3-.3.3h-4c-.2 0-.3-.1-.3-.3v-4.7c0-.1-.1-.2-.2-.2h-4.7c-.1.1-.3-.1-.3-.3z"/></svg>