<svg xmlns="http://www.w3.org/2000/svg" width="36" height="36" style="enable-background:new 0 0 36 36" xml:space="preserve"><linearGradient id="a" gradientUnits="userSpaceOnUse" x1="18.112" y1="36" x2="18.112" y2="0"><stop offset="0" style="stop-color:#e1e1e1"/><stop offset="1" style="stop-color:#c8c8c8"/></linearGradient><path d="M21.717.392C11.993-1.661 2.445 4.558.392 14.283c-.064.303-.12.605-.168.907a9.98 9.98 0 0 0 2.303-.335l.019-.005a11.898 11.898 0 0 0 1.906-.688 92.224 92.224 0 0 1 2.628-1.16c-.974-1.052-1.47-2.165-1.47-2.165 2.077.621 5.735.324 7.195.17.123-.013.245-.008.363.011 4.014-.713 6.458.61 9.747 3.998 3.045 3.137 7.186 4.456 8.752 4.865a.563.563 0 0 1 .421.628c-.471 2.851-4.24 3.298-6.753 2.724-2.572-.587-10.259-.886-14.193.193-1.675.459-4.494 2.65-7.901 4.872a17.934 17.934 0 0 0 11.04 7.31c9.725 2.053 19.273-4.166 21.326-13.891 2.054-9.724-4.165-19.272-13.89-21.325z" style="fill:url(#a)"/></svg>