<svg xmlns="http://www.w3.org/2000/svg" width="270" height="195" style="enable-background:new 0 0 252 173" xml:space="preserve"><linearGradient id="b" gradientUnits="userSpaceOnUse" x1="126" y1="51" x2="126" y2="-122" gradientTransform="translate(0 122)"><stop offset="0" style="stop-color:#021138"/><stop offset="1" style="stop-color:#05215c"/></linearGradient><filter id="a"><feGaussianBlur stdDeviation="3"/></filter><g filter="url(#a)"><path style="opacity:.7" d="M256 3.5H60.6c-14.7 0-27.4 10.6-30 25.2L4 176.5h195.4c14.8 0 27.4-10.6 30.1-25.2L256 3.5z"/></g><path d="M252 0H56.6c-14.7 0-27.4 10.6-30 25.2L0 173h195.4c14.8 0 27.4-10.6 30.1-25.2L252 0z" style="fill-rule:evenodd;clip-rule:evenodd;fill:url(#b)"/><linearGradient id="c" gradientUnits="userSpaceOnUse" x1="126" y1="173" x2="126" y2="0"><stop offset="0" style="stop-color:#06133c"/><stop offset="1" style="stop-color:#000"/></linearGradient><path d="M249.641 0 223.5 145.8c-2.7 14.6-15.3 25.2-30.1 25.2H.36L0 173h195.4c14.8 0 27.4-10.6 30.1-25.2L252 0h-2.359z" style="opacity:.1;fill-rule:evenodd;clip-rule:evenodd;fill:url(#c);enable-background:new"/><linearGradient id="d" gradientUnits="userSpaceOnUse" x1="126" y1="173" x2="126" y2="0"><stop offset="0" style="stop-color:#06133c"/><stop offset="1" style="stop-color:#000"/></linearGradient><path d="M250.821 0 224.5 146.8c-2.7 14.6-15.3 25.2-30.1 25.2H.18L0 173h195.4c14.8 0 27.4-10.6 30.1-25.2L252 0h-1.179z" style="opacity:.49;fill-rule:evenodd;clip-rule:evenodd;fill:url(#d);enable-background:new"/><linearGradient id="e" gradientUnits="userSpaceOnUse" x1="41.76" y1="2.26" x2="146.571" y2="107.071"><stop offset="0" style="stop-color:#fff"/><stop offset="1" style="stop-color:#eee"/></linearGradient><path d="M28.6 27.2C31.2 12.6 43.9 2 58.6 2h193.041L252 0H56.6c-14.7 0-27.4 10.6-30 25.2L0 173h2.36L28.6 27.2z" style="opacity:.14;fill-rule:evenodd;clip-rule:evenodd;fill:url(#e);enable-background:new"/><linearGradient id="f" gradientUnits="userSpaceOnUse" x1="41.76" y1="2.26" x2="146.16" y2="106.66"><stop offset="0" style="stop-color:#fff"/><stop offset="1" style="stop-color:#ccc"/></linearGradient><path d="M27.6 26.2C30.2 11.6 42.9 1 57.6 1h194.221L252 0H56.6c-14.7 0-27.4 10.6-30 25.2L0 173h1.18L27.6 26.2z" style="opacity:.22;fill-rule:evenodd;clip-rule:evenodd;fill:url(#f);enable-background:new"/></svg>