<svg version="1.1" id="Ebene_1" xmlns="http://www.w3.org/2000/svg" x="0" y="0" width="312" height="113" style="enable-background:new 0 0 312 113" xml:space="preserve"><style>.st0,.st1,.st2,.st3{fill-rule:evenodd;clip-rule:evenodd}.st0{fill:url(#SVGID_1_)}.st1,.st2,.st3{opacity:.49;enable-background:new}.st2,.st3{opacity:.28;fill:#fff}.st3{opacity:.38;fill:#029ad0}.st5{font-family:&apos;DINNextLTPro-Regular&apos;}.st6{font-size:48px}</style><path d="M109.92 44.88V32.73c0-.12.1-.22.22-.22h24.48c.04 0 .07.01.1.02l.82.33-.09.2.09-.21c.03.01.06.03.08.06l5.48 5.36.35.35-.16.16.16-.16c.04.04.07.1.07.16v6.09c0 .12-.1.22-.22.22h-2.38c-.12 0-.22-.1-.22-.22v-2.9h-6.29c-.12 0-.22-.1-.22-.22V35.3h-19.43v9.56c0 .12-.1.22-.22.22h-2.39c-.13.03-.23-.07-.23-.2zm3.28 16.16h25.82c.02 0 .03 0 .05.01a2.793 2.793 0 0 1 1.89.8c.25.25.46.55.59.88.13.31.2.65.21.99 0 .02.01.03.01.05v3.89h5.62c.24-.01.47-.06.69-.15a2.003 2.003 0 0 0 1.07-1.07c.09-.22.14-.45.15-.69V50.82c0-.02 0-.03.01-.05-.01-.24-.06-.47-.15-.69-.1-.24-.25-.45-.43-.63s-.4-.33-.64-.43c-.22-.09-.46-.14-.7-.15h-42.55a1.981 1.981 0 0 0-1.33.58c-.18.18-.33.4-.43.63-.09.22-.14.46-.15.69v14.98c.01.24.06.47.15.69.1.24.25.45.43.64.18.18.4.33.64.43.22.09.46.14.7.15h5.61v-3.89c0-.02 0-.04.01-.05.01-.34.08-.68.21-.99.13-.32.32-.61.56-.85l.03-.03c.25-.25.56-.45.89-.59.32-.13.66-.2 1-.21 0-.01.02-.01.04-.01zm28.57 9.42v7.3c0 .02 0 .03-.01.05 0 .34-.08.68-.21.99-.14.33-.34.63-.6.88-.25.25-.56.45-.89.59-.32.13-.65.2-.99.21h-25.92c-.34-.01-.68-.08-1-.21a2.94 2.94 0 0 1-.89-.59c-.25-.25-.46-.55-.6-.88-.13-.31-.2-.65-.21-.99 0-.02-.01-.03-.01-.05v-7.3h-5.57c-.02 0-.03 0-.05-.01a4.96 4.96 0 0 1-1.78-.36 4.748 4.748 0 0 1-2.59-2.58c-.23-.54-.36-1.14-.36-1.76 0-.02-.01-.03-.01-.05V50.82c0-.02 0-.04.01-.05.01-.63.13-1.22.36-1.77.24-.58.59-1.1 1.04-1.54a4.776 4.776 0 0 1 3.33-1.39c.02 0 .03-.01.05-.01h42.46c.02 0 .03 0 .05.01.61.01 1.21.13 1.78.36.58.24 1.11.59 1.55 1.03.44.44.8.97 1.04 1.54.23.54.36 1.14.36 1.77 0 .02.01.03.01.05v14.89c0 .02 0 .03-.01.05a4.74 4.74 0 0 1-.36 1.77c-.24.58-.59 1.1-1.04 1.54-.45.44-.97.79-1.55 1.03-.56.23-1.17.35-1.78.36-.02 0-.03.01-.05.01h-5.56zm-3.79-31.28-2.97-2.9v2.9h2.97zm.95 24.67h-25.65v13.83h25.65V63.85z" style="fill:#fff"/></svg>