<svg version="1.1" id="Ebene_1" xmlns="http://www.w3.org/2000/svg" x="0" y="0" width="100" height="100" style="enable-background:new 0 0 100 100" xml:space="preserve"><style>.st0{fill:#fff}</style><path class="st0" d="M58.19 23.23c-14.76-4.51-30.45 3.83-34.96 18.59-4.51 14.76 3.83 30.45 18.59 34.96 14.76 4.51 30.45-3.82 34.96-18.59 4.51-14.77-3.83-30.45-18.59-34.96zm10.16 32.38c-3.1 10.14-13.83 15.84-23.97 12.74-10.14-3.1-15.84-13.83-12.74-23.97 3.1-10.14 13.83-15.84 23.97-12.74s15.84 13.83 12.74 23.97z"/><path class="st0" d="m96.05 54.36-4.24-1.83a2.984 2.984 0 0 1-1.81-2.7c-.01-2.47-.25-4.9-.71-7.29-.22-1.16.28-2.34 1.26-3.01l3.82-2.61a5.27 5.27 0 0 0 1.68-6.82l-3.81-7.17a5.262 5.262 0 0 0-6.59-2.42l-4.3 1.71c-1.1.44-2.36.19-3.19-.64a39.57 39.57 0 0 0-5.64-4.66 2.973 2.973 0 0 1-1.23-3.01l.85-4.54c.5-2.64-1.07-5.22-3.63-6.01L60.73 1a5.27 5.27 0 0 0-6.37 2.95l-1.83 4.24a2.984 2.984 0 0 1-2.7 1.81c-2.47.01-4.9.25-7.29.71-1.16.22-2.34-.27-3-1.25-.73-1.06-1.7-2.49-2.62-3.83a5.27 5.27 0 0 0-6.82-1.68l-7.17 3.81a5.262 5.262 0 0 0-2.42 6.59l1.71 4.3c.44 1.1.19 2.36-.64 3.19a40.254 40.254 0 0 0-4.66 5.64c-.66.97-1.85 1.45-3.01 1.23l-4.54-.85a5.266 5.266 0 0 0-6.01 3.63L1 39.27a5.27 5.27 0 0 0 2.95 6.37l4.24 1.83c1.08.47 1.8 1.52 1.81 2.7.01 2.47.25 4.9.71 7.29.22 1.16-.28 2.34-1.26 3.01l-3.82 2.61a5.27 5.27 0 0 0-1.68 6.82l3.81 7.17a5.262 5.262 0 0 0 6.59 2.42l4.3-1.71c1.1-.44 2.36-.19 3.19.64 1.72 1.71 3.61 3.27 5.64 4.66.97.66 1.45 1.85 1.23 3.01l-.85 4.54a5.266 5.266 0 0 0 3.63 6.01L39.27 99a5.27 5.27 0 0 0 6.37-2.95l1.83-4.24c.47-1.08 1.52-1.8 2.7-1.81 2.47-.01 4.9-.25 7.29-.71 1.16-.22 2.34.28 3.01 1.26l2.61 3.82a5.27 5.27 0 0 0 6.82 1.68l7.17-3.81a5.262 5.262 0 0 0 2.42-6.59l-1.71-4.3c-.44-1.1-.19-2.36.64-3.19a39.57 39.57 0 0 0 4.66-5.64c.66-.97 1.85-1.45 3.01-1.23l4.54.85c2.64.5 5.22-1.07 6.01-3.63L99 60.73c.79-2.56-.48-5.3-2.95-6.37zm-13.82 5.49C76.8 77.62 57.92 87.66 40.15 82.23S12.34 57.92 17.77 40.15s24.31-27.81 42.08-22.38c17.77 5.44 27.81 24.31 22.38 42.08z"/></svg>