<svg version="1.1" id="Ebene_1" xmlns="http://www.w3.org/2000/svg" x="0" y="0" width="140" height="103" style="enable-background:new 0 0 140 103" xml:space="preserve"><style>.st8{opacity:.21;fill-rule:evenodd;clip-rule:evenodd;enable-background:new}</style><g id="_x36_"><linearGradient id="SVGID_1_" gradientUnits="userSpaceOnUse" x1="70" y1=".89" x2="70" y2="103.89" gradientTransform="matrix(1 0 0 -1 0 103.89)"><stop offset="0" style="stop-color:#61605f"/><stop offset="1" style="stop-color:#191818"/></linearGradient><path d="M140 0H33.8C25 0 17.4 6.3 15.9 15L0 103h106.2c8.8 0 16.4-6.3 17.9-15L140 0z" style="fill-rule:evenodd;clip-rule:evenodd;fill:url(#SVGID_1_)"/><g style="opacity:.89"><linearGradient id="SVGID_2_" gradientUnits="userSpaceOnUse" x1="37.428" y1="108.806" x2="75.825" y2="42.3" gradientTransform="matrix(1 0 0 -1 0 103.89)"><stop offset="0" style="stop-color:#fff"/><stop offset=".042" style="stop-color:#f1f1f1"/><stop offset=".126" style="stop-color:#dbdbdb"/><stop offset=".225" style="stop-color:#cacaca"/><stop offset=".348" style="stop-color:#bfbfbf"/><stop offset=".521" style="stop-color:#b8b8b8"/><stop offset="1" style="stop-color:#b6b6b6"/></linearGradient><path d="M19.9 16.1C21.1 9.1 27.3 4 34.4 4h104.9l.7-4H33.8C25 0 17.4 6.3 15.9 15L0 103h4.1l15.8-86.9z" style="opacity:.21;fill-rule:evenodd;clip-rule:evenodd;fill:url(#SVGID_2_);enable-background:new"/><linearGradient id="SVGID_3_" gradientUnits="userSpaceOnUse" x1="37.428" y1="108.806" x2="75.575" y2="42.733" gradientTransform="matrix(1 0 0 -1 0 103.89)"><stop offset="0" style="stop-color:#fff"/><stop offset=".042" style="stop-color:#f1f1f1"/><stop offset=".126" style="stop-color:#dbdbdb"/><stop offset=".225" style="stop-color:#cacaca"/><stop offset=".348" style="stop-color:#bfbfbf"/><stop offset=".521" style="stop-color:#b8b8b8"/><stop offset="1" style="stop-color:#b6b6b6"/></linearGradient><path d="M19 15.1C20.3 8 26.4 2.9 33.6 2.9h105.9L140 0H33.8C25 0 17.4 6.3 15.9 15L0 103h3.1L19 15.1z" style="opacity:.21;fill-rule:evenodd;clip-rule:evenodd;fill:url(#SVGID_3_);enable-background:new"/><linearGradient id="SVGID_4_" gradientUnits="userSpaceOnUse" x1="37.428" y1="108.806" x2="75.3" y2="43.21" gradientTransform="matrix(1 0 0 -1 0 103.89)"><stop offset="0" style="stop-color:#fff"/><stop offset=".042" style="stop-color:#f1f1f1"/><stop offset=".126" style="stop-color:#dbdbdb"/><stop offset=".225" style="stop-color:#cacaca"/><stop offset=".348" style="stop-color:#bfbfbf"/><stop offset=".521" style="stop-color:#b8b8b8"/><stop offset="1" style="stop-color:#b6b6b6"/></linearGradient><path d="M18.1 14.2c1.3-7.1 7.5-12.3 14.7-12.3h106.8L140 0H33.8C25 0 17.4 6.3 15.9 15L0 103h2l16.1-88.8z" style="opacity:.21;fill-rule:evenodd;clip-rule:evenodd;fill:url(#SVGID_4_);enable-background:new"/><linearGradient id="SVGID_5_" gradientUnits="userSpaceOnUse" x1="37.428" y1="108.806" x2="75.3" y2="43.21" gradientTransform="matrix(1 0 0 -1 0 103.89)"><stop offset="0" style="stop-color:#fff"/><stop offset=".042" style="stop-color:#f1f1f1"/><stop offset=".126" style="stop-color:#dbdbdb"/><stop offset=".225" style="stop-color:#cacaca"/><stop offset=".348" style="stop-color:#bfbfbf"/><stop offset=".521" style="stop-color:#b8b8b8"/><stop offset="1" style="stop-color:#b6b6b6"/></linearGradient><path d="M18.1 14.2c1.3-7.1 7.5-12.3 14.7-12.3h106.8L140 0H33.8C25 0 17.4 6.3 15.9 15L0 103h2l16.1-88.8z" style="opacity:.21;fill-rule:evenodd;clip-rule:evenodd;fill:url(#SVGID_5_);enable-background:new"/><linearGradient id="SVGID_6_" gradientUnits="userSpaceOnUse" x1="37.428" y1="108.806" x2="75.075" y2="43.599" gradientTransform="matrix(1 0 0 -1 0 103.89)"><stop offset="0" style="stop-color:#fff"/><stop offset=".042" style="stop-color:#f1f1f1"/><stop offset=".126" style="stop-color:#dbdbdb"/><stop offset=".225" style="stop-color:#cacaca"/><stop offset=".348" style="stop-color:#bfbfbf"/><stop offset=".521" style="stop-color:#b8b8b8"/><stop offset="1" style="stop-color:#b6b6b6"/></linearGradient><path d="M17.1 14.1C18.5 6.5 25.1 1 32.8 1h107l.2-1H33.8C25 0 17.4 6.3 15.9 15L0 103h1.1l16-88.9z" style="opacity:.21;fill-rule:evenodd;clip-rule:evenodd;fill:url(#SVGID_6_);enable-background:new"/></g><g style="opacity:.64"><path class="st8" d="M121 87.9c-1.3 7.1-7.4 12.2-14.6 12.2H.5L0 103h106.2c8.8 0 16.4-6.3 17.9-15L140 0h-3.1L121 87.9z"/><path class="st8" d="M121.9 88.8c-1.3 7.1-7.5 12.3-14.7 12.3H.3L0 103h106.2c8.8 0 16.4-6.3 17.9-15L140 0h-2l-16.1 88.8z"/><path class="st8" d="M121.9 88.8c-1.3 7.1-7.5 12.3-14.7 12.3H.3L0 103h106.2c8.8 0 16.4-6.3 17.9-15L140 0h-2l-16.1 88.8z"/><path class="st8" d="M122.9 88.9c-1.4 7.6-8 13.1-15.7 13.1H.2l-.2 1h106.2c8.8 0 16.4-6.3 17.9-15L140 0h-1.1l-16 88.9z"/></g><g style="enable-background:new"><path d="M70.76 45.76a13.244 13.244 0 0 1 1.564-.23c.428-.03.949-.046 1.563-.046 2.085 0 4.017.399 5.796 1.196a13.256 13.256 0 0 1 4.6 3.404c1.289 1.472 2.301 3.266 3.037 5.382s1.104 4.523 1.104 7.222c0 3.189-.506 6.164-1.518 8.924s-2.484 5.152-4.416 7.176c-1.932 2.024-4.278 3.62-7.038 4.784-2.761 1.166-5.888 1.748-9.384 1.748-3.558 0-6.578-.552-9.062-1.655-2.484-1.104-4.524-2.53-6.118-4.278-1.595-1.748-2.76-3.694-3.496-5.842-.736-2.146-1.104-4.232-1.104-6.257 0-1.777.168-3.434.506-4.968a26.61 26.61 0 0 1 1.472-4.6c.644-1.532 1.472-3.128 2.484-4.784a203.173 203.173 0 0 1 3.45-5.428l18.676-28.244h15.916L70.76 45.76zm1.656 12.603c-1.104-.98-2.516-1.472-4.232-1.472-2.392 0-4.248.905-5.566 2.714-1.319 1.81-1.978 3.941-1.978 6.395 0 2.27.552 3.896 1.656 4.876 1.104.981 2.514 1.472 4.232 1.472 2.392 0 4.247-.904 5.566-2.714 1.318-1.809 1.979-3.94 1.979-6.395-.001-2.267-.553-3.893-1.657-4.876z" style="fill:#fff"/></g></g></svg>