<svg version="1.1" id="Ebene_1" xmlns="http://www.w3.org/2000/svg" x="0" y="0" width="140" height="103" style="enable-background:new 0 0 140 103" xml:space="preserve"><style>.st2{opacity:.21;fill-rule:evenodd;clip-rule:evenodd;enable-background:new}</style><g id="_x32_"><linearGradient id="SVGID_1_" gradientUnits="userSpaceOnUse" x1="70" y1=".89" x2="70" y2="103.89" gradientTransform="matrix(1 0 0 -1 0 103.89)"><stop offset="0" style="stop-color:#00bbe7"/><stop offset="1" style="stop-color:#006bab"/></linearGradient><path d="M140 0H33.8C25 0 17.4 6.3 15.9 15L0 103h106.2c8.8 0 16.4-6.3 17.9-15L140 0z" style="fill-rule:evenodd;clip-rule:evenodd;fill:url(#SVGID_1_)"/><g style="opacity:.64"><path class="st2" d="M121 87.9c-1.3 7.1-7.4 12.2-14.6 12.2H.5L0 103h106.2c8.8 0 16.4-6.3 17.9-15L140 0h-3.1L121 87.9z"/><path class="st2" d="M121.9 88.8c-1.3 7.1-7.5 12.3-14.7 12.3H.3L0 103h106.2c8.8 0 16.4-6.3 17.9-15L140 0h-2l-16.1 88.8z"/><path class="st2" d="M121.9 88.8c-1.3 7.1-7.5 12.3-14.7 12.3H.3L0 103h106.2c8.8 0 16.4-6.3 17.9-15L140 0h-2l-16.1 88.8z"/><path class="st2" d="M122.9 88.9c-1.4 7.6-8 13.1-15.7 13.1H.2l-.2 1h106.2c8.8 0 16.4-6.3 17.9-15L140 0h-1.1l-16 88.9z"/></g><g style="opacity:.92"><linearGradient id="SVGID_2_" gradientUnits="userSpaceOnUse" x1="37.428" y1="108.806" x2="75.825" y2="42.3" gradientTransform="matrix(1 0 0 -1 0 103.89)"><stop offset="0" style="stop-color:#fff"/><stop offset=".042" style="stop-color:#f1f1f1"/><stop offset=".126" style="stop-color:#dbdbdb"/><stop offset=".225" style="stop-color:#cacaca"/><stop offset=".348" style="stop-color:#bfbfbf"/><stop offset=".521" style="stop-color:#b8b8b8"/><stop offset="1" style="stop-color:#b6b6b6"/></linearGradient><path d="M19.9 16.1C21.1 9.1 27.3 4 34.4 4h104.9l.7-4H33.8C25 0 17.4 6.3 15.9 15L0 103h4.1l15.8-86.9z" style="opacity:.21;fill-rule:evenodd;clip-rule:evenodd;fill:url(#SVGID_2_);enable-background:new"/><linearGradient id="SVGID_3_" gradientUnits="userSpaceOnUse" x1="37.428" y1="108.806" x2="75.575" y2="42.733" gradientTransform="matrix(1 0 0 -1 0 103.89)"><stop offset="0" style="stop-color:#fff"/><stop offset=".042" style="stop-color:#f1f1f1"/><stop offset=".126" style="stop-color:#dbdbdb"/><stop offset=".225" style="stop-color:#cacaca"/><stop offset=".348" style="stop-color:#bfbfbf"/><stop offset=".521" style="stop-color:#b8b8b8"/><stop offset="1" style="stop-color:#b6b6b6"/></linearGradient><path d="M19 15.1C20.3 8 26.4 2.9 33.6 2.9h105.9L140 0H33.8C25 0 17.4 6.3 15.9 15L0 103h3.1L19 15.1z" style="opacity:.21;fill-rule:evenodd;clip-rule:evenodd;fill:url(#SVGID_3_);enable-background:new"/><linearGradient id="SVGID_4_" gradientUnits="userSpaceOnUse" x1="37.428" y1="108.806" x2="75.3" y2="43.21" gradientTransform="matrix(1 0 0 -1 0 103.89)"><stop offset="0" style="stop-color:#fff"/><stop offset=".042" style="stop-color:#f1f1f1"/><stop offset=".126" style="stop-color:#dbdbdb"/><stop offset=".225" style="stop-color:#cacaca"/><stop offset=".348" style="stop-color:#bfbfbf"/><stop offset=".521" style="stop-color:#b8b8b8"/><stop offset="1" style="stop-color:#b6b6b6"/></linearGradient><path d="M18.1 14.2c1.3-7.1 7.5-12.3 14.7-12.3h106.8L140 0H33.8C25 0 17.4 6.3 15.9 15L0 103h2l16.1-88.8z" style="opacity:.21;fill-rule:evenodd;clip-rule:evenodd;fill:url(#SVGID_4_);enable-background:new"/><linearGradient id="SVGID_5_" gradientUnits="userSpaceOnUse" x1="37.428" y1="108.806" x2="75.3" y2="43.21" gradientTransform="matrix(1 0 0 -1 0 103.89)"><stop offset="0" style="stop-color:#fff"/><stop offset=".042" style="stop-color:#f1f1f1"/><stop offset=".126" style="stop-color:#dbdbdb"/><stop offset=".225" style="stop-color:#cacaca"/><stop offset=".348" style="stop-color:#bfbfbf"/><stop offset=".521" style="stop-color:#b8b8b8"/><stop offset="1" style="stop-color:#b6b6b6"/></linearGradient><path d="M18.1 14.2c1.3-7.1 7.5-12.3 14.7-12.3h106.8L140 0H33.8C25 0 17.4 6.3 15.9 15L0 103h2l16.1-88.8z" style="opacity:.21;fill-rule:evenodd;clip-rule:evenodd;fill:url(#SVGID_5_);enable-background:new"/><linearGradient id="SVGID_6_" gradientUnits="userSpaceOnUse" x1="37.428" y1="108.806" x2="75.075" y2="43.599" gradientTransform="matrix(1 0 0 -1 0 103.89)"><stop offset="0" style="stop-color:#fff"/><stop offset=".042" style="stop-color:#f1f1f1"/><stop offset=".126" style="stop-color:#dbdbdb"/><stop offset=".225" style="stop-color:#cacaca"/><stop offset=".348" style="stop-color:#bfbfbf"/><stop offset=".521" style="stop-color:#b8b8b8"/><stop offset="1" style="stop-color:#b6b6b6"/></linearGradient><path d="M17.1 14.1C18.5 6.5 25.1 1 32.8 1h107l.2-1H33.8C25 0 17.4 6.3 15.9 15L0 103h1.1l16-88.9z" style="opacity:.21;fill-rule:evenodd;clip-rule:evenodd;fill:url(#SVGID_6_);enable-background:new"/></g><g style="enable-background:new"><path d="M91.4 44.1c-1.3 2.9-3.7 5.3-7.1 7.3 1.8 1.2 3.1 2.7 3.9 4.4.8 1.7 1.2 4.1 1.2 7.1 0 3.3-.6 6.3-1.8 9.1-1.2 2.8-2.9 5.1-4.9 7.1-2 2-4.4 3.5-7 4.6-2.6 1.1-5.4 1.6-8.3 1.6-3 0-5.7-.4-8.2-1.1-2.5-.7-4.6-1.8-6.4-3.2-1.8-1.4-3.2-3.1-4.2-5.1-1-2-1.5-4.2-1.5-6.8 0-.7 0-1.4.1-2 .1-.6.2-1.2.3-1.9h14.2c-.1.4-.2.8-.2 1v1c0 1.4.5 2.6 1.4 3.6 1 1 2.5 1.5 4.5 1.5 1 0 2-.2 2.9-.7.9-.5 1.7-1.1 2.4-1.9.7-.8 1.2-1.7 1.6-2.8s.6-2.2.6-3.3c0-1.7-.5-3.1-1.4-4.3-.9-1.2-2.4-1.8-4.4-1.8h-2L69.6 45h2c1 0 1.9-.2 2.8-.7.9-.5 1.7-1.1 2.4-1.9.7-.8 1.2-1.7 1.6-2.6.4-1 .6-1.9.6-2.8 0-1.8-.4-3.1-1.3-4-.9-.9-1.9-1.3-3.1-1.3-1.5 0-2.9.5-4.4 1.5-1.5 1-2.5 2.6-2.9 4.9H52.9c1.4-6.6 4.1-11.4 8.1-14.6 4-3.2 9.2-4.7 15.5-4.7 2.6 0 4.9.4 7 1.3 2.1.9 3.8 2.1 5.3 3.6s2.6 3.2 3.4 5.2c.8 2 1.2 4 1.2 6.3 0 3-.7 6-2 8.9z" style="fill:#fff"/></g></g></svg>