<svg version="1.1" id="Ebene_1" xmlns="http://www.w3.org/2000/svg" x="0" y="0" viewBox="0 0 302 95" style="enable-background:new 0 0 302 95" xml:space="preserve"><style>.st6{fill:#fff}.st8{fill:#ff1515}</style><path d="M284.833 62.842c3.339-1.346 6.165-3.238 8.38-5.479 2.185-2.206 3.748-4.725 4.632-7.352.865-2.56 1.077-5.2.618-7.753-.443-2.47-1.51-4.836-3.212-6.968L277.28 12.787a9.412 9.412 0 0 0-1.83-1.73 11.822 11.822 0 0 0-2.26-1.277 15.181 15.181 0 0 0-2.586-.847 19.29 19.29 0 0 0-2.816-.437 22.569 22.569 0 0 0-2.972-.042 25.599 25.599 0 0 0-3.056.341 27.155 27.155 0 0 0-6.15 1.846l-27.156 11.783a27.051 27.051 0 0 0-5.442 3.172 25.29 25.29 0 0 0-4.349 4.142c-1.246 1.517-2.243 3.14-2.914 4.781-.682 1.68-1.032 3.389-.946 5.035l1.506 28.418c.072 1.319.285 2.579.624 3.758a14.753 14.753 0 0 0 1.428 3.372 14.248 14.248 0 0 0 2.207 2.874 14.52 14.52 0 0 0 2.926 2.259 15.617 15.617 0 0 0 3.576 1.523c1.299.371 2.674.596 4.118.66a20.44 20.44 0 0 0 4.513-.316 23.739 23.739 0 0 0 4.747-1.379l44.385-17.881zm13.179-28.694c1.988 2.396 3.27 5.073 3.84 7.875a17.04 17.04 0 0 1 .344 3.424v.032a18.103 18.103 0 0 1-.868 5.424c-.964 3.033-2.718 5.942-5.213 8.504-2.536 2.596-5.791 4.791-9.651 6.35L241.115 83.95a27.53 27.53 0 0 1-5.482 1.567 23.23 23.23 0 0 1-5.198.315 19.772 19.772 0 0 1-4.707-.817 17.609 17.609 0 0 1-4.062-1.811 16.59 16.59 0 0 1-3.288-2.656 15.902 15.902 0 0 1-2.442-3.339 17.015 17.015 0 0 1-1.544-3.88 19.423 19.423 0 0 1-.628-4.303l-.991-28.602c-.063-1.874.359-3.807 1.154-5.696.774-1.845 1.911-3.657 3.319-5.354a28.714 28.714 0 0 1 4.883-4.614 30.546 30.546 0 0 1 6.08-3.532l26.806-11.65a30.362 30.362 0 0 1 3.419-1.252 31.028 31.028 0 0 1 3.444-.822 28.833 28.833 0 0 1 3.418-.4c.473-.027.944-.04 1.41-.043h.132a25.78 25.78 0 0 1 1.791.069c1.082.08 2.133.231 3.142.456 1.017.228 1.991.531 2.906.907a14.01 14.01 0 0 1 2.571 1.383 11.047 11.047 0 0 1 2.119 1.89l2.218 2.658 5.505 6.614c2.247 2.697 4.676 5.612 6.705 8.05 2.136 2.562 3.781 4.535 4.217 5.06z" style="fill-rule:evenodd;clip-rule:evenodd;fill:#000100"/><path d="m302.037 47.782-.703 5.183v.003l-.01.078v.003l-.012.079-.012.08-.01.078-.014.078-.012.08-.014.082-.01.078-.014.081-.014.078-.014.08-.017.082-.013.078-.014.082-.017.078-.014.078-.017.079-.017.08-.017.078-.017.081-.02.078-.017.082-.02.08-.02.076-.017.081-.023.078-.017.079-.022.08-.023.078-.023.078-.02.08-.02.078-.027.078-.02.075-.023.081-.027.078-.023.078-.023.082-.027.075-.026.078-.023.078-.027.076-.029.08-.027.078-.026.078-.027.08-.029.075-.029.078-.029.078a15.65 15.65 0 0 1-.471 1.156c-.03.076-.066.154-.103.231l-.035.075-.035.079-.037.078-.037.075-.039.082-.037.075-.037.075-.037.075-.037.078v.004l-.04.075-.037.075-.04.075-.042.078-.04.075-.04.078-.04.075-.044.075-.04.075-.043.076-.044.075-.043.075-.044.075-.043.075-.043.075-.044.072-.046.075-.044.075-.046.075-.047.072-.047.075-.046.075-.047.072-.046.072-.049.075-.049.072-.046.075-.049.072-.049.075-.049.069-.052.075-.047.069-.055.075-.049.072-.049.072-.055.069-.049.075c-.261.359-.536.711-.822 1.059-.441.54-.917 1.064-1.422 1.573l-.063.063-.069.069-.067.065-.066.063-.067.067-.069.067-.069.063-.066.064-.067.063-.072.065-.067.063-.069.067-.072.06-.069.065-.069.063-.072.064-.069.064-.075.064-.069.06-.072.062-.075.063-.069.064-.075.06-.076.061-.072.058-.072.063-.078.062-.075.061-.075.058-.075.061-.079.061-.075.058-.075.064-.078.058-.079.055-.078.06-.078.058-.079.058-.075.058-.08.058-.082.058a26.723 26.723 0 0 1-5.714 3.125l-42.168 16.826a24.86 24.86 0 0 1-5.018 1.421l-.075.014-.075.014-.078.012-.079.01-.075.012-.075.012-.078.01-.079.012-.075.012-.078.01-.075.01-.079.008-.075.012-.078.006v.003l-.075.01-.075.01-.076.007-.078.01-.075.007-.075.006-.075.012-.076.006-.075.006-.078.007-.075.008-.075.003v.003l-.076.01-.075.003-.075.003-.075.01-.078.004-.072.006-.079.007-.075.003-.075.003-.069.001-.075.003-.072.003h-.076l-.072.007h-.075l-.075.006H236.263l-.072.003h-.445l-.072-.003H235.452l-.072-.006h-.072l-.075-.003-.072-.004-.072-.003-.074-.003-.068-.006-.072-.003a18.92 18.92 0 0 1-4.397-.744l-.064-.017-.067-.02-.064-.02-.064-.017-.063-.023-.065-.017-.063-.023-.065-.017-.063-.02-.065-.02-.06-.024-.064-.023-.063-.02-.061-.027-.067-.02-.062-.02-.063-.023-.061-.023-.064-.024-.06-.023-.062-.023-.063-.024-.062-.023-.06-.026-.064-.024-.058-.026-.06-.023-.061-.027-.064-.026-.06-.023-.058-.027-.061-.026h-.003l-.058-.029-.062-.023-.06-.029-.061-.026-.055-.027-.064-.029-.058-.024-.061-.029-.055-.029-.06-.029-.06-.027-.058-.029-.059-.026-.058-.029-.058-.029-.058-.029-.058-.029-.058-.035-.06-.029-.058-.029-.055-.029-.058-.029-.058-.035-.058-.029-.055-.032-.057-.032-.055-.029-.058-.032-.055-.032-.055-.035-.058-.03-.055-.032-.217-.127-.02-.012-4.277-2.497-.069-.042-.012-.006-.046-.023.049.023.055.035.061.035.058.029.057.035.058.035.061.029.058.035.061.035.061.029.058.032.061.032.061.029.058.032.06.032.062.029.06.03.061.029h.004l.058.029.06.03.065.029.06.029.061.029.061.029.063.029.062.029.06.026.064.029.063.029.061.026.064.026.064.027.061.029.064.026.064.026h.003l.061.027.067.026.064.027.063.026.065.023.06.029.069.023.064.024.064.023.067.029.06.02.067.02.067.026.067.027.067.02.063.023.067.02.067.023.067.024.067.023.067.02.067.023.067.022.067.017.067.023.069.023.067.017.067.017.067.023c1.463.423 3.019.675 4.644.75l.078.003h.076l.081.006.075.003.078.004h.075l.078.003h.078l.082.003h.624l.079-.003h.078l.078-.003h.082l.078-.007h.078l.081-.006.078-.003.079-.003.08-.007.078-.003.081-.003.078-.003.082-.01.08-.003.079-.006.08-.003.082-.012.08-.006.078-.007.081-.006.08-.008.079-.004.083-.01.079-.006.08-.012.082-.01.08-.008.082-.01.08-.008.082-.01.08-.01.082-.01.08-.01.082-.012.083-.012.082-.01.08-.012.082-.012.083-.01.079-.014.083-.014.082-.01.08-.012.085-.017.081-.012.084-.01.085-.017.08-.017.082-.012.083-.017.085-.017.085-.01.08-.021.085-.016.084-.014.081-.024.085-.01.083-.02.087-.02.078-.017.084-.017.085-.024.083-.017.085-.017.085-.023.083-.02.085-.02.085-.02.083-.02.085-.024.085-.023.083-.023.085-.023.083-.022.085-.02.082-.023.083-.023.085-.027.087-.023.083-.026.085-.027.087-.026.083-.024.082-.029.055-.018.083-.029.085-.027.087-.026.087-.029.083-.023.085-.029.08-.029.087-.029.085-.029.083-.029.085-.029.087-.03.085-.029.086-.032.085-.029.085-.032.083-.032.087-.035.085-.029.083-.032.085-.032.085-.035.087-.029.083-.035.087-.035 45.349-18.193a29.716 29.716 0 0 0 6.158-3.359 25.465 25.465 0 0 0 4.73-4.367 21.709 21.709 0 0 0 3.158-4.993 19.215 19.215 0 0 0 1.519-5.256z" style="fill-rule:evenodd;clip-rule:evenodd;fill:#373a40"/><path d="M295.222 45.794a13.981 13.981 0 0 1-.751 3.352 15.977 15.977 0 0 1-1.612 3.252 17.654 17.654 0 0 1-2.432 3.007 20.39 20.39 0 0 1-3.227 2.605c-.178.113-.355.228-.539.333-.316.2-.642.394-.976.57-.763.42-1.576.798-2.413 1.14l-43.458 17.582c-1.36.55-2.712.94-4.042 1.185a18.007 18.007 0 0 1-3.857.303 15.672 15.672 0 0 1-3.531-.523 13.625 13.625 0 0 1-3.102-1.261 12.3 12.3 0 0 1-2.564-1.891 11.855 11.855 0 0 1-1.948-2.428 12.9 12.9 0 0 1-1.299-2.875 14.093 14.093 0 0 1-.605-3.232l-.326-4.528-.315-4.43-1.38-19.28a8.53 8.53 0 0 1 .122-2.177c.127-.733.342-1.466.633-2.193.069-.178.142-.356.22-.536.249-.54.536-1.073.847-1.606a18.47 18.47 0 0 1 1.445-2.059 20.41 20.41 0 0 1 1.73-1.878c.014-.016.024-.021.035-.037a22.734 22.734 0 0 1 4.329-3.264 23.911 23.911 0 0 1 2.507-1.268l27.512-11.924a24.088 24.088 0 0 1 2.697-.983 23.779 23.779 0 0 1 2.718-.626 22.327 22.327 0 0 1 2.686-.292 19.397 19.397 0 0 1 2.605.058c.854.07 1.672.206 2.452.399.799.2 1.547.446 2.244.762.705.32 1.359.695 1.944 1.14.589.44 1.109.952 1.553 1.52L292.5 36.429a13.523 13.523 0 0 1 1.714 2.905c.448 1.023.753 2.079.917 3.151a13.13 13.13 0 0 1 .091 3.309z" style="fill-rule:evenodd;clip-rule:evenodd;fill:#1f71b6"/><path id="XMLID_00000168086020925971223920000018158122131659089333_" d="M239.815 77.634c-.498.203-.997.382-1.495.544-.859.277-1.707.488-2.547.641a17.92 17.92 0 0 1-3.857.302 15.59 15.59 0 0 1-3.536-.52 13.851 13.851 0 0 1-3.097-1.255 12.554 12.554 0 0 1-2.562-1.894 12.133 12.133 0 0 1-1.957-2.426 12.63 12.63 0 0 1-1.292-2.88 14.423 14.423 0 0 1-.605-3.232l-2.024-28.233a8.83 8.83 0 0 1 .125-2.186c.132-.725.344-1.46.633-2.188.286-.723.645-1.439 1.069-2.145.421-.697.902-1.385 1.443-2.053a21.054 21.054 0 0 1 1.767-1.917 22.39 22.39 0 0 1 2.042-1.739 22.908 22.908 0 0 1 2.284-1.525 23.046 23.046 0 0 1 2.504-1.271l27.514-11.921a23.564 23.564 0 0 1 5.412-1.611 21.962 21.962 0 0 1 2.686-.29c.888-.041 1.76-.02 2.607.055.852.075 1.674.211 2.458.401.793.195 1.54.45 2.241.762.705.32 1.356.695 1.941 1.136a8.223 8.223 0 0 1 1.553 1.525l17.376 22.715a13.807 13.807 0 0 1 1.717 2.905 12.922 12.922 0 0 1 1.006 6.462 14.198 14.198 0 0 1-.751 3.352 15.927 15.927 0 0 1-1.612 3.252 17.949 17.949 0 0 1-2.432 3.007 20.593 20.593 0 0 1-3.222 2.602 23.127 23.127 0 0 1-3.932 2.047L248.49 74.124l-8.675 3.51zm58.626-35.377a15.211 15.211 0 0 0-1.148-3.639 16.151 16.151 0 0 0-2.061-3.32l-17.965-22.507a9.328 9.328 0 0 0-1.829-1.726 11.897 11.897 0 0 0-2.258-1.277 15.214 15.214 0 0 0-2.584-.846 18.913 18.913 0 0 0-2.816-.437 22.867 22.867 0 0 0-2.97-.043 25.456 25.456 0 0 0-3.05.341 27.155 27.155 0 0 0-6.145 1.846l-27.157 11.786c-.977.423-1.923.904-2.825 1.427a27.166 27.166 0 0 0-2.585 1.713 25.757 25.757 0 0 0-2.316 1.95 23.204 23.204 0 0 0-2.006 2.153 21.35 21.35 0 0 0-1.674 2.345 17.33 17.33 0 0 0-1.266 2.46 13.697 13.697 0 0 0-.775 2.527 10.053 10.053 0 0 0-.187 2.535l1.51 28.421c.072 1.319.28 2.573.618 3.756a14.938 14.938 0 0 0 1.428 3.362 14.169 14.169 0 0 0 5.122 5.123 15.768 15.768 0 0 0 3.577 1.522c1.295.372 2.674.596 4.114.661a20.608 20.608 0 0 0 4.513-.309 23.893 23.893 0 0 0 4.745-1.381l44.375-17.876a26.545 26.545 0 0 0 4.61-2.405 23.403 23.403 0 0 0 3.76-3.07 20.635 20.635 0 0 0 2.813-3.533 18.134 18.134 0 0 0 1.815-3.813c.434-1.286.707-2.594.807-3.905a15.181 15.181 0 0 0-.19-3.841z" style="fill-rule:evenodd;clip-rule:evenodd;fill:#eef3f6"/><path d="M298.249 41.346a24.668 24.668 0 0 1-3.047 1.652 12.935 12.935 0 0 0-.986-3.665 13.85 13.85 0 0 0-1.717-2.905l-17.376-22.714a8.193 8.193 0 0 0-1.553-1.525 10.244 10.244 0 0 0-1.941-1.136c-.7-.312-1.448-.567-2.241-.762a16.545 16.545 0 0 0-2.458-.401 19.589 19.589 0 0 0-2.607-.055 22.827 22.827 0 0 0-5.401.922c-.902.266-1.804.593-2.697.979l-12.369 5.359c-.139-.39-.272-.781-.399-1.169l12.161-5.275a27.24 27.24 0 0 1 6.145-1.846 25.479 25.479 0 0 1 3.05-.341 22.867 22.867 0 0 1 2.97.043c.97.08 1.917.223 2.816.437.908.212 1.777.496 2.584.846.815.354 1.576.781 2.258 1.277a9.354 9.354 0 0 1 1.829 1.726L295.232 35.3a16.065 16.065 0 0 1 2.061 3.32c.408.887.728 1.798.956 2.726z" style="fill-rule:evenodd;clip-rule:evenodd;fill:#fff"/><linearGradient id="SVGID_1_" gradientUnits="userSpaceOnUse" x1="249.403" y1="85.551" x2="292.291" y2="49.564" gradientTransform="matrix(1 0 0 -1 0 96.031)"><stop offset="0" style="stop-color:#fdfae2"/><stop offset="1" style="stop-color:#1f71b6"/></linearGradient><path d="M294.215 39.333a13.85 13.85 0 0 0-1.717-2.905l-17.376-22.714a8.193 8.193 0 0 0-1.553-1.525 10.244 10.244 0 0 0-1.941-1.136 13.205 13.205 0 0 0-2.241-.762 16.81 16.81 0 0 0-2.458-.403 19.937 19.937 0 0 0-2.607-.053 22.738 22.738 0 0 0-5.402.922c-.902.266-1.804.593-2.697.979l-12.369 5.359c3.478 9.651 11.253 18.68 21.735 23.977 10.499 5.305 21.37 5.676 29.613 1.928a8.316 8.316 0 0 0-.067-.509 13.022 13.022 0 0 0-.92-3.158z" style="fill-rule:evenodd;clip-rule:evenodd;fill:url(#SVGID_1_)"/><path class="st6" d="M277.082 45.62c-.129.706-.747.829-.939.891-.185.062-.15.5-.52 1.48-.829 1.083-2.371.37-2.528.329-.049.178-.192.37-.815.37-1.398.199-3.104-.952-3.214-1.576-.103-.617.274-.774-.096-1.206-.377-.425-2.508-1.398-4.605-3.063s-3.426-3.639-5.105-5.023c-1.521-.226-2.803 1.261-5.154 3.515-2.343 2.261-2.85 1.885-4.905 3.454-2.056 1.562-2.646 1.912-4.037 4.31-1.384 2.398-3.571 2.247-4.495 3.118.46.137.294.323 2.447 1.412 2.151 1.097 2.487 1.042 6.413 1.288 2.755.165 2.83-.165 5.242.685l.144.062c1.61.48 5.236 3.433 6.537 3.81 1.5.439 1.713 1.412 1.665 1.556-.049.137.439.603 1.062 1.336.624.734 1.035 1.693 1.062 2.097.035.404.453-.254.487 1.576a.638.638 0 0 1-.008.171c0 .049-.007.089-.013.13-.281 1.411-2.899.657-3.866.555-1.027-.109-1.795-1.254-2.11-1.631-.308-.377.439-1.275.61-1.576.178-.302-.507-.35-1.275-.021-.774.323-1.008-.535-1.583-1.062-.583-.528-2.94-1.638-5.058-2.666l-.226-.089c-2.296-.911-6.093-.302-10.245-.041-4.145.261-7.764-.569-8.621-.802-.774-.219-4.317-2.522-6.16-2.433a7.472 7.472 0 0 0-1.453-.864c-2.343-1.034-4.618-1.932-7.065-2.59-.274-.144-.548-.288-.815-.432l-1.001-14.013a8.71 8.71 0 0 1 .124-2.186c.136-.719.343-1.459.637-2.186.281-.719.644-1.439 1.068-2.145.419-.699.898-1.384 1.439-2.056.226-.281.465-.555.719-.829 2.07.109 3.132-.398 3.967-.404 1.508-.007 2.378-.13 2.289-.39-.088-.267-.897.192-1.713-.685.377.116.918.281 1.529-.083.61-.357 1.151-.507 1.788-.391.631.117 2.261-.007 2.824-.225.569-.22.685-.884 1.425-1.131.747-.24 1.412.041.905-.507 1.048-.144 1.357-.055 2.206-.103.856-.055 1.233-.761 2.056-.864.822-.096.52-.617 1.055-.46.541.171 1.213.144 1.673.007.46-.13.623-.398.46-.836.672.281.473.377 1.85.254 1.378-.124 2.652.452 2.844-.013-.967-.302-2.049-.788-1.946-1.487.815.246 1.027.103 2.035-.109s3.104.802 4.31 1.069c1.206.267.953-.021 1.069-.404-.761-.445-1.391-.952-.815-1.556 1.748.85 3.022.507 5.009.754 2.131-.966 5.545.5 6.812 1.104-.473-.672-.678-1.83-.171-2.618.822.049 1.905 1.11 4.187 3.906 3.261.843 4.324 5.591 5.03 7.572s1.24 4.379 2.11 5.818c.863 1.446 2.11 4.756 2.782 6.078.454.878.81 1.343.686 2.049z"/><path class="st6" d="M253.116 68.836c.062-.405-.116-1.428-.56-2.284-.444-.853-.809-1.419-.73-1.543.08-.127.091-1.124-1.271-1.891-1.181-.665-4.786-3.738-6.248-4.571l-.122-.086c-2.158-1.38-2.31-1.075-4.952-1.864-3.77-1.125-4.108-1.148-5.953-2.704-1.85-1.554-1.647-1.693-2.062-1.933.819-.471 2.187-.24 3.614-.923-.131-.031-.271-.051-.401-.087-3.458-.911-6.821-2.261-10.073-3.744-1.378-.628-2.749-1.282-4.141-1.885l-.141-.06c-.145.3-.302.595-.485.879-.294.454-.646.943-1.033 1.424a12.024 12.024 0 0 1 1.005 5.232c1.49.227 2.927.464 2.867.809-.114.627.144 2.292.846 2.68.784.419 4.12 2.048 8.22 2.737 4.099.688 7.936.958 9.961 2.363l.202.138c1.832 1.478 3.877 3.093 4.321 3.741.443.647.475 1.535 1.301 1.393.822-.141 1.477.059 1.238.313-.235.252-1.165.962-.95 1.397.223.436.712 1.724 1.686 2.065.916.317 3.296 1.652 3.889.339.012-.039.032-.082.046-.127.018-.05.031-.107.043-.164.379-1.788-.178-1.24-.117-1.644z"/><path d="M208.876 40.232c1.361-8.159-8.702-5.439-7.886-9.247.273-1.088.816-1.631 2.72-1.631s4.08.543 5.712 1.088l1.088-4.624c-1.631-.273-4.351-.543-5.983-.543-5.167 0-8.159 2.447-8.702 6.255-1.361 8.159 8.702 5.167 7.886 9.247-.273 1.361-.543 2.176-3.535 2.176-1.904 0-4.08-.273-5.712-1.088l-1.088 4.624c1.631.273 3.535.543 5.983.543 4.62.001 8.428-1.088 9.517-6.8m-17.679 6.528.816-4.08h-8.432l.816-4.624h7.343l.816-4.08h-7.343l.816-4.08h8.432l.816-4.08h-13.326l-3.808 20.942c-.001.002 13.054.002 13.054.002zm-14.414-6.528c1.361-8.159-8.702-5.439-7.887-9.247.273-1.088.816-1.631 2.72-1.631s4.08.543 5.712 1.088l1.088-4.624c-1.631-.273-4.351-.543-5.983-.543-5.167 0-8.159 2.447-8.702 6.255-1.361 8.159 8.702 5.167 7.886 9.247-.273 1.088-.543 2.176-3.535 2.176-1.904 0-4.08-.273-5.712-1.088l-1.088 4.624c1.631.273 3.535.543 5.983.543 4.622.001 8.429-1.088 9.518-6.8m-20.126-8.159c-.543 2.447-1.088 2.72-2.72 2.72h-2.72l.816-5.167h2.72c1.904 0 2.447.271 1.904 2.447m3.263 14.687-2.992-7.886c2.447-.543 3.808-2.992 4.351-6.528.543-3.808.273-6.528-4.08-6.528h-9.247l-3.808 20.942h5.167l1.361-7.886h1.088l2.992 7.886h5.168zm-21.758-10.608c-.816 4.896-1.361 6.8-4.896 6.8s-3.263-2.176-2.447-6.8c.816-4.896 1.361-6.8 4.896-6.8 3.535.002 3.263 1.906 2.447 6.8m4.896 0c1.088-5.439 1.088-10.879-6.8-10.879-7.887 0-9.79 5.439-10.606 10.879-1.088 5.439-1.088 10.879 6.8 10.879s9.791-5.438 10.606-10.879M120.756 46.76l3.808-20.942h-4.896l-1.361 8.159h-6.255l1.361-8.159h-4.896l-3.808 20.942h4.896l1.631-8.702h6.255l-1.631 8.702h4.896z" style="fill:#84b3d3"/><path class="st6" d="m28.558 40.505.816 6.255h2.992L28.83 25.818h-2.447L15.777 46.76h2.447l2.992-6.255h7.342zm-1.904-11.967 1.631 9.79H22.03l4.624-9.79zM15.502 32.073c.543-3.808 0-6.255-4.08-6.255H3.808L0 46.76h2.447l1.631-8.702h4.08l3.263 8.702h2.992l-3.263-8.702c2.178-.545 3.809-2.449 4.352-5.985zm-2.447 0c-.543 2.992-1.631 3.808-3.263 3.808H4.624l1.361-8.159h5.167c1.631 0 2.446 1.089 1.903 4.351zM71.257 46.76h2.719l3.808-20.942h-2.447l-2.992 16.318-6.8-16.318h-2.447L59.29 46.76h2.449l2.719-16.047zM80.776 36.154c-1.088 6.8-.273 10.879 6.528 10.879 1.631 0 4.08-.273 5.983-.543l1.904-11.151h-6.528l-.543 2.176h4.08l-1.361 7.071c-1.088 0-2.447.273-3.263.273-4.896 0-5.439-2.72-4.351-8.702 1.088-6.528 2.447-8.702 7.616-8.702 1.361 0 3.263.273 4.896.816l.543-2.176c-1.361-.273-3.263-.816-5.167-.816-6.801-.006-8.978 4.075-10.337 10.875zM55.482 25.818 51.676 46.76h2.447l3.808-20.942zM45.691 27.722c1.088 0 3.263.273 4.624.816l.543-2.176c-1.088-.273-2.992-.543-4.896-.543-6.255 0-8.702 3.808-9.79 10.879-1.361 7.071-.543 10.879 6.528 10.879 1.904-.543 3.808-.816 4.624-1.088l.273-2.176c-1.361.543-3.263.816-4.624.816-4.624 0-5.439-1.904-4.351-8.702 1.357-7.073 2.718-8.705 7.069-8.705z"/><path class="st8" d="M102.367 60.465c0-.676.137-1.756.411-3.24s.57-2.553.889-3.202c1.006-2.001 2.65-3.001 4.932-3.001 1.02 0 1.857.255 2.514.765.656.51 1.093 1.217 1.31 2.121.012.115-.032.198-.134.249l-2.026.841c-.115.064-.198.025-.249-.114-.242-.981-.816-1.473-1.721-1.473-.981 0-1.708.511-2.179 1.529-.217.434-.443 1.294-.679 2.581s-.354 2.192-.354 2.715c0 .561.15 1.003.449 1.328s.723.487 1.271.487c.879 0 1.612-.497 2.198-1.49.076-.115.172-.146.287-.096l1.816.975c.102.038.121.121.058.248-.586.956-1.265 1.654-2.036 2.094s-1.679.659-2.724.659c-1.223 0-2.202-.344-2.934-1.032-.733-.688-1.099-1.67-1.099-2.944zM117.889 64.039l2.237-12.616c.025-.128.096-.191.21-.191h2.313c.127 0 .178.063.153.191l-1.816 10.304c-.026.076.006.114.095.114h5.295c.127 0 .178.064.153.191l-.363 2.007c-.025.128-.089.191-.191.191h-7.914c-.141 0-.198-.063-.172-.191zM132.322 64.23c-.127 0-.159-.063-.096-.191l6.557-12.616c.064-.128.159-.191.287-.191h2.313c.115 0 .185.063.21.191l2.007 12.616c.025.128-.019.191-.134.191h-2.332c-.141 0-.217-.063-.229-.191l-.306-2.332h-4.378l-1.128 2.332c-.051.128-.134.191-.249.191h-2.522zm5.027-4.817h2.963l-.592-4.741h-.058l-2.313 4.741zM154.688 64.44a7.42 7.42 0 0 1-2.714-.506c-.867-.338-1.504-.756-1.912-1.253-.076-.114-.07-.216.019-.306l1.644-1.567c.102-.102.191-.108.268-.02.828.854 1.848 1.281 3.059 1.281.701 0 1.275-.188 1.721-.563s.67-.838.67-1.387a.962.962 0 0 0-.373-.793c-.25-.197-.68-.341-1.291-.43l-.631-.096c-2.256-.332-3.383-1.415-3.383-3.25 0-1.363.475-2.46 1.424-3.288s2.176-1.242 3.68-1.242c1.695 0 3.045.458 4.053 1.376.088.063.088.159 0 .287l-1.357 1.567c-.102.102-.191.121-.268.057-.842-.624-1.721-.937-2.639-.937-.6 0-1.096.172-1.49.517-.395.344-.594.765-.594 1.262a.99.99 0 0 0 .373.803c.25.204.68.351 1.291.439l.631.096c2.268.344 3.402 1.383 3.402 3.116 0 1.491-.516 2.67-1.549 3.536-1.033.869-2.378 1.301-4.034 1.301zM171.014 64.44a7.425 7.425 0 0 1-2.715-.506c-.866-.338-1.504-.756-1.911-1.253-.077-.114-.07-.216.019-.306l1.645-1.567c.102-.102.19-.108.268-.02.828.854 1.848 1.281 3.059 1.281.7 0 1.274-.188 1.72-.563.446-.376.67-.838.67-1.387a.962.962 0 0 0-.373-.793c-.249-.197-.679-.341-1.29-.43l-.631-.096c-2.256-.332-3.384-1.415-3.384-3.25 0-1.363.475-2.46 1.424-3.288s2.176-1.242 3.68-1.242c1.695 0 3.046.458 4.053 1.376.089.063.089.159 0 .287l-1.357 1.567c-.102.102-.19.121-.268.057-.841-.624-1.72-.937-2.638-.937-.6 0-1.096.172-1.491.517-.395.344-.593.765-.593 1.262a.99.99 0 0 0 .373.803c.249.204.679.351 1.29.439l.631.096c2.269.344 3.403 1.383 3.403 3.116 0 1.491-.517 2.67-1.549 3.536-1.034.869-2.379 1.301-4.035 1.301zM183.095 64.039l2.236-12.616c.025-.128.096-.191.211-.191h2.312c.128 0 .179.063.153.191l-2.236 12.616c-.026.128-.09.191-.191.191h-2.313c-.14 0-.198-.063-.172-.191zM193.971 60.465c0-.676.137-1.756.411-3.24s.57-2.553.889-3.202c1.007-2.001 2.651-3.001 4.933-3.001 1.02 0 1.857.255 2.514.765s1.093 1.217 1.31 2.121a.227.227 0 0 1-.134.249l-2.026.841c-.115.064-.198.025-.249-.114-.242-.981-.815-1.473-1.72-1.473-.981 0-1.708.511-2.18 1.529-.217.434-.443 1.294-.679 2.581s-.354 2.192-.354 2.715c0 .561.149 1.003.449 1.328s.724.487 1.271.487c.879 0 1.612-.497 2.198-1.49.076-.115.172-.146.287-.096l1.815.975c.103.038.121.121.058.248-.586.956-1.265 1.654-2.036 2.094s-1.679.659-2.724.659c-1.224 0-2.202-.344-2.935-1.032-.732-.688-1.098-1.67-1.098-2.944z"/></svg>