<svg version="1.1" id="Ebene_1" xmlns="http://www.w3.org/2000/svg" x="0" y="0" viewBox="0 0 36 36" style="enable-background:new 0 0 36 36" xml:space="preserve"><style>.st3{fill:url(#SVGID_00000026881233309946206210000000415768869434338454_)}</style><linearGradient id="SVGID_1_" gradientUnits="userSpaceOnUse" x1="-84.629" y1="589.966" x2="-32.649" y2="633.583" gradientTransform="translate(0 -740.362)"><stop offset="0" style="stop-color:#fdfae2"/><stop offset="1" style="stop-color:#1f71b6"/></linearGradient><linearGradient id="SVGID_00000123419675180177356810000011116056210880472505_" gradientUnits="userSpaceOnUse" x1="18" y1="34.441" x2="18" y2="1.559"><stop offset="0" style="stop-color:#e1e1e1"/><stop offset="1" style="stop-color:#c8c8c8"/></linearGradient><path style="fill:url(#SVGID_00000123419675180177356810000011116056210880472505_)" d="M5.436 33.412c1.584.961 3.561 1.21 5.377.907.381.252 18.089-7.029 19.028-7.358a10.962 10.962 0 0 0 2.568-1.451c1.419-1.107 2.586-2.666 3.086-4.401.122-.74.283-2.005.445-3.127.373-3.305-1.023-4.865-3.317-7.534L29.92 7.204c-1.528-1.705-2.532-3.351-3.967-4.499-2.645-1.705-6.165-1.302-8.96-.122L6.188 7.279C3.724 8.362 1.493 10.278.431 12.72c-.993 1.415.056 12.091-.066 13.825.057 2.354 1.248 4.619 3.31 5.785m-.566-2.178a5.74 5.74 0 0 1-.89-1.159 5.967 5.967 0 0 1-.576-1.359 6.862 6.862 0 0 1-.251-1.515L.786 14.665c-.035-.663.106-1.352.381-2.029a7.602 7.602 0 0 1 1.175-1.927 10.148 10.148 0 0 1 1.753-1.67c.661-.497 1.4-.933 2.193-1.278l10.945-4.749a11.079 11.079 0 0 1 2.479-.744c.415-.071.828-.117 1.232-.137a9.17 9.17 0 0 1 1.198.017c.391.033.773.09 1.135.176.367.086.717.2 1.042.341.33.142.636.315.911.514.279.203.528.436.737.697l7.243 9.07a6.255 6.255 0 0 1 1.295 2.808 6.267 6.267 0 0 1-.249 3.125c-.356 1.059-.986 2.074-1.867 2.963-.893.904-2.032 1.666-3.378 2.208l-17.889 7.207a9.593 9.593 0 0 1-1.913.556 8.23 8.23 0 0 1-1.819.127 7.18 7.18 0 0 1-1.66-.266 6.306 6.306 0 0 1-1.442-.614 5.794 5.794 0 0 1-1.179-.908zm30.089-12.971a5.607 5.607 0 0 1-.303 1.351c-.161.449-.378.89-.649 1.311a7.143 7.143 0 0 1-.98 1.212 8.236 8.236 0 0 1-1.301 1.05c-.072.046-.143.092-.217.134-.127.08-.259.159-.393.23a9.328 9.328 0 0 1-.972.459l-17.516 7.087a8.468 8.468 0 0 1-1.629.478 7.255 7.255 0 0 1-1.555.122 6.286 6.286 0 0 1-1.423-.211 5.452 5.452 0 0 1-1.25-.508 4.978 4.978 0 0 1-1.034-.762 4.78 4.78 0 0 1-.785-.979 5.137 5.137 0 0 1-.523-1.159 5.664 5.664 0 0 1-.244-1.303l-.132-1.825-.127-1.785-.152-2.121c.107.058.216.115.326.173.522.14 1.023.309 1.52.497.031.296.14.666.341.777.316.169 1.661.826 3.313 1.103 1.652.277 3.198.386 4.015.952l.081.056c.739.596 1.563 1.247 1.742 1.508.179.261.191.619.524.561.331-.057.595.024.499.126-.095.102-.47.388-.383.563.09.176.287.695.679.832.369.128 1.328.666 1.568.137.005-.016.013-.033.018-.051a.424.424 0 0 0 .017-.066c.155-.72-.07-.499-.046-.662.025-.163-.047-.576-.226-.921-.179-.344-.326-.572-.294-.622.032-.051.037-.453-.512-.762-.357-.201-1.262-.947-1.941-1.449 1.052-.081 1.971-.118 2.604.133l.091.036c.854.414 1.803.862 2.039 1.074.232.213.326.558.638.428.309-.133.586-.113.514.008-.069.121-.37.483-.246.635.127.152.437.613.851.657.389.042 1.445.345 1.558-.223a.29.29 0 0 0 .005-.053c.003-.022.006-.044.003-.069-.014-.738-.182-.472-.196-.635-.011-.163-.177-.549-.428-.845-.251-.295-.448-.483-.428-.538.02-.058-.067-.45-.671-.627-.524-.152-1.986-1.342-2.635-1.536l-.058-.025c-.972-.342-1.003-.21-2.113-.276-1.583-.099-1.718-.077-2.585-.519-.868-.439-.801-.514-.986-.569.372-.351 1.254-.29 1.812-1.257.561-.966.798-1.108 1.627-1.737.828-.633 1.033-.481 1.977-1.392.947-.909 1.464-1.508 2.077-1.417.677.558 1.213 1.353 2.058 2.025.845.671 1.704 1.063 1.856 1.234.149.174-.003.238.039.486.044.251.732.715 1.295.635.251 0 .309-.077.329-.149.063.017.685.304 1.019-.133.149-.395.135-.572.21-.597.077-.025.326-.074.378-.359.05-.284-.094-.472-.277-.826-.271-.533-.774-1.867-1.121-2.45-.351-.58-.566-1.546-.851-2.345-.284-.798-.713-2.712-2.027-3.052-.92-1.127-1.356-1.555-1.688-1.575-.204.318-.121.784.069 1.055-.511-.243-1.887-.834-2.746-.445-.801-.099-1.315.039-2.019-.304-.232.243.022.447.329.627-.047.155.055.271-.431.163-.486-.108-1.331-.517-1.737-.431-.406.086-.491.144-.82.044-.042.282.394.478.784.599-.077.188-.591-.045-1.146.005-.555.05-.475.011-.746-.102.066.177 0 .285-.185.337a1.244 1.244 0 0 1-.674-.003c-.215-.063-.094.147-.425.185-.332.045-.484.33-.829.352-.343.019-.467-.016-.89.042.204.221-.064.108-.365.205-.298.1-.345.367-.574.456-.226.087-.883.137-1.138.09-.256-.047-.475.014-.72.157-.246.146-.464.08-.616.033.329.354.655.168.691.276.036.105-.315.155-.922.157-.336.003-.764.207-1.598.163.13-.144.265-.286.407-.422.006-.007.01-.008.014-.015a9.118 9.118 0 0 1 1.745-1.316 9.646 9.646 0 0 1 1.01-.511L17.48 3.453a9.662 9.662 0 0 1 1.087-.396 9.604 9.604 0 0 1 1.095-.252c.365-.063.726-.1 1.082-.118a7.779 7.779 0 0 1 1.05.023c.344.028.674.083.988.161.322.08.624.18.905.307.284.129.548.28.783.459.237.177.447.384.626.613l7.003 9.156c.287.373.516.766.691 1.171.181.412.303.838.37 1.27.071.441.082.887.038 1.334z"/></svg>