<svg xmlns="http://www.w3.org/2000/svg" width="433" height="191" style="enable-background:new 0 0 433 191" xml:space="preserve"><filter id="a"><feGaussianBlur stdDeviation="3"/></filter><g style="filter:url(#a)"><path d="M418 3H59.61C44.84 3 32.19 13.6 29.57 28.17L3 176h358.39c14.77 0 27.42-10.6 30.04-25.17L418 3z" style="opacity:.7;fill-rule:evenodd;clip-rule:evenodd"/></g><linearGradient id="b" gradientUnits="userSpaceOnUse" x1="207.5" y1="236" x2="207.5" y2="409" gradientTransform="translate(0 -236)"><stop offset="0" style="stop-color:#feed01"/><stop offset="1" style="stop-color:#a59a06"/></linearGradient><path d="M415 0H56.61C41.84 0 29.19 10.6 26.57 25.17L0 173h358.39c14.77 0 27.42-10.6 30.04-25.17L415 0z" style="fill-rule:evenodd;clip-rule:evenodd;fill:url(#b)"/><path d="M412.641 0 386.43 145.83C383.81 160.4 371.16 171 356.39 171H.359L0 173h358.39c14.77 0 27.42-10.6 30.04-25.17L415 0h-2.359z" style="opacity:.05;fill-rule:evenodd;clip-rule:evenodd;enable-background:new"/><path d="m413.82 0-26.39 146.83C384.81 161.4 372.16 172 357.39 172H.18L0 173h358.39c14.77 0 27.42-10.6 30.04-25.17L415 0h-1.18z" style="opacity:.22;fill-rule:evenodd;clip-rule:evenodd;enable-background:new"/><linearGradient id="c" gradientUnits="userSpaceOnUse" x1="82.494" y1="197.494" x2="268.82" y2="383.82" gradientTransform="translate(0 -236)"><stop offset="0" style="stop-color:#fff"/><stop offset="1" style="stop-color:#eee"/></linearGradient><path d="M28.57 27.17C31.19 12.6 43.84 2 58.61 2h356.031L415 0H56.61C41.84 0 29.19 10.6 26.57 25.17L0 173h2.359L28.57 27.17z" style="opacity:.17;fill-rule:evenodd;clip-rule:evenodd;fill:url(#c);enable-background:new"/><linearGradient id="d" gradientUnits="userSpaceOnUse" x1="82.494" y1="197.494" x2="268.41" y2="383.41" gradientTransform="translate(0 -236)"><stop offset="0" style="stop-color:#fff"/><stop offset="1" style="stop-color:#ccc"/></linearGradient><path d="M27.57 26.17C30.19 11.6 42.84 1 57.61 1h357.21l.18-1H56.61C41.84 0 29.19 10.6 26.57 25.17L0 173h1.18L27.57 26.17z" style="opacity:.31;fill-rule:evenodd;clip-rule:evenodd;fill:url(#d);enable-background:new"/></svg>