<svg version="1.1" id="Ebene_1" xmlns="http://www.w3.org/2000/svg" xmlns:xlink="http://www.w3.org/1999/xlink" x="0" y="0" viewBox="0 0 330 191" style="enable-background:new 0 0 330 191" xml:space="preserve"><style>.st1{clip-path:url(#SVGID_00000146470843364853584170000017933243583129131414_)}.st2{fill:url(#SVGID_00000067235914257070680760000001125264094890908565_)}.st2,.st3,.st5{fill-rule:evenodd;clip-rule:evenodd}.st3{opacity:.1;fill:url(#SVGID_00000117662769103176033420000003237243037293537463_);enable-background:new}.st5{opacity:.14;fill:url(#SVGID_00000111157167859319781450000003362375763127799945_)}.st5,.st6,.st7,.st8,.st9{clip-path:url(#SVGID_00000146470843364853584170000017933243583129131414_);enable-background:new}.st6{opacity:.22;fill-rule:evenodd;clip-rule:evenodd;fill:url(#SVGID_00000173871978780820706040000002675120113309946027_)}.st7,.st8,.st9{opacity:.49}.st8,.st9{opacity:.22;fill:url(#SVGID_00000023275271780622464860000006198315394049967264_)}.st9{opacity:.14;fill:url(#SVGID_00000018213475263065336950000003590422609820463502_)}</style><filter id="blur"><feGaussianBlur stdDeviation="3"/></filter><path d="M3 176h268.5c14.8 0 27.4-10.6 30-25.2L328 3H59.5c-14.8 0-27.4 10.6-30 25.2L3 176z" style="opacity:.7;fill-rule:evenodd;clip-rule:evenodd;enable-background:new;filter:url(#blur)"/><defs><path id="SVGID_1_" d="M0 0v110h325v2H0v79h330V0z"/></defs><clipPath id="SVGID_00000018939885301651805860000015717604046264935834_"><use xlink:href="#SVGID_1_" style="overflow:visible"/></clipPath><g style="clip-path:url(#SVGID_00000018939885301651805860000015717604046264935834_)"><linearGradient id="SVGID_00000163769991193782705600000003221633546142682025_" gradientUnits="userSpaceOnUse" x1="162.5" y1="-21.945" x2="162.5" y2="-194.945" gradientTransform="translate(0 194.945)"><stop offset="0" style="stop-color:#545b61"/><stop offset="1" style="stop-color:#627185"/></linearGradient><path style="fill-rule:evenodd;clip-rule:evenodd;fill:url(#SVGID_00000163769991193782705600000003221633546142682025_)" d="M0 173h268.5c14.8 0 27.4-10.6 30-25.2L325 0H56.5c-14.8 0-27.4 10.6-30 25.2L0 173z"/><linearGradient id="SVGID_00000105415538721003859410000005122511186132170384_" gradientUnits="userSpaceOnUse" x1="162.5" y1="100.055" x2="162.5" y2="-72.945" gradientTransform="translate(0 72.945)"><stop offset="0" style="stop-color:#06133c"/><stop offset="1" style="stop-color:#000"/></linearGradient><path style="opacity:.1;fill-rule:evenodd;clip-rule:evenodd;fill:url(#SVGID_00000105415538721003859410000005122511186132170384_);enable-background:new" d="M322.641 0 296.5 145.8c-2.6 14.6-15.2 25.2-30 25.2H.359L0 173h268.5c14.8 0 27.4-10.6 30-25.2L325 0h-2.359z"/><path d="M323.821 0 297.5 146.8c-2.6 14.6-15.2 25.2-30 25.2H.179L0 173h268.5c14.8 0 27.4-10.6 30-25.2L325 0h-1.179z" style="opacity:.49;fill-rule:evenodd;clip-rule:evenodd;enable-background:new"/></g><linearGradient id="SVGID_00000167355955213818228280000013322771929059532949_" gradientUnits="userSpaceOnUse" x1="32.361" y1="-61.581" x2="247.516" y2="62.639" gradientTransform="translate(0 72.945)"><stop offset="0" style="stop-color:#fff"/><stop offset="1" style="stop-color:#eee"/></linearGradient><path style="opacity:.14;clip-path:url(#SVGID_00000018939885301651805860000015717604046264935834_);fill-rule:evenodd;clip-rule:evenodd;fill:url(#SVGID_00000167355955213818228280000013322771929059532949_);enable-background:new" d="M28.5 27.2C31.1 12.6 43.7 2 58.5 2h266.141L325 0H56.5c-14.8 0-27.4 10.6-30 25.2L0 173h2.359L28.5 27.2z"/><linearGradient id="SVGID_00000102544506555970171650000013175778167239127442_" gradientUnits="userSpaceOnUse" x1="32.361" y1="-61.581" x2="247.218" y2="62.467" gradientTransform="translate(0 72.945)"><stop offset="0" style="stop-color:#fff"/><stop offset="1" style="stop-color:#ccc"/></linearGradient><path style="opacity:.22;clip-path:url(#SVGID_00000018939885301651805860000015717604046264935834_);fill-rule:evenodd;clip-rule:evenodd;fill:url(#SVGID_00000102544506555970171650000013175778167239127442_);enable-background:new" d="M27.5 26.2C30.1 11.6 42.7 1 57.5 1h267.321L325 0H56.5c-14.8 0-27.4 10.6-30 25.2L0 173h1.179L27.5 26.2z"/><path style="opacity:.49;clip-path:url(#SVGID_00000018939885301651805860000015717604046264935834_);enable-background:new" d="M305.128 108.757H11.518L11.296 110h293.832z"/><linearGradient id="SVGID_00000172405848827373087200000006583848167775527845_" gradientUnits="userSpaceOnUse" x1="10.713" y1="112.621" x2="304.96" y2="112.621"><stop offset="0" style="stop-color:#fff"/><stop offset="1" style="stop-color:#ccc"/></linearGradient><path style="opacity:.22;clip-path:url(#SVGID_00000018939885301651805860000015717604046264935834_);fill:url(#SVGID_00000172405848827373087200000006583848167775527845_);enable-background:new" d="M304.96 112H10.941l-.228 1.243h293.992z"/><linearGradient id="SVGID_00000054961750000956667160000013601407259995275406_" gradientUnits="userSpaceOnUse" x1="11.662" y1="113.864" x2="304.705" y2="113.864"><stop offset="0" style="stop-color:#fff"/><stop offset="1" style="stop-color:#eee"/></linearGradient><path style="opacity:.14;clip-path:url(#SVGID_00000018939885301651805860000015717604046264935834_);fill:url(#SVGID_00000054961750000956667160000013601407259995275406_);enable-background:new" d="M304.705 113.243H11.879l-.217 1.243h292.811z"/></svg>