<svg version="1.1" id="Ebene_1" xmlns="http://www.w3.org/2000/svg" x="0" y="0" viewBox="0 0 252 203" style="enable-background:new 0 0 252 203" xml:space="preserve"><style>.st2{display:none;fill-rule:evenodd;clip-rule:evenodd;fill:#0c43e2}.st10{fill:#455196;enable-background:new}</style><filter id="blur"><feGaussianBlur stdDeviation="2"/></filter><g id="exact_x5F_any_x5F_butt"><g style="filter:url(#blur)"><path d="M250.77 2.304H50.596c-7.525 0-13.975 5.452-15.28 12.746L2.304 201.235h200.481c7.525 0 13.668-5.452 14.973-12.746L250.77 2.304z" style="opacity:.7;fill-rule:evenodd;clip-rule:evenodd;enable-background:new"/></g><linearGradient id="SVGID_1_" gradientUnits="userSpaceOnUse" x1="115.322" y1="198.931" x2="115.322" y2="100.511"><stop offset="0" style="stop-color:#06133c"/><stop offset="1" style="stop-color:#0b1f60"/></linearGradient><path d="M17.451 100.511 0 198.931h200.481c7.525 0 13.668-5.452 14.973-12.746l15.191-85.674H17.451z" style="fill-rule:evenodd;clip-rule:evenodd;fill:url(#SVGID_1_)"/><linearGradient id="SVGID_00000153701207053788695100000017389278453029183380_" gradientUnits="userSpaceOnUse" x1="132.958" y1="100.511" x2="132.958" y2="0"><stop offset="0" style="stop-color:#06133c"/><stop offset="1" style="stop-color:#0b1f60"/></linearGradient><path style="fill-rule:evenodd;clip-rule:evenodd;fill:url(#SVGID_00000153701207053788695100000017389278453029183380_)" d="M230.645 100.511 248.466 0H48.292c-7.525 0-13.975 5.452-15.28 12.747l-15.561 87.764h213.194z"/><linearGradient id="SVGID_00000062175870612062036930000001107198063024950934_" gradientUnits="userSpaceOnUse" x1="124.233" y1="908.821" x2="124.233" y2="709.89" gradientTransform="translate(0 -709.89)"><stop offset="0" style="stop-color:#06133c"/><stop offset="1" style="stop-color:#000"/></linearGradient><path style="opacity:.1;fill-rule:evenodd;clip-rule:evenodd;fill:url(#SVGID_00000062175870612062036930000001107198063024950934_);enable-background:new" d="m246.652 0-32.733 184.649c-1.305 7.295-7.448 12.746-14.973 12.746H.279L0 198.931h200.481c7.525 0 13.668-5.452 14.973-12.746L248.466 0h-1.814z"/><path d="M214.84 185.724c-1.305 7.218-7.679 12.439-15.05 12.439l-199.713.23-.077.538h200.174c7.525 0 13.975-5.452 15.28-12.746L248.466 0h-.768L214.84 185.724z" style="opacity:.49;fill-rule:evenodd;clip-rule:evenodd;enable-background:new"/><linearGradient id="SVGID_00000172434980924107353830000006407798731388137132_" gradientUnits="userSpaceOnUse" x1="33.319" y1="718.442" x2="137.245" y2="822.368" gradientTransform="translate(0 -709.89)"><stop offset="0" style="stop-color:#fff"/><stop offset="1" style="stop-color:#eee"/></linearGradient><path style="opacity:.14;fill-rule:evenodd;clip-rule:evenodd;fill:url(#SVGID_00000172434980924107353830000006407798731388137132_);enable-background:new" d="M34.548 14.282c1.305-7.295 7.028-12.746 15.28-12.746h198.359L248.466 0H48.292c-7.525 0-13.975 5.452-15.28 12.746L0 198.931h1.814L34.548 14.282z"/><linearGradient id="SVGID_00000151502804998401664220000011889034768395072187_" gradientUnits="userSpaceOnUse" x1="33.319" y1="718.442" x2="136.931" y2="822.053" gradientTransform="translate(0 -709.89)"><stop offset="0" style="stop-color:#fff"/><stop offset="1" style="stop-color:#ccc"/></linearGradient><path style="opacity:.22;fill-rule:evenodd;clip-rule:evenodd;fill:url(#SVGID_00000151502804998401664220000011889034768395072187_);enable-background:new" d="M33.78 13.514C35.085 6.22 41.535.768 49.06.768h199.266l.14-.768H48.292c-7.525 0-13.975 5.452-15.28 12.746L0 198.931h.908L33.78 13.514z"/><g id="exact_x5F_any_x5F_butt_x5F_divider"><path style="opacity:.7;enable-background:new" d="m17.899 103.526 1.061-6.021.162-.917h212.857l-.162.917-1.062 6.021-.161.917H17.737z"/><linearGradient id="SVGID_00000162311255209020567010000017145360329415898036_" gradientUnits="userSpaceOnUse" x1="-170.28" y1="452.566" x2="-170.28" y2="242.943" gradientTransform="scale(-1 1) rotate(80.003 .006 252.033)"><stop offset="0" style="stop-color:#0b1f60"/><stop offset="1" style="stop-color:#1f2c6c"/></linearGradient><path style="fill:url(#SVGID_00000162311255209020567010000017145360329415898036_)" d="M229.65 104.433H16.793l1.223-6.938h212.857z"/><path d="M16.955 103.516h212.857l-.162.917H16.793z"/><path class="st10" d="M18.178 96.578h212.857l-.162.917H18.016zM17.739 104.433h-.946l1.223-6.938h.946z"/></g></g></svg>