<svg version="1.1" id="Ebene_1" xmlns="http://www.w3.org/2000/svg" x="0" y="0" viewBox="0 0 227 58" style="enable-background:new 0 0 227 58" xml:space="preserve"><style>.st00{filter:url(#blur)}.st0{opacity:.7;enable-background:new}.st0,.st2,.st6{fill-rule:evenodd;clip-rule:evenodd}.st2{opacity:.49;enable-background:new}.st6{display:none;fill:#0c43e2}.st13{fill:#455196;enable-background:new}</style><filter id="blur"><feGaussianBlur stdDeviation="2"/></filter><g id="hlbutt"><g id="hlbutt_x5F_re"><g class="st00"><path class="st0" d="M120.455 1.578 110.859 56h96.214c4.72 0 8.573-3.419 9.391-7.995l8.428-46.427H120.455z"/></g><linearGradient id="SVGID_1_" gradientUnits="userSpaceOnUse" x1="167.281" y1="54.555" x2="167.281" y2=".134"><stop offset="0" style="stop-color:#06133c"/><stop offset="1" style="stop-color:#0b1f60"/></linearGradient><path d="m120.71.133-9.596 54.422h94.514c4.72 0 8.573-3.419 9.391-7.995L223.447.133H120.71z" style="fill-rule:evenodd;clip-rule:evenodd;fill:url(#SVGID_1_)"/><path class="st2" d="m222.967.133-8.332 46.138c-.819 4.527-4.816 7.802-9.44 7.802l-94.008.068-.073.413h94.322c4.72 0 8.765-3.419 9.584-7.995L223.448.132h-.481z"/><linearGradient id="SVGID_00000155135628850096226380000013902492655216703653_" gradientUnits="userSpaceOnUse" x1="167.281" y1="54.555" x2="167.281" y2=".134"><stop offset="0" style="stop-color:#06133c"/><stop offset="1" style="stop-color:#000"/></linearGradient><path style="opacity:.1;fill-rule:evenodd;clip-rule:evenodd;fill:url(#SVGID_00000155135628850096226380000013902492655216703653_);enable-background:new" d="m222.31.133-8.253 45.464c-.819 4.575-4.672 7.995-9.391 7.995h-93.381l-.17.963h94.514c4.72 0 8.573-3.419 9.391-7.995L223.448.133h-1.138z"/><linearGradient id="SVGID_00000036230364289968154950000008831239808225056168_" gradientUnits="userSpaceOnUse" x1="146.111" y1="-25.268" x2="197.875" y2="26.495"><stop offset="0" style="stop-color:#fff"/><stop offset="1" style="stop-color:#eee"/></linearGradient><path style="opacity:.14;fill-rule:evenodd;clip-rule:evenodd;fill:url(#SVGID_00000036230364289968154950000008831239808225056168_);enable-background:new" d="m120.71.133-.17.964h102.733l.175-.964z"/><linearGradient id="SVGID_00000047768537729323995000000015356183839645983373_" gradientUnits="userSpaceOnUse" x1="146.253" y1="-25.409" x2="197.819" y2="26.157"><stop offset="0" style="stop-color:#fff"/><stop offset="1" style="stop-color:#ccc"/></linearGradient><path style="opacity:.22;fill-rule:evenodd;clip-rule:evenodd;fill:url(#SVGID_00000047768537729323995000000015356183839645983373_);enable-background:new" d="m120.71.133-.085.482h102.736l.087-.482z"/></g><g id="hlbutt_x5F_li"><g class="st00"><path class="st0" d="M113.476 1.578H19.457c-4.72 0-8.765 3.419-9.584 7.995L1.445 56H103.88l9.596-54.422z"/></g><linearGradient id="SVGID_00000150087531487269083020000013173800193493630906_" gradientUnits="userSpaceOnUse" x1="56.866" y1="54.555" x2="56.866" y2=".134"><stop offset="0" style="stop-color:#06133c"/><stop offset="1" style="stop-color:#0b1f60"/></linearGradient><path style="fill-rule:evenodd;clip-rule:evenodd;fill:url(#SVGID_00000150087531487269083020000013173800193493630906_)" d="M113.731.133H18.012c-4.72 0-8.765 3.419-9.584 7.995L0 54.555h104.135L113.731.133z"/><linearGradient id="SVGID_00000069366727350984090270000003517682580471581615_" gradientUnits="userSpaceOnUse" x1="52.153" y1="54.555" x2="52.153" y2="53.592"><stop offset="0" style="stop-color:#06133c"/><stop offset="1" style="stop-color:#000"/></linearGradient><path style="opacity:.1;fill-rule:evenodd;clip-rule:evenodd;fill:url(#SVGID_00000069366727350984090270000003517682580471581615_);enable-background:new" d="M104.305 53.592H.175L0 54.555h104.135z"/><path class="st2" d="M104.207 54.146.048 54.218 0 54.555h104.135z"/><linearGradient id="SVGID_00000047763023804331642970000018194725743363694756_" gradientUnits="userSpaceOnUse" x1="21.82" y1="-7.702" x2="72.09" y2="42.568"><stop offset="0" style="stop-color:#fff"/><stop offset="1" style="stop-color:#eee"/></linearGradient><path style="opacity:.14;fill-rule:evenodd;clip-rule:evenodd;fill:url(#SVGID_00000047763023804331642970000018194725743363694756_);enable-background:new" d="M113.731.133H18.012c-4.72 0-8.765 3.419-9.584 7.995L0 54.555h1.138L9.391 9.091c.819-4.575 4.408-7.995 9.584-7.995h94.586l.17-.963z"/><linearGradient id="SVGID_00000003783971193671987150000001791834953013070982_" gradientUnits="userSpaceOnUse" x1="21.82" y1="-7.702" x2="71.891" y2="42.37"><stop offset="0" style="stop-color:#fff"/><stop offset="1" style="stop-color:#ccc"/></linearGradient><path style="opacity:.22;fill-rule:evenodd;clip-rule:evenodd;fill:url(#SVGID_00000003783971193671987150000001791834953013070982_);enable-background:new" d="M113.731.133H18.012c-4.72 0-8.765 3.419-9.584 7.995L0 54.555h.569L8.91 8.61C9.729 4.035 13.774.615 18.494.615h95.153l.084-.482z"/></g><g id="hlbutt_x5F_divider"><path style="opacity:.7;enable-background:new" d="M119.609.931H112.564l-9.686 54.936h7.976L120.54.931z"/><linearGradient id="SVGID_00000036942905256141960070000007488044179108148647_" gradientUnits="userSpaceOnUse" x1="112.329" y1="54.935" x2="112.329" y2="0"><stop offset="0" style="stop-color:#0b1f60"/><stop offset="1" style="stop-color:#1f2c6c"/></linearGradient><path style="fill:url(#SVGID_00000036942905256141960070000007488044179108148647_)" d="M111.008 54.935 120.694 0h-7.044l-9.687 54.935z"/><path d="m119.763 0-9.686 54.935h.931L120.694 0z"/><path class="st13" d="m112.719 0-9.687 54.935h.931L113.65 0zM120.53.931l.164-.931h-7.044l-.164.931z"/></g></g></svg>