<svg version="1.1" id="Ebene_1" xmlns="http://www.w3.org/2000/svg" x="0" y="0" viewBox="0 0 408 508" style="enable-background:new 0 0 408 508" xml:space="preserve"><style>.st0{opacity:.7;fill-rule:evenodd;clip-rule:evenodd}.st0,.st2,.st4{enable-background:new}.st2{display:none;opacity:.6;fill-rule:evenodd;clip-rule:evenodd;fill:#fff}.st4{opacity:.49}.st4,.st43{fill-rule:evenodd;clip-rule:evenodd}.st43,.st49{fill:#fff}.st51{display:none;fill-rule:evenodd;clip-rule:evenodd;fill:#0c43e2}.st61{fill:#455196}</style><g id="numpad_x5F_sum"><g id="numbutt_x5F_1"><path class="st0" d="M167.242 134.304H81.319c-7.525 0-13.975 5.452-15.28 12.746l-13.438 74.022h86.23c7.525 0 13.668-5.452 14.973-12.746l13.438-74.022z"/><linearGradient id="SVGID_1_" gradientUnits="userSpaceOnUse" x1="107.618" y1="-257.768" x2="107.618" y2="-171" gradientTransform="matrix(1 0 0 -1 0 -39)"><stop offset="0" style="stop-color:#06133c"/><stop offset="1" style="stop-color:#0b1f60"/></linearGradient><path d="M164.938 132H79.016c-7.525 0-13.975 5.452-15.28 12.746l-13.438 74.022h86.23c7.525 0 13.668-5.452 14.973-12.746L164.938 132z" style="fill-rule:evenodd;clip-rule:evenodd;fill:url(#SVGID_1_)"/><linearGradient id="SVGID_00000008839085593364959770000004629635369178788763_" gradientUnits="userSpaceOnUse" x1="107.618" y1="-420.768" x2="107.618" y2="-334" gradientTransform="matrix(1 0 0 -1 0 -202)"><stop offset="0" style="stop-color:#06133c"/><stop offset="1" style="stop-color:#000"/></linearGradient><path style="opacity:.1;fill-rule:evenodd;clip-rule:evenodd;fill:url(#SVGID_00000008839085593364959770000004629635369178788763_);enable-background:new" d="m163.124 132-13.159 72.486c-1.305 7.295-7.448 12.746-14.973 12.746H50.577l-.279 1.536h86.23c7.525 0 13.668-5.452 14.973-12.746L164.938 132h-1.814z"/><path class="st4" d="M150.887 205.561c-1.305 7.218-7.679 12.439-15.05 12.439l-85.462.23-.077.538h85.923c7.525 0 13.975-5.452 15.28-12.746L164.938 132h-.768l-13.283 73.561z"/><linearGradient id="SVGID_00000129888681877246033210000016927039368007756439_" gradientUnits="userSpaceOnUse" x1="68.414" y1="-338.181" x2="115.215" y2="-384.981" gradientTransform="matrix(1 0 0 -1 0 -202)"><stop offset="0" style="stop-color:#fff"/><stop offset="1" style="stop-color:#eee"/></linearGradient><path style="opacity:.14;fill-rule:evenodd;clip-rule:evenodd;fill:url(#SVGID_00000129888681877246033210000016927039368007756439_);enable-background:new" d="M65.271 146.282c1.305-7.295 7.028-12.746 15.28-12.746h84.108l.279-1.536H79.016c-7.525 0-13.975 5.452-15.28 12.746l-13.438 74.022h1.814l13.159-72.486z"/><linearGradient id="SVGID_00000081605666534262124660000017559819371039526308_" gradientUnits="userSpaceOnUse" x1="68.414" y1="-338.181" x2="114.9" y2="-384.666" gradientTransform="matrix(1 0 0 -1 0 -202)"><stop offset="0" style="stop-color:#fff"/><stop offset="1" style="stop-color:#ccc"/></linearGradient><path style="opacity:.22;fill-rule:evenodd;clip-rule:evenodd;fill:url(#SVGID_00000081605666534262124660000017559819371039526308_);enable-background:new" d="M64.503 145.514c1.305-7.295 7.755-12.746 15.28-12.746h85.015l.14-.768H79.016c-7.525 0-13.975 5.452-15.28 12.746l-13.438 74.022h.908l13.297-73.254z"/></g><g id="numbutt_x5F_2"><path class="st0" d="M275.742 134.304h-85.923c-7.525 0-13.975 5.452-15.28 12.746l-13.438 74.022h86.23c7.525 0 13.668-5.452 14.973-12.746l13.438-74.022z"/><linearGradient id="SVGID_00000106837262471446061480000015011135821675564180_" gradientUnits="userSpaceOnUse" x1="216.118" y1="-257.768" x2="216.118" y2="-171" gradientTransform="matrix(1 0 0 -1 0 -39)"><stop offset="0" style="stop-color:#06133c"/><stop offset="1" style="stop-color:#0b1f60"/></linearGradient><path style="fill-rule:evenodd;clip-rule:evenodd;fill:url(#SVGID_00000106837262471446061480000015011135821675564180_)" d="M273.438 132h-85.923c-7.525 0-13.975 5.452-15.28 12.746l-13.438 74.022h86.23c7.525 0 13.668-5.452 14.973-12.746L273.438 132z"/><linearGradient id="SVGID_00000183209891262944212320000004064532849555234448_" gradientUnits="userSpaceOnUse" x1="216.118" y1="-420.768" x2="216.118" y2="-334" gradientTransform="matrix(1 0 0 -1 0 -202)"><stop offset="0" style="stop-color:#06133c"/><stop offset="1" style="stop-color:#000"/></linearGradient><path style="opacity:.1;fill-rule:evenodd;clip-rule:evenodd;fill:url(#SVGID_00000183209891262944212320000004064532849555234448_);enable-background:new" d="m271.624 132-13.159 72.486c-1.305 7.295-7.448 12.746-14.973 12.746h-84.415l-.279 1.536h86.23c7.525 0 13.668-5.452 14.973-12.746L273.438 132h-1.814z"/><path class="st4" d="M259.387 205.561c-1.305 7.218-7.679 12.439-15.05 12.439l-85.462.23-.077.538h85.923c7.525 0 13.975-5.452 15.28-12.746L273.438 132h-.768l-13.283 73.561z"/><linearGradient id="SVGID_00000084518738460114712250000016814891571367759001_" gradientUnits="userSpaceOnUse" x1="176.914" y1="-338.18" x2="223.714" y2="-384.981" gradientTransform="matrix(1 0 0 -1 0 -202)"><stop offset="0" style="stop-color:#fff"/><stop offset="1" style="stop-color:#eee"/></linearGradient><path style="opacity:.14;fill-rule:evenodd;clip-rule:evenodd;fill:url(#SVGID_00000084518738460114712250000016814891571367759001_);enable-background:new" d="M173.771 146.282c1.305-7.295 7.028-12.746 15.28-12.746h84.108l.279-1.536h-85.923c-7.525 0-13.975 5.452-15.28 12.746l-13.438 74.022h1.814l13.16-72.486z"/><linearGradient id="SVGID_00000003104209697897585400000006362182261301674679_" gradientUnits="userSpaceOnUse" x1="176.914" y1="-338.18" x2="223.4" y2="-384.666" gradientTransform="matrix(1 0 0 -1 0 -202)"><stop offset="0" style="stop-color:#fff"/><stop offset="1" style="stop-color:#ccc"/></linearGradient><path style="opacity:.22;fill-rule:evenodd;clip-rule:evenodd;fill:url(#SVGID_00000003104209697897585400000006362182261301674679_);enable-background:new" d="M173.003 145.514c1.305-7.295 7.755-12.746 15.28-12.746h85.015l.14-.768h-85.923c-7.525 0-13.975 5.452-15.28 12.746l-13.438 74.022h.908l13.298-73.254z"/></g><g id="numbutt_x5F_3"><path class="st0" d="M384.242 134.304h-85.923c-7.525 0-13.975 5.452-15.28 12.746l-13.438 74.022h86.23c7.525 0 13.668-5.452 14.973-12.746l13.438-74.022z"/><linearGradient id="SVGID_00000065070758490381610140000006294879428432223391_" gradientUnits="userSpaceOnUse" x1="324.618" y1="-257.768" x2="324.618" y2="-171" gradientTransform="matrix(1 0 0 -1 0 -39)"><stop offset="0" style="stop-color:#06133c"/><stop offset="1" style="stop-color:#0b1f60"/></linearGradient><path style="fill-rule:evenodd;clip-rule:evenodd;fill:url(#SVGID_00000065070758490381610140000006294879428432223391_)" d="M381.938 132h-85.923c-7.525 0-13.975 5.452-15.28 12.746l-13.438 74.022h86.23c7.525 0 13.668-5.452 14.973-12.746L381.938 132z"/><linearGradient id="SVGID_00000146464269148325022540000000237888701714063489_" gradientUnits="userSpaceOnUse" x1="324.618" y1="-420.768" x2="324.618" y2="-334" gradientTransform="matrix(1 0 0 -1 0 -202)"><stop offset="0" style="stop-color:#06133c"/><stop offset="1" style="stop-color:#000"/></linearGradient><path style="opacity:.1;fill-rule:evenodd;clip-rule:evenodd;fill:url(#SVGID_00000146464269148325022540000000237888701714063489_);enable-background:new" d="m380.124 132-13.159 72.486c-1.305 7.295-7.448 12.746-14.973 12.746h-84.415l-.279 1.536h86.23c7.525 0 13.668-5.452 14.973-12.746L381.938 132h-1.814z"/><path class="st4" d="M367.887 205.561c-1.305 7.218-7.679 12.439-15.05 12.439l-85.462.23-.077.538h85.923c7.525 0 13.975-5.452 15.28-12.746L381.938 132h-.768l-13.283 73.561z"/><linearGradient id="SVGID_00000074433833433981350430000015848840916427130034_" gradientUnits="userSpaceOnUse" x1="285.414" y1="-338.18" x2="332.214" y2="-384.981" gradientTransform="matrix(1 0 0 -1 0 -202)"><stop offset="0" style="stop-color:#fff"/><stop offset="1" style="stop-color:#eee"/></linearGradient><path style="opacity:.14;fill-rule:evenodd;clip-rule:evenodd;fill:url(#SVGID_00000074433833433981350430000015848840916427130034_);enable-background:new" d="M282.271 146.282c1.305-7.295 7.028-12.746 15.28-12.746h84.108l.279-1.536h-85.923c-7.525 0-13.975 5.452-15.28 12.746l-13.438 74.022h1.814l13.16-72.486z"/><linearGradient id="SVGID_00000005972149313680752070000005380917505015190676_" gradientUnits="userSpaceOnUse" x1="285.414" y1="-338.18" x2="331.9" y2="-384.666" gradientTransform="matrix(1 0 0 -1 0 -202)"><stop offset="0" style="stop-color:#fff"/><stop offset="1" style="stop-color:#ccc"/></linearGradient><path style="opacity:.22;fill-rule:evenodd;clip-rule:evenodd;fill:url(#SVGID_00000005972149313680752070000005380917505015190676_);enable-background:new" d="M281.503 145.514c1.305-7.295 7.755-12.746 15.28-12.746h85.015l.14-.768h-85.923c-7.525 0-13.975 5.452-15.28 12.746l-13.438 74.022h.908l13.298-73.254z"/></g><g id="numbutt_x5F_4"><path class="st0" d="M150.391 229.304H64.468c-7.525 0-13.975 5.452-15.28 12.746L35.75 316.072h86.23c7.525 0 13.668-5.452 14.973-12.746l13.438-74.022z"/><linearGradient id="SVGID_00000152258040784506272180000011055916743892887709_" gradientUnits="userSpaceOnUse" x1="90.767" y1="-352.768" x2="90.767" y2="-266" gradientTransform="matrix(1 0 0 -1 0 -39)"><stop offset="0" style="stop-color:#06133c"/><stop offset="1" style="stop-color:#0b1f60"/></linearGradient><path style="fill-rule:evenodd;clip-rule:evenodd;fill:url(#SVGID_00000152258040784506272180000011055916743892887709_)" d="M148.087 227H62.165c-7.525 0-13.975 5.452-15.28 12.746l-13.438 74.022h86.23c7.525 0 13.668-5.452 14.973-12.746L148.087 227z"/><linearGradient id="SVGID_00000044858802004238158090000009442213713777203878_" gradientUnits="userSpaceOnUse" x1="90.767" y1="-515.768" x2="90.767" y2="-429" gradientTransform="matrix(1 0 0 -1 0 -202)"><stop offset="0" style="stop-color:#06133c"/><stop offset="1" style="stop-color:#000"/></linearGradient><path style="opacity:.1;fill-rule:evenodd;clip-rule:evenodd;fill:url(#SVGID_00000044858802004238158090000009442213713777203878_);enable-background:new" d="m146.273 227-13.159 72.486c-1.305 7.295-7.448 12.746-14.973 12.746H33.726l-.279 1.536h86.23c7.525 0 13.668-5.452 14.973-12.746L148.087 227h-1.814z"/><path class="st4" d="M134.036 300.561c-1.305 7.218-7.679 12.439-15.05 12.439l-85.462.23-.077.538h85.923c7.525 0 13.975-5.452 15.28-12.746L148.087 227h-.768l-13.283 73.561z"/><linearGradient id="SVGID_00000121989202582861714360000002755197731444536726_" gradientUnits="userSpaceOnUse" x1="51.563" y1="-433.181" x2="98.364" y2="-479.981" gradientTransform="matrix(1 0 0 -1 0 -202)"><stop offset="0" style="stop-color:#fff"/><stop offset="1" style="stop-color:#eee"/></linearGradient><path style="opacity:.14;fill-rule:evenodd;clip-rule:evenodd;fill:url(#SVGID_00000121989202582861714360000002755197731444536726_);enable-background:new" d="M48.42 241.282c1.305-7.295 7.028-12.746 15.28-12.746h84.108l.279-1.536H62.165c-7.525 0-13.975 5.452-15.28 12.746l-13.438 74.022h1.814l13.159-72.486z"/><linearGradient id="SVGID_00000127035854639264293700000002346129819546978689_" gradientUnits="userSpaceOnUse" x1="51.563" y1="-433.181" x2="98.049" y2="-479.666" gradientTransform="matrix(1 0 0 -1 0 -202)"><stop offset="0" style="stop-color:#fff"/><stop offset="1" style="stop-color:#ccc"/></linearGradient><path style="opacity:.22;fill-rule:evenodd;clip-rule:evenodd;fill:url(#SVGID_00000127035854639264293700000002346129819546978689_);enable-background:new" d="M47.652 240.514c1.305-7.295 7.755-12.746 15.28-12.746h85.015l.14-.768H62.165c-7.525 0-13.975 5.452-15.28 12.746l-13.438 74.022h.908l13.297-73.254z"/></g><g id="numbutt_x5F_5"><path class="st0" d="M258.891 229.304h-85.923c-7.525 0-13.975 5.452-15.28 12.746l-13.438 74.022h86.23c7.525 0 13.668-5.452 14.973-12.746l13.438-74.022z"/><linearGradient id="SVGID_00000058583461198285346880000009033262327467871677_" gradientUnits="userSpaceOnUse" x1="199.267" y1="-352.768" x2="199.267" y2="-266" gradientTransform="matrix(1 0 0 -1 0 -39)"><stop offset="0" style="stop-color:#06133c"/><stop offset="1" style="stop-color:#0b1f60"/></linearGradient><path style="fill-rule:evenodd;clip-rule:evenodd;fill:url(#SVGID_00000058583461198285346880000009033262327467871677_)" d="M256.587 227h-85.923c-7.525 0-13.975 5.452-15.28 12.746l-13.438 74.022h86.23c7.525 0 13.668-5.452 14.973-12.746L256.587 227z"/><linearGradient id="SVGID_00000024705520714512241080000013959847737370459570_" gradientUnits="userSpaceOnUse" x1="199.267" y1="-515.768" x2="199.267" y2="-429" gradientTransform="matrix(1 0 0 -1 0 -202)"><stop offset="0" style="stop-color:#06133c"/><stop offset="1" style="stop-color:#000"/></linearGradient><path style="opacity:.1;fill-rule:evenodd;clip-rule:evenodd;fill:url(#SVGID_00000024705520714512241080000013959847737370459570_);enable-background:new" d="m254.773 227-13.159 72.486c-1.305 7.295-7.448 12.746-14.973 12.746h-84.415l-.279 1.536h86.23c7.525 0 13.668-5.452 14.973-12.746L256.587 227h-1.814z"/><path class="st4" d="M242.536 300.561c-1.305 7.218-7.679 12.439-15.05 12.439l-85.462.23-.077.538h85.923c7.525 0 13.975-5.452 15.28-12.746L256.587 227h-.768l-13.283 73.561z"/><linearGradient id="SVGID_00000174575950688451934070000004393114500122309018_" gradientUnits="userSpaceOnUse" x1="160.063" y1="-433.18" x2="206.863" y2="-479.981" gradientTransform="matrix(1 0 0 -1 0 -202)"><stop offset="0" style="stop-color:#fff"/><stop offset="1" style="stop-color:#eee"/></linearGradient><path style="opacity:.14;fill-rule:evenodd;clip-rule:evenodd;fill:url(#SVGID_00000174575950688451934070000004393114500122309018_);enable-background:new" d="M156.92 241.282c1.305-7.295 7.028-12.746 15.28-12.746h84.108l.279-1.536h-85.923c-7.525 0-13.975 5.452-15.28 12.746l-13.438 74.022h1.814l13.16-72.486z"/><linearGradient id="SVGID_00000023993231441867405900000004597076389450429848_" gradientUnits="userSpaceOnUse" x1="160.063" y1="-433.18" x2="206.549" y2="-479.666" gradientTransform="matrix(1 0 0 -1 0 -202)"><stop offset="0" style="stop-color:#fff"/><stop offset="1" style="stop-color:#ccc"/></linearGradient><path style="opacity:.22;fill-rule:evenodd;clip-rule:evenodd;fill:url(#SVGID_00000023993231441867405900000004597076389450429848_);enable-background:new" d="M156.152 240.514c1.305-7.295 7.755-12.746 15.28-12.746h85.015l.14-.768h-85.923c-7.525 0-13.975 5.452-15.28 12.746l-13.438 74.022h.908l13.298-73.254z"/></g><g id="numbutt_x5F_6"><path class="st0" d="M367.391 229.304h-85.923c-7.525 0-13.975 5.452-15.28 12.746l-13.438 74.022h86.23c7.525 0 13.668-5.452 14.973-12.746l13.438-74.022z"/><linearGradient id="SVGID_00000121237181937132312700000010522642919192051629_" gradientUnits="userSpaceOnUse" x1="307.767" y1="-352.768" x2="307.767" y2="-266" gradientTransform="matrix(1 0 0 -1 0 -39)"><stop offset="0" style="stop-color:#06133c"/><stop offset="1" style="stop-color:#0b1f60"/></linearGradient><path style="fill-rule:evenodd;clip-rule:evenodd;fill:url(#SVGID_00000121237181937132312700000010522642919192051629_)" d="M365.087 227h-85.923c-7.525 0-13.975 5.452-15.28 12.746l-13.438 74.022h86.23c7.525 0 13.668-5.452 14.973-12.746L365.087 227z"/><linearGradient id="SVGID_00000102532907005118600270000006891398355428311445_" gradientUnits="userSpaceOnUse" x1="307.767" y1="-515.768" x2="307.767" y2="-429" gradientTransform="matrix(1 0 0 -1 0 -202)"><stop offset="0" style="stop-color:#06133c"/><stop offset="1" style="stop-color:#000"/></linearGradient><path style="opacity:.1;fill-rule:evenodd;clip-rule:evenodd;fill:url(#SVGID_00000102532907005118600270000006891398355428311445_);enable-background:new" d="m363.273 227-13.159 72.486c-1.305 7.295-7.448 12.746-14.973 12.746h-84.415l-.279 1.536h86.23c7.525 0 13.668-5.452 14.973-12.746L365.087 227h-1.814z"/><path class="st4" d="M351.036 300.561c-1.305 7.218-7.679 12.439-15.05 12.439l-85.462.23-.077.538h85.923c7.525 0 13.975-5.452 15.28-12.746L365.087 227h-.768l-13.283 73.561z"/><linearGradient id="SVGID_00000058552692736966684050000001150183653147358633_" gradientUnits="userSpaceOnUse" x1="268.563" y1="-433.18" x2="315.363" y2="-479.981" gradientTransform="matrix(1 0 0 -1 0 -202)"><stop offset="0" style="stop-color:#fff"/><stop offset="1" style="stop-color:#eee"/></linearGradient><path style="opacity:.14;fill-rule:evenodd;clip-rule:evenodd;fill:url(#SVGID_00000058552692736966684050000001150183653147358633_);enable-background:new" d="M265.42 241.282c1.305-7.295 7.028-12.746 15.28-12.746h84.108l.279-1.536h-85.923c-7.525 0-13.975 5.452-15.28 12.746l-13.438 74.022h1.814l13.16-72.486z"/><linearGradient id="SVGID_00000094587534716968284820000006169444360150727862_" gradientUnits="userSpaceOnUse" x1="268.563" y1="-433.18" x2="315.049" y2="-479.666" gradientTransform="matrix(1 0 0 -1 0 -202)"><stop offset="0" style="stop-color:#fff"/><stop offset="1" style="stop-color:#ccc"/></linearGradient><path style="opacity:.22;fill-rule:evenodd;clip-rule:evenodd;fill:url(#SVGID_00000094587534716968284820000006169444360150727862_);enable-background:new" d="M264.652 240.514c1.305-7.295 7.755-12.746 15.28-12.746h85.015l.14-.768h-85.923c-7.525 0-13.975 5.452-15.28 12.746l-13.438 74.022h.908l13.298-73.254z"/></g><g id="numbutt_x5F_7"><path class="st0" d="M133.795 324.304H47.873c-7.525 0-13.975 5.452-15.28 12.746l-13.438 74.022h86.23c7.525 0 13.668-5.452 14.973-12.746l13.437-74.022z"/><linearGradient id="SVGID_00000087400053387072634170000012740746639764456336_" gradientUnits="userSpaceOnUse" x1="74.171" y1="-447.768" x2="74.171" y2="-361" gradientTransform="matrix(1 0 0 -1 0 -39)"><stop offset="0" style="stop-color:#06133c"/><stop offset="1" style="stop-color:#0b1f60"/></linearGradient><path style="fill-rule:evenodd;clip-rule:evenodd;fill:url(#SVGID_00000087400053387072634170000012740746639764456336_)" d="M131.492 322H45.569c-7.525 0-13.975 5.452-15.28 12.746l-13.438 74.022h86.23c7.525 0 13.668-5.452 14.973-12.746L131.492 322z"/><linearGradient id="SVGID_00000002360678603283585520000004981246892118376856_" gradientUnits="userSpaceOnUse" x1="74.171" y1="-610.768" x2="74.171" y2="-524" gradientTransform="matrix(1 0 0 -1 0 -202)"><stop offset="0" style="stop-color:#06133c"/><stop offset="1" style="stop-color:#000"/></linearGradient><path style="opacity:.1;fill-rule:evenodd;clip-rule:evenodd;fill:url(#SVGID_00000002360678603283585520000004981246892118376856_);enable-background:new" d="m129.677 322-13.159 72.486c-1.305 7.295-7.448 12.746-14.973 12.746H17.13l-.279 1.536h86.23c7.525 0 13.668-5.452 14.973-12.746L131.492 322h-1.815z"/><path class="st4" d="M117.44 395.561c-1.305 7.218-7.679 12.439-15.05 12.439l-85.462.23-.077.538h85.923c7.525 0 13.975-5.452 15.28-12.746L131.492 322h-.768l-13.284 73.561z"/><linearGradient id="SVGID_00000173875286424181434740000008720207577951016614_" gradientUnits="userSpaceOnUse" x1="34.967" y1="-528.181" x2="81.767" y2="-574.981" gradientTransform="matrix(1 0 0 -1 0 -202)"><stop offset="0" style="stop-color:#fff"/><stop offset="1" style="stop-color:#eee"/></linearGradient><path style="opacity:.14;fill-rule:evenodd;clip-rule:evenodd;fill:url(#SVGID_00000173875286424181434740000008720207577951016614_);enable-background:new" d="M31.824 336.282c1.305-7.295 7.028-12.746 15.28-12.746h84.108l.279-1.536H45.569c-7.525 0-13.975 5.452-15.28 12.746l-13.438 74.022h1.814l13.159-72.486z"/><linearGradient id="SVGID_00000119814883429974639710000012728219481205381282_" gradientUnits="userSpaceOnUse" x1="34.968" y1="-528.181" x2="81.453" y2="-574.666" gradientTransform="matrix(1 0 0 -1 0 -202)"><stop offset="0" style="stop-color:#fff"/><stop offset="1" style="stop-color:#ccc"/></linearGradient><path style="opacity:.22;fill-rule:evenodd;clip-rule:evenodd;fill:url(#SVGID_00000119814883429974639710000012728219481205381282_);enable-background:new" d="M31.056 335.514c1.305-7.295 7.755-12.746 15.28-12.746h85.015l.14-.768H45.569c-7.525 0-13.975 5.452-15.28 12.746l-13.438 74.022h.908l13.297-73.254z"/></g><g id="numbutt_x5F_8"><path class="st0" d="M242.295 324.304h-85.923c-7.525 0-13.975 5.452-15.28 12.746l-13.438 74.022h86.23c7.525 0 13.668-5.452 14.973-12.746l13.438-74.022z"/><linearGradient id="SVGID_00000083807844568915127690000007511828608937838500_" gradientUnits="userSpaceOnUse" x1="182.672" y1="-447.768" x2="182.672" y2="-361" gradientTransform="matrix(1 0 0 -1 0 -39)"><stop offset="0" style="stop-color:#06133c"/><stop offset="1" style="stop-color:#0b1f60"/></linearGradient><path style="fill-rule:evenodd;clip-rule:evenodd;fill:url(#SVGID_00000083807844568915127690000007511828608937838500_)" d="M239.992 322h-85.923c-7.525 0-13.975 5.452-15.28 12.746l-13.438 74.022h86.23c7.525 0 13.668-5.452 14.973-12.746L239.992 322z"/><linearGradient id="SVGID_00000083088371730245066020000013778066039643457943_" gradientUnits="userSpaceOnUse" x1="182.672" y1="-610.768" x2="182.672" y2="-524" gradientTransform="matrix(1 0 0 -1 0 -202)"><stop offset="0" style="stop-color:#06133c"/><stop offset="1" style="stop-color:#000"/></linearGradient><path style="opacity:.1;fill-rule:evenodd;clip-rule:evenodd;fill:url(#SVGID_00000083088371730245066020000013778066039643457943_);enable-background:new" d="m238.177 322-13.159 72.486c-1.305 7.295-7.448 12.746-14.973 12.746H125.63l-.279 1.536h86.23c7.525 0 13.668-5.452 14.973-12.746L239.992 322h-1.815z"/><path class="st4" d="M225.94 395.561c-1.305 7.218-7.679 12.439-15.05 12.439l-85.462.23-.077.538h85.923c7.525 0 13.975-5.452 15.28-12.746L239.992 322h-.768l-13.284 73.561z"/><linearGradient id="SVGID_00000049220194877553201270000003476229790620781470_" gradientUnits="userSpaceOnUse" x1="143.467" y1="-528.18" x2="190.267" y2="-574.981" gradientTransform="matrix(1 0 0 -1 0 -202)"><stop offset="0" style="stop-color:#fff"/><stop offset="1" style="stop-color:#eee"/></linearGradient><path style="opacity:.14;fill-rule:evenodd;clip-rule:evenodd;fill:url(#SVGID_00000049220194877553201270000003476229790620781470_);enable-background:new" d="M140.324 336.282c1.305-7.295 7.028-12.746 15.28-12.746h84.108l.279-1.536h-85.923c-7.525 0-13.975 5.452-15.28 12.746l-13.438 74.022h1.814l13.16-72.486z"/><linearGradient id="SVGID_00000072958608108599911100000010129827101057961132_" gradientUnits="userSpaceOnUse" x1="143.467" y1="-528.18" x2="189.953" y2="-574.666" gradientTransform="matrix(1 0 0 -1 0 -202)"><stop offset="0" style="stop-color:#fff"/><stop offset="1" style="stop-color:#ccc"/></linearGradient><path style="opacity:.22;fill-rule:evenodd;clip-rule:evenodd;fill:url(#SVGID_00000072958608108599911100000010129827101057961132_);enable-background:new" d="M139.556 335.514c1.305-7.295 7.755-12.746 15.28-12.746h85.015l.14-.768h-85.923c-7.525 0-13.975 5.452-15.28 12.746l-13.438 74.022h.908l13.298-73.254z"/></g><g id="numbutt_x5F_9"><path class="st0" d="M350.795 324.304h-85.923c-7.525 0-13.975 5.452-15.28 12.746l-13.438 74.022h86.23c7.525 0 13.668-5.452 14.973-12.746l13.438-74.022z"/><linearGradient id="SVGID_00000103985804477152847520000003332621248457142921_" gradientUnits="userSpaceOnUse" x1="291.171" y1="-447.768" x2="291.171" y2="-361" gradientTransform="matrix(1 0 0 -1 0 -39)"><stop offset="0" style="stop-color:#06133c"/><stop offset="1" style="stop-color:#0b1f60"/></linearGradient><path style="fill-rule:evenodd;clip-rule:evenodd;fill:url(#SVGID_00000103985804477152847520000003332621248457142921_)" d="M348.492 322h-85.923c-7.525 0-13.975 5.452-15.28 12.746l-13.438 74.022h86.23c7.525 0 13.668-5.452 14.973-12.746L348.492 322z"/><linearGradient id="SVGID_00000000213094755166245860000002788425961223379636_" gradientUnits="userSpaceOnUse" x1="291.171" y1="-610.768" x2="291.171" y2="-524" gradientTransform="matrix(1 0 0 -1 0 -202)"><stop offset="0" style="stop-color:#06133c"/><stop offset="1" style="stop-color:#000"/></linearGradient><path style="opacity:.1;fill-rule:evenodd;clip-rule:evenodd;fill:url(#SVGID_00000000213094755166245860000002788425961223379636_);enable-background:new" d="m346.677 322-13.159 72.486c-1.305 7.295-7.448 12.746-14.973 12.746H234.13l-.279 1.536h86.23c7.525 0 13.668-5.452 14.973-12.746L348.492 322h-1.815z"/><path class="st4" d="M334.44 395.561c-1.305 7.218-7.679 12.439-15.05 12.439l-85.462.23-.077.538h85.923c7.525 0 13.975-5.452 15.28-12.746L348.492 322h-.768l-13.284 73.561z"/><linearGradient id="SVGID_00000101076990012259659090000005022136265066212515_" gradientUnits="userSpaceOnUse" x1="251.967" y1="-528.18" x2="298.767" y2="-574.981" gradientTransform="matrix(1 0 0 -1 0 -202)"><stop offset="0" style="stop-color:#fff"/><stop offset="1" style="stop-color:#eee"/></linearGradient><path style="opacity:.14;fill-rule:evenodd;clip-rule:evenodd;fill:url(#SVGID_00000101076990012259659090000005022136265066212515_);enable-background:new" d="M248.824 336.282c1.305-7.295 7.028-12.746 15.28-12.746h84.108l.279-1.536h-85.923c-7.525 0-13.975 5.452-15.28 12.746l-13.438 74.022h1.814l13.16-72.486z"/><linearGradient id="SVGID_00000097498607239421543570000003821752531175824782_" gradientUnits="userSpaceOnUse" x1="251.967" y1="-528.18" x2="298.453" y2="-574.666" gradientTransform="matrix(1 0 0 -1 0 -202)"><stop offset="0" style="stop-color:#fff"/><stop offset="1" style="stop-color:#ccc"/></linearGradient><path style="opacity:.22;fill-rule:evenodd;clip-rule:evenodd;fill:url(#SVGID_00000097498607239421543570000003821752531175824782_);enable-background:new" d="M248.056 335.514c1.305-7.295 7.755-12.746 15.28-12.746h85.015l.14-.768h-85.923c-7.525 0-13.975 5.452-15.28 12.746l-13.438 74.022h.908l13.298-73.254z"/></g><g id="butt_x5F_b"><path class="st0" d="M116.944 419.304H31.022c-7.525 0-13.975 5.452-15.28 12.746L2.304 506.072h86.23c7.525 0 13.668-5.452 14.973-12.746l13.437-74.022z"/><linearGradient id="SVGID_00000073690271346689545450000004204950427948040633_" gradientUnits="userSpaceOnUse" x1="57.321" y1="-542.768" x2="57.321" y2="-456" gradientTransform="matrix(1 0 0 -1 0 -39)"><stop offset="0" style="stop-color:#920e0a"/><stop offset="1" style="stop-color:#bd1710"/></linearGradient><path style="fill-rule:evenodd;clip-rule:evenodd;fill:url(#SVGID_00000073690271346689545450000004204950427948040633_)" d="M114.641 417H28.718c-7.525 0-13.975 5.452-15.28 12.746L0 503.768h86.23c7.525 0 13.668-5.452 14.973-12.746L114.641 417z"/><linearGradient id="SVGID_00000055686365792012705140000011343259023266801828_" gradientUnits="userSpaceOnUse" x1="57.321" y1="-705.768" x2="57.321" y2="-619" gradientTransform="matrix(1 0 0 -1 0 -202)"><stop offset="0" style="stop-color:#06133c"/><stop offset="1" style="stop-color:#000"/></linearGradient><path style="opacity:.1;fill-rule:evenodd;clip-rule:evenodd;fill:url(#SVGID_00000055686365792012705140000011343259023266801828_);enable-background:new" d="m112.826 417-13.159 72.486c-1.305 7.295-7.448 12.746-14.973 12.746H.279L0 503.768h86.23c7.525 0 13.668-5.452 14.973-12.746L114.641 417h-1.815z"/><path class="st4" d="M100.589 490.561C99.283 497.779 92.91 503 85.539 503l-85.462.23-.077.538h85.923c7.525 0 13.975-5.452 15.28-12.746L114.641 417h-.768l-13.284 73.561z"/><linearGradient id="SVGID_00000176015730142431399460000015331455122688108189_" gradientUnits="userSpaceOnUse" x1="18.116" y1="-623.181" x2="64.916" y2="-669.981" gradientTransform="matrix(1 0 0 -1 0 -202)"><stop offset="0" style="stop-color:#fff"/><stop offset="1" style="stop-color:#eee"/></linearGradient><path style="opacity:.14;fill-rule:evenodd;clip-rule:evenodd;fill:url(#SVGID_00000176015730142431399460000015331455122688108189_);enable-background:new" d="M14.973 431.282c1.305-7.295 7.028-12.746 15.28-12.746h84.108l.279-1.536H28.718c-7.525 0-13.975 5.452-15.28 12.746L0 503.768h1.814l13.159-72.486z"/><linearGradient id="SVGID_00000005989722035398904940000001382830141311149448_" gradientUnits="userSpaceOnUse" x1="18.116" y1="-623.181" x2="64.602" y2="-669.666" gradientTransform="matrix(1 0 0 -1 0 -202)"><stop offset="0" style="stop-color:#fff"/><stop offset="1" style="stop-color:#ccc"/></linearGradient><path style="opacity:.22;fill-rule:evenodd;clip-rule:evenodd;fill:url(#SVGID_00000005989722035398904940000001382830141311149448_);enable-background:new" d="M14.205 430.514c1.305-7.295 7.755-12.746 15.28-12.746H114.5l.14-.768H28.718c-7.525 0-13.975 5.452-15.28 12.746L0 503.768h.908l13.297-73.254z"/><path id="back" class="st43" fill="#ffffff" d="m26.249 461.466 20.24 16.566 2.149-11.943h24.267c5.986 0 11.255-3.547 13.638-8.803H50.222l2.149-11.943-26.122 16.123z"/></g><g id="numbutt_x5F_0"><path class="st0" d="M225.444 419.304h-85.923c-7.525 0-13.975 5.452-15.28 12.746l-13.438 74.022h86.23c7.525 0 13.668-5.452 14.973-12.746l13.438-74.022z"/><linearGradient id="SVGID_00000179630817264105516900000006062956244250619816_" gradientUnits="userSpaceOnUse" x1="165.821" y1="-542.768" x2="165.821" y2="-456" gradientTransform="matrix(1 0 0 -1 0 -39)"><stop offset="0" style="stop-color:#06133c"/><stop offset="1" style="stop-color:#0b1f60"/></linearGradient><path style="fill-rule:evenodd;clip-rule:evenodd;fill:url(#SVGID_00000179630817264105516900000006062956244250619816_)" d="M223.141 417h-85.923c-7.525 0-13.975 5.452-15.28 12.746L108.5 503.768h86.23c7.525 0 13.668-5.452 14.973-12.746L223.141 417z"/><linearGradient id="SVGID_00000083808533591036843390000003389316997591670688_" gradientUnits="userSpaceOnUse" x1="165.821" y1="-705.768" x2="165.821" y2="-619" gradientTransform="matrix(1 0 0 -1 0 -202)"><stop offset="0" style="stop-color:#06133c"/><stop offset="1" style="stop-color:#000"/></linearGradient><path style="opacity:.1;fill-rule:evenodd;clip-rule:evenodd;fill:url(#SVGID_00000083808533591036843390000003389316997591670688_);enable-background:new" d="m221.326 417-13.159 72.486c-1.305 7.295-7.448 12.746-14.973 12.746h-84.415l-.279 1.536h86.23c7.525 0 13.668-5.452 14.973-12.746L223.141 417h-1.815z"/><path class="st4" d="M209.089 490.561c-1.305 7.218-7.679 12.439-15.05 12.439l-85.462.23-.077.538h85.923c7.525 0 13.975-5.452 15.28-12.746L223.141 417h-.768l-13.284 73.561z"/><linearGradient id="SVGID_00000047034424772723659460000014096773295460027525_" gradientUnits="userSpaceOnUse" x1="126.616" y1="-623.18" x2="173.416" y2="-669.981" gradientTransform="matrix(1 0 0 -1 0 -202)"><stop offset="0" style="stop-color:#fff"/><stop offset="1" style="stop-color:#eee"/></linearGradient><path style="opacity:.14;fill-rule:evenodd;clip-rule:evenodd;fill:url(#SVGID_00000047034424772723659460000014096773295460027525_);enable-background:new" d="M123.473 431.282c1.305-7.295 7.028-12.746 15.28-12.746h84.108l.279-1.536h-85.923c-7.525 0-13.975 5.452-15.28 12.746L108.5 503.768h1.814l13.159-72.486z"/><linearGradient id="SVGID_00000065037382530627381860000003651749079555755198_" gradientUnits="userSpaceOnUse" x1="126.616" y1="-623.18" x2="173.102" y2="-669.666" gradientTransform="matrix(1 0 0 -1 0 -202)"><stop offset="0" style="stop-color:#fff"/><stop offset="1" style="stop-color:#ccc"/></linearGradient><path style="opacity:.22;fill-rule:evenodd;clip-rule:evenodd;fill:url(#SVGID_00000065037382530627381860000003651749079555755198_);enable-background:new" d="M122.705 430.514c1.305-7.295 7.755-12.746 15.28-12.746H223l.14-.768h-85.923c-7.525 0-13.975 5.452-15.28 12.746L108.5 503.768h.908l13.297-73.254z"/></g><g id="inputfield"><path class="st43" d="m175.885 125.572 9.185-50.597c.872-4.87 5.108-8.403 10.074-8.403H393.89l-9.185 50.596c-.872 4.87-5.019 8.404-9.862 8.404H175.885z"/><path d="m393.291 67.072-9.079 50.01c-.828 4.63-4.769 7.99-9.37 7.99H176.484l9.079-50.01c.829-4.63 4.858-7.99 9.582-7.99h198.146m1.198-1H195.144c-5.204 0-9.664 3.77-10.566 8.814l-9.292 51.186h199.557c5.204 0 9.451-3.77 10.354-8.814l9.292-51.186z" style="fill:#9d9d9c"/></g><g id="sumbutt"><g id="fcbutt_x5F_re"><path class="st0" d="m250.274 1.695-10.306 58.448h147.366c5.069 0 9.207-3.672 10.086-8.586l9.052-49.862H250.274z"/><linearGradient id="SVGID_00000122715415547385160990000017872316740137480113_" gradientUnits="userSpaceOnUse" x1="322.582" y1="449.299" x2="322.582" y2="507.747" gradientTransform="matrix(1 0 0 -1 0 507.89)"><stop offset="0" style="stop-color:#06133c"/><stop offset="1" style="stop-color:#0b1f60"/></linearGradient><path style="fill-rule:evenodd;clip-rule:evenodd;fill:url(#SVGID_00000122715415547385160990000017872316740137480113_)" d="m250.548.143-10.306 58.448h145.541c5.069 0 9.207-3.672 10.086-8.586L404.921.143H250.548z"/><path class="st4" d="m404.404.143-8.948 49.552c-.879 4.862-5.172 8.379-10.138 8.379l-144.998.074-.078.444h145.334c5.069 0 9.414-3.672 10.293-8.586L404.921.144l-.517-.001z"/><linearGradient id="SVGID_00000130622754225377684270000016919036688941738907_" gradientUnits="userSpaceOnUse" x1="322.582" y1="449.299" x2="322.582" y2="507.747" gradientTransform="matrix(1 0 0 -1 0 507.89)"><stop offset="0" style="stop-color:#06133c"/><stop offset="1" style="stop-color:#000"/></linearGradient><path style="opacity:.1;fill-rule:evenodd;clip-rule:evenodd;fill:url(#SVGID_00000130622754225377684270000016919036688941738907_);enable-background:new" d="m403.699.143-8.864 48.828c-.879 4.914-5.017 8.586-10.086 8.586H240.425l-.182 1.034h145.541c5.069 0 9.207-3.672 10.086-8.586L404.922.143h-1.223z"/><linearGradient id="SVGID_00000131346949706049902940000000219690102588486066_" gradientUnits="userSpaceOnUse" x1="288.837" y1="546.036" x2="366.447" y2="468.426" gradientTransform="matrix(1 0 0 -1 0 507.89)"><stop offset="0" style="stop-color:#fff"/><stop offset="1" style="stop-color:#eee"/></linearGradient><path style="opacity:.14;fill-rule:evenodd;clip-rule:evenodd;fill:url(#SVGID_00000131346949706049902940000000219690102588486066_);enable-background:new" d="m250.548.143-.182 1.035h154.367l.188-1.035z"/><linearGradient id="SVGID_00000055668390702024647560000009089019214825504655_" gradientUnits="userSpaceOnUse" x1="288.989" y1="546.188" x2="366.387" y2="468.789" gradientTransform="matrix(1 0 0 -1 0 507.89)"><stop offset="0" style="stop-color:#fff"/><stop offset="1" style="stop-color:#ccc"/></linearGradient><path style="opacity:.22;fill-rule:evenodd;clip-rule:evenodd;fill:url(#SVGID_00000055668390702024647560000009089019214825504655_);enable-background:new" d="m250.548.143-.091.518h154.37l.094-.518z"/></g><g id="fcbutt_x5F_li"><path class="st0" d="M242.779 1.695H99.918c-5.069 0-9.414 3.672-10.293 8.586l-9.052 49.862h151.9l10.306-58.448z"/><linearGradient id="SVGID_00000008142068979716264580000015775368216437486753_" gradientUnits="userSpaceOnUse" x1="161.037" y1="449.299" x2="161.037" y2="507.747" gradientTransform="matrix(1 0 0 -1 0 507.89)"><stop offset="0" style="stop-color:#06133c"/><stop offset="1" style="stop-color:#0b1f60"/></linearGradient><path style="fill-rule:evenodd;clip-rule:evenodd;fill:url(#SVGID_00000008142068979716264580000015775368216437486753_)" d="M243.053.143H98.366c-5.069 0-9.414 3.672-10.293 8.586l-9.052 49.862h153.726L243.053.143z"/><linearGradient id="SVGID_00000031928133430184421310000017638760797200647598_" gradientUnits="userSpaceOnUse" x1="155.975" y1="449.298" x2="155.975" y2="450.333" gradientTransform="matrix(1 0 0 -1 0 507.89)"><stop offset="0" style="stop-color:#06133c"/><stop offset="1" style="stop-color:#000"/></linearGradient><path style="opacity:.1;fill-rule:evenodd;clip-rule:evenodd;fill:url(#SVGID_00000031928133430184421310000017638760797200647598_);enable-background:new" d="M232.929 57.557H79.209l-.188 1.035h153.726z"/><path class="st4" d="m232.824 58.152-153.751.078-.052.362h153.726z"/><linearGradient id="SVGID_00000024693471576157535750000007537505396370426772_" gradientUnits="userSpaceOnUse" x1="112.927" y1="526.633" x2="187.858" y2="451.701" gradientTransform="matrix(1 0 0 -1 0 507.89)"><stop offset="0" style="stop-color:#fff"/><stop offset="1" style="stop-color:#eee"/></linearGradient><path style="opacity:.14;fill-rule:evenodd;clip-rule:evenodd;fill:url(#SVGID_00000024693471576157535750000007537505396370426772_);enable-background:new" d="M243.053.143H98.366c-5.069 0-9.414 3.672-10.293 8.586l-9.052 49.862h1.222l8.864-48.828c.879-4.914 4.734-8.586 10.293-8.586h143.47l.183-1.034z"/><linearGradient id="SVGID_00000001638206599665045880000000896686843070318992_" gradientUnits="userSpaceOnUse" x1="112.927" y1="526.633" x2="187.646" y2="451.914" gradientTransform="matrix(1 0 0 -1 0 507.89)"><stop offset="0" style="stop-color:#fff"/><stop offset="1" style="stop-color:#ccc"/></linearGradient><path style="opacity:.22;fill-rule:evenodd;clip-rule:evenodd;fill:url(#SVGID_00000001638206599665045880000000896686843070318992_);enable-background:new" d="M243.053.143H98.366c-5.069 0-9.414 3.672-10.293 8.586l-9.052 49.862h.611L88.59 9.247C89.469 4.333 93.814.661 98.883.661h144.078l.092-.518z"/></g><g id="fcbutt_x5F_divider"><path style="opacity:.7;enable-background:new" d="M249.366 1H241.8l-10.404 59h8.567l10.403-59z"/><linearGradient id="SVGID_00000135664192306663500020000015632957328971960744_" gradientUnits="userSpaceOnUse" x1="241.547" y1="448.89" x2="241.547" y2="507.89" gradientTransform="matrix(1 0 0 -1 0 507.89)"><stop offset="0" style="stop-color:#0b1f60"/><stop offset="1" style="stop-color:#1f2c6c"/></linearGradient><path style="fill:url(#SVGID_00000135664192306663500020000015632957328971960744_)" d="m240.128 59 10.403-59h-7.566l-10.403 59z"/><path d="m249.531 0-10.403 59h1l10.403-59z"/><path class="st61" d="m241.965 0-10.403 59h1l10.403-59z"/><path class="st61" d="m250.355 1 .176-1h-7.566l-.176 1z"/></g></g><g id="numbers"><path id="_x31_" class="st49" d="M108.376 167.856h-.08l-4.763 3.017c-.238.159-.476.04-.396-.278l.793-4.644a.775.775 0 0 1 .357-.556l5.041-3.294c.278-.159.476-.238.714-.238h4.286c.238 0 .397.159.357.397l-4.644 26.194c-.04.238-.199.397-.437.397h-4.525c-.238 0-.396-.159-.357-.397l3.654-20.598z"/><path id="_x32_" class="st49" d="M207.342 184.961c.08-.238.159-.437.357-.635l11.073-11.351c1.587-1.667 2.342-2.977 2.342-4.604 0-1.469-.873-2.461-2.421-2.461-1.786 0-3.136 1.191-3.731 3.294-.079.238-.238.357-.476.317l-4.048-.714c-.198-.04-.278-.198-.198-.437.913-3.691 4.008-6.945 9.208-6.945 4.366 0 7.065 2.619 7.065 6.191 0 3.056-1.35 5.437-3.89 8.017l-8.454 8.573v.08h9.089c.238 0 .397.159.357.396l-.674 3.771c-.04.238-.199.397-.437.397h-15.439c-.238 0-.397-.159-.357-.397l.634-3.492z"/><path id="_x33_" class="st49" d="m315.675 182.62 4.207-.794c.238-.04.396.08.396.317.199 1.469 1.072 2.659 2.978 2.659 2.302 0 3.969-2.063 3.969-4.604 0-1.905-1.111-3.017-3.057-3.017h-1.071c-.238 0-.357-.159-.317-.397l.635-3.651a.472.472 0 0 1 .477-.397h.992c2.342 0 3.929-1.945 3.929-4.326 0-1.508-.873-2.5-2.421-2.5-1.706 0-2.817 1.072-3.492 2.62-.08.238-.278.317-.477.278l-4.048-.794c-.198-.04-.278-.198-.198-.437 1.229-3.493 4.604-6.151 9.207-6.151 4.445 0 6.866 2.421 6.866 5.874 0 2.977-1.429 5.676-4.088 7.144v.079c1.23.675 2.461 2.302 2.461 4.882 0 5.874-4.247 9.882-9.922 9.882-4.485 0-7.422-2.342-7.462-6.151-.001-.238.159-.437.436-.516z"/><path id="_x34_" class="st49" d="m81.602 278.46.675-3.77c.04-.199.119-.357.278-.596l10.755-17.82c.159-.198.318-.317.635-.317h4.723c.238 0 .357.159.199.397l-10.676 17.859v.08h4.604c.159 0 .278-.08.317-.238l1.072-5.914c.04-.238.198-.397.437-.397h4.405c.238 0 .357.159.317.397l-1.032 5.914c-.04.159 0 .238.159.238h1.667c.238 0 .397.159.357.397l-.674 3.77c-.04.238-.199.397-.437.397h-1.707c-.159 0-.238.08-.278.238l-.595 3.453c-.04.238-.198.397-.437.397h-4.405c-.238 0-.397-.159-.357-.397l.596-3.453c.04-.159-.04-.238-.199-.238H81.92c-.238 0-.357-.159-.318-.397z"/><path id="_x35_" class="st49" d="m191.404 276.952 4.247-.754c.198-.04.357.08.396.317.159 1.35.913 2.381 2.62 2.381 1.31 0 2.5-.674 3.096-1.984.595-1.19 1.032-3.651 1.032-4.842 0-1.707-.833-2.62-2.5-2.62-1.389 0-2.461.833-2.937 1.707-.119.278-.278.397-.556.397h-4.048c-.238 0-.317-.119-.278-.397l2.62-14.803c.04-.238.159-.397.397-.397h14.486c.238 0 .397.159.357.397l-.675 3.77a.472.472 0 0 1-.476.397h-9.962c-.159 0-.238.08-.278.238l-.992 5.636h.08c.793-.714 2.262-1.389 4.247-1.389 3.691 0 5.834 1.865 5.834 5.794 0 2.064-.595 5.755-1.627 7.858-1.587 3.254-4.445 4.723-8.414 4.723-4.445 0-7.025-2.46-6.985-5.993-.002-.198.117-.396.316-.436z"/><path id="_x36_" class="st49" d="m301.84 268.221 8.414-11.986c.159-.238.238-.278.516-.278h4.803c.277 0 .357.159.198.397l-7.303 10.557.08.04c.277-.159.992-.278 1.706-.278 3.572 0 6.151 2.381 6.151 6.31 0 5.874-4.206 10.398-10.318 10.398-4.405 0-7.382-2.54-7.382-6.707 0-2.778.952-5.318 3.135-8.453zm5.001 10.675c2.421 0 4.286-2.183 4.286-4.842 0-1.826-1.111-3.016-2.897-3.016-2.46 0-4.286 2.183-4.286 4.842-.001 1.786 1.072 3.016 2.897 3.016z"/><path id="_x37_" class="st49" d="M78.515 355.773v-.079h-5.517c-.159 0-.238.079-.278.238l-.556 2.857c-.04.238-.198.396-.437.396h-4.245c-.238 0-.317-.158-.278-.396l1.31-7.342c.04-.238.199-.397.437-.397h15.558c.238 0 .357.159.317.397l-.675 3.85c-.04.198-.119.396-.238.675l-12.065 21.709c-.159.277-.317.357-.635.357h-4.644c-.238 0-.357-.159-.238-.437l12.184-21.828z"/><path id="_x38_" class="st49" d="m178.125 363.949.04-.079c-.873-.754-1.667-2.223-1.667-4.088 0-4.524 3.493-9.168 9.565-9.168 4.604 0 7.064 2.818 7.064 6.351 0 2.738-1.349 5.278-3.651 6.905l-.04.079c1.19.953 2.223 2.58 2.223 4.803 0 5.318-4.287 9.724-10.279 9.724-4.564 0-7.62-2.54-7.62-6.589-.001-3.096 1.547-6.191 4.365-7.938zm3.929 10.041c2.421 0 4.326-2.104 4.326-4.762 0-1.826-1.111-3.057-2.977-3.057-2.46 0-4.366 2.104-4.366 4.763 0 1.826 1.151 3.056 3.017 3.056zm5.834-16.312c0-1.469-.873-2.58-2.5-2.58-2.063 0-3.73 1.826-3.73 4.049 0 1.469.913 2.579 2.5 2.579 2.063 0 3.73-1.825 3.73-4.048z"/><path id="_x39_" class="st49" d="m291.577 367.084-.039-.04c-.278.159-.913.278-1.667.278-3.651 0-6.152-2.699-6.152-6.549 0-5.477 4.009-10.16 10.319-10.16 4.405 0 7.422 2.54 7.422 6.707 0 2.739-1.111 5.397-3.215 8.414l-8.374 12.025c-.119.198-.238.278-.517.278h-4.802c-.278 0-.357-.198-.198-.397l7.223-10.556zm4.644-8.89c0-1.865-1.071-3.096-2.897-3.096-2.54 0-4.286 2.263-4.286 4.803 0 1.825 1.071 3.056 2.897 3.056 2.54 0 4.286-2.262 4.286-4.763z"/><path id="_x30_" class="st49" d="M159.754 451.104c1.747-3.572 4.723-5.278 8.652-5.278 4.207 0 7.064 2.302 7.064 6.509 0 2.659-1.746 13.454-3.016 16.073-1.746 3.572-4.763 5.278-8.652 5.278-4.207 0-7.064-2.302-7.064-6.509 0-2.659 1.746-13.454 3.016-16.073zm4.684 18.098c1.35 0 2.381-.715 2.937-1.905.833-1.627 2.739-12.462 2.739-14.525 0-1.429-.794-2.461-2.342-2.461-1.35 0-2.381.714-2.937 1.905-.833 1.627-2.738 12.462-2.738 14.525-.001 1.428.793 2.461 2.341 2.461z"/></g><g id="butt_x5F_b_00000011751720698885209040000013794321890742912923_"><path class="st0" d="M333.944 419.304h-85.922c-7.525 0-13.975 5.452-15.28 12.746l-13.438 74.022h86.23c7.525 0 13.668-5.452 14.973-12.746l13.437-74.022z"/><linearGradient id="SVGID_00000000923985089349972970000001684879407067421115_" gradientUnits="userSpaceOnUse" x1="274.32" y1="-542.768" x2="274.32" y2="-456" gradientTransform="matrix(1 0 0 -1 0 -39)"><stop offset="0" style="stop-color:#920e0a"/><stop offset="1" style="stop-color:#bd1710"/></linearGradient><path style="fill-rule:evenodd;clip-rule:evenodd;fill:url(#SVGID_00000000923985089349972970000001684879407067421115_)" d="M331.641 417h-85.923c-7.525 0-13.975 5.452-15.28 12.746L217 503.768h86.23c7.525 0 13.668-5.452 14.973-12.746L331.641 417z"/><linearGradient id="SVGID_00000037687319812040090870000003895824583874428805_" gradientUnits="userSpaceOnUse" x1="274.32" y1="-705.768" x2="274.32" y2="-619" gradientTransform="matrix(1 0 0 -1 0 -202)"><stop offset="0" style="stop-color:#06133c"/><stop offset="1" style="stop-color:#000"/></linearGradient><path style="opacity:.1;fill-rule:evenodd;clip-rule:evenodd;fill:url(#SVGID_00000037687319812040090870000003895824583874428805_);enable-background:new" d="m329.826 417-13.159 72.486c-1.305 7.295-7.448 12.746-14.973 12.746h-84.415l-.279 1.536h86.23c7.525 0 13.668-5.452 14.973-12.746L331.641 417h-1.815z"/><path class="st4" d="M317.589 490.561c-1.306 7.218-7.679 12.439-15.05 12.439l-85.462.23-.077.538h85.923c7.525 0 13.975-5.452 15.28-12.746L331.641 417h-.768l-13.284 73.561z"/><linearGradient id="SVGID_00000129180804575332085140000018151667655864147345_" gradientUnits="userSpaceOnUse" x1="235.117" y1="-623.181" x2="281.916" y2="-669.981" gradientTransform="matrix(1 0 0 -1 0 -202)"><stop offset="0" style="stop-color:#fff"/><stop offset="1" style="stop-color:#eee"/></linearGradient><path style="opacity:.14;fill-rule:evenodd;clip-rule:evenodd;fill:url(#SVGID_00000129180804575332085140000018151667655864147345_);enable-background:new" d="M231.973 431.282c1.305-7.295 7.028-12.746 15.28-12.746h84.108l.279-1.536h-85.922c-7.525 0-13.975 5.452-15.28 12.746L217 503.768h1.814l13.159-72.486z"/><linearGradient id="SVGID_00000074416036974009710640000011042670548121058433_" gradientUnits="userSpaceOnUse" x1="235.117" y1="-623.181" x2="281.602" y2="-669.666" gradientTransform="matrix(1 0 0 -1 0 -202)"><stop offset="0" style="stop-color:#fff"/><stop offset="1" style="stop-color:#ccc"/></linearGradient><path style="opacity:.22;fill-rule:evenodd;clip-rule:evenodd;fill:url(#SVGID_00000074416036974009710640000011042670548121058433_);enable-background:new" d="M231.205 430.514c1.305-7.295 7.755-12.746 15.28-12.746H331.5l.14-.768h-85.922c-7.525 0-13.975 5.452-15.28 12.746L217 503.768h.908l13.297-73.254z"/><path id="c_1_" class="st49" fill="#ffffff" d="M266.265 453.375c2.229-4.459 5.738-6.481 10.651-6.481 4.459 0 7.348 2.353 8.258 6.233.041.248-.042.413-.289.537l-4.376 1.816c-.248.124-.454 0-.537-.248-.454-1.816-1.445-3.178-3.715-3.178-2.229 0-3.757 1.238-4.706 3.302-.991 2.023-2.229 9.372-2.229 11.436 0 2.395 1.321 3.922 3.715 3.922 2.064 0 3.674-1.404 4.747-3.22.165-.248.372-.33.619-.206l3.922 2.105c.207.082.248.289.124.537-2.559 4.169-5.779 5.944-10.28 5.944-5.16 0-8.711-2.972-8.711-8.587 0-2.518 1.321-10.857 2.807-13.912z"/></g></g></svg>