<svg version="1.1" id="Ebene_1" xmlns="http://www.w3.org/2000/svg" xmlns:xlink="http://www.w3.org/1999/xlink" x="0" y="0" viewBox="0 0 330 191" style="enable-background:new 0 0 330 191" xml:space="preserve"><style>.st1{clip-path:url(#SVGID_00000129903681559542479530000014806988449677255848_)}.st2{fill:url(#SVGID_00000083065358697569770330000013646647791478478497_)}.st2,.st3,.st5{fill-rule:evenodd;clip-rule:evenodd}.st3{opacity:.1;fill:url(#SVGID_00000061448474378694075960000014869612447299501231_);enable-background:new}.st5{opacity:.14;fill:url(#SVGID_00000042722726811048302800000006253887089948206740_)}.st5,.st6,.st7,.st8,.st9{clip-path:url(#SVGID_00000129903681559542479530000014806988449677255848_);enable-background:new}.st6{opacity:.22;fill-rule:evenodd;clip-rule:evenodd;fill:url(#SVGID_00000007423574920476800770000017662642188220361347_)}.st7,.st8,.st9{opacity:.49}.st8,.st9{opacity:.22;fill:url(#SVGID_00000172439979347936351590000010290921602320673182_)}.st9{opacity:.14;fill:url(#SVGID_00000120546245691137866540000016140032092147307947_)}</style><filter id="blur"><feGaussianBlur stdDeviation="3"/></filter><path d="M3 176h268.5c14.8 0 27.4-10.6 30-25.2L328 3H59.5c-14.8 0-27.4 10.6-30 25.2L3 176z" style="opacity:.7;fill-rule:evenodd;clip-rule:evenodd;enable-background:new;filter:url(#blur)"/><defs><path id="SVGID_1_" d="M0 0v110h325v2H0v79h330V0z"/></defs><clipPath id="SVGID_00000103954755279711231860000014295087303047796388_"><use xlink:href="#SVGID_1_" style="overflow:visible"/></clipPath><g style="clip-path:url(#SVGID_00000103954755279711231860000014295087303047796388_)"><linearGradient id="SVGID_00000122721171348694998340000015388282162569161634_" gradientUnits="userSpaceOnUse" x1="162.5" y1="-21.945" x2="162.5" y2="-194.945" gradientTransform="translate(0 194.945)"><stop offset="0" style="stop-color:#031746"/><stop offset="1" style="stop-color:#06276c"/></linearGradient><path style="fill-rule:evenodd;clip-rule:evenodd;fill:url(#SVGID_00000122721171348694998340000015388282162569161634_)" d="M0 173h268.5c14.8 0 27.4-10.6 30-25.2L325 0H56.5c-14.8 0-27.4 10.6-30 25.2L0 173z"/><linearGradient id="SVGID_00000137110659051035740470000009985572209539271316_" gradientUnits="userSpaceOnUse" x1="162.5" y1="100.055" x2="162.5" y2="-72.945" gradientTransform="translate(0 72.945)"><stop offset="0" style="stop-color:#06133c"/><stop offset="1" style="stop-color:#000"/></linearGradient><path style="opacity:.1;fill-rule:evenodd;clip-rule:evenodd;fill:url(#SVGID_00000137110659051035740470000009985572209539271316_);enable-background:new" d="M322.641 0 296.5 145.8c-2.6 14.6-15.2 25.2-30 25.2H.359L0 173h268.5c14.8 0 27.4-10.6 30-25.2L325 0h-2.359z"/><path d="M323.821 0 297.5 146.8c-2.6 14.6-15.2 25.2-30 25.2H.179L0 173h268.5c14.8 0 27.4-10.6 30-25.2L325 0h-1.179z" style="opacity:.49;fill-rule:evenodd;clip-rule:evenodd;enable-background:new"/></g><linearGradient id="SVGID_00000010297265698028939960000016652873077527139259_" gradientUnits="userSpaceOnUse" x1="32.361" y1="-61.581" x2="247.516" y2="62.639" gradientTransform="translate(0 72.945)"><stop offset="0" style="stop-color:#fff"/><stop offset="1" style="stop-color:#eee"/></linearGradient><path style="opacity:.14;clip-path:url(#SVGID_00000103954755279711231860000014295087303047796388_);fill-rule:evenodd;clip-rule:evenodd;fill:url(#SVGID_00000010297265698028939960000016652873077527139259_);enable-background:new" d="M28.5 27.2C31.1 12.6 43.7 2 58.5 2h266.141L325 0H56.5c-14.8 0-27.4 10.6-30 25.2L0 173h2.359L28.5 27.2z"/><linearGradient id="SVGID_00000121269725229097666370000010924299651975235258_" gradientUnits="userSpaceOnUse" x1="32.361" y1="-61.581" x2="247.218" y2="62.467" gradientTransform="translate(0 72.945)"><stop offset="0" style="stop-color:#fff"/><stop offset="1" style="stop-color:#ccc"/></linearGradient><path style="opacity:.22;clip-path:url(#SVGID_00000103954755279711231860000014295087303047796388_);fill-rule:evenodd;clip-rule:evenodd;fill:url(#SVGID_00000121269725229097666370000010924299651975235258_);enable-background:new" d="M27.5 26.2C30.1 11.6 42.7 1 57.5 1h267.321L325 0H56.5c-14.8 0-27.4 10.6-30 25.2L0 173h1.179L27.5 26.2z"/><path style="opacity:.49;clip-path:url(#SVGID_00000103954755279711231860000014295087303047796388_);enable-background:new" d="M305.128 108.757H11.518L11.296 110h293.832z"/><linearGradient id="SVGID_00000183238708984715253780000018152949810282280071_" gradientUnits="userSpaceOnUse" x1="10.713" y1="112.621" x2="304.96" y2="112.621"><stop offset="0" style="stop-color:#fff"/><stop offset="1" style="stop-color:#ccc"/></linearGradient><path style="opacity:.22;clip-path:url(#SVGID_00000103954755279711231860000014295087303047796388_);fill:url(#SVGID_00000183238708984715253780000018152949810282280071_);enable-background:new" d="M304.96 112H10.941l-.228 1.243h293.992z"/><linearGradient id="SVGID_00000042714740895223728400000004528910030068185495_" gradientUnits="userSpaceOnUse" x1="11.662" y1="113.864" x2="304.705" y2="113.864"><stop offset="0" style="stop-color:#fff"/><stop offset="1" style="stop-color:#eee"/></linearGradient><path style="opacity:.14;clip-path:url(#SVGID_00000103954755279711231860000014295087303047796388_);fill:url(#SVGID_00000042714740895223728400000004528910030068185495_);enable-background:new" d="M304.705 113.243H11.879l-.217 1.243h292.811z"/></svg>