<svg xmlns="http://www.w3.org/2000/svg" width="73" height="53" style="enable-background:new 0 0 73 53" xml:space="preserve"><path d="M21.867 0c-7.53 0-13.99 5.5-15.32 13.05L.007 53h51.14c7.53 0 13.99-5.5 15.32-13.05L73.007 0h-51.14zm29.42 13.58L40.967 26l6.35 13.42c.11.28 0 .56-.45.56h-6.56v-.01c-.39 0-.61-.17-.78-.5l-3.4-7.52h-.06l-6.01 7.52c-.33.33-.56.5-.95.5h-7.07c-.39 0-.5-.28-.33-.56l11.3-13.52-5.9-12.31c-.11-.28 0-.56.45-.56h6.63c.39 0 .61.06.78.45l2.9 6.57h.06l5.23-6.57c.33-.33.56-.45.89-.45h6.96c.39 0 .5.28.28.56z" style="fill-rule:evenodd;clip-rule:evenodd"/></svg>