<svg version="1.1" id="Ebene_1" xmlns="http://www.w3.org/2000/svg" x="0" y="0" viewBox="0 0 177 100" style="enable-background:new 0 0 177 100" xml:space="preserve"><style>.st3,.st5,.st6{opacity:.1;fill-rule:evenodd;clip-rule:evenodd;fill:url(#SVGID_00000150060047428050866000000007057942224477326230_);enable-background:new}.st5,.st6{opacity:.14;fill:url(#SVGID_00000140015471765823608410000010341550120291075489_)}.st6{opacity:.22;fill:url(#SVGID_00000173124271271727445220000007809877861290546342_)}</style><filter id="blur"><feGaussianBlur stdDeviation="2"/></filter><g id="_x31_23"><g style="filter:url(#blur)"><path d="M175.143 2.548H34.314c-8.324 0-15.459 6.031-16.902 14.1L2.548 98.527h141.168c8.324 0 15.119-6.031 16.563-14.1l14.864-81.879z" style="opacity:.7;fill-rule:evenodd;clip-rule:evenodd;enable-background:new"/></g><linearGradient id="SVGID_1_" gradientUnits="userSpaceOnUse" x1="86.297" y1="642.869" x2="86.297" y2="546.89" gradientTransform="translate(0 -546.89)"><stop offset="0" style="stop-color:#06133c"/><stop offset="1" style="stop-color:#0b1f60"/></linearGradient><path d="M172.595 0H31.766c-8.324 0-15.459 6.031-16.902 14.1L0 95.979h141.168c8.324 0 15.119-6.031 16.563-14.1L172.595 0z" style="fill-rule:evenodd;clip-rule:evenodd;fill:url(#SVGID_1_)"/><linearGradient id="SVGID_00000080177318719857233060000012761542579816024238_" gradientUnits="userSpaceOnUse" x1="86.297" y1="805.869" x2="86.297" y2="709.89" gradientTransform="translate(0 -709.89)"><stop offset="0" style="stop-color:#06133c"/><stop offset="1" style="stop-color:#000"/></linearGradient><path style="opacity:.1;fill-rule:evenodd;clip-rule:evenodd;fill:url(#SVGID_00000080177318719857233060000012761542579816024238_);enable-background:new" d="m170.588 0-14.556 80.18c-1.444 8.069-8.239 14.1-16.563 14.1H.308L0 95.979h141.168c8.324 0 15.119-6.031 16.563-14.1L172.595 0h-2.007z"/><path d="M157.052 81.369c-1.444 7.984-8.494 13.76-16.648 13.76L.085 95.384 0 95.979h140.829c8.324 0 15.459-6.031 16.902-14.1L172.595 0h-.849l-14.694 81.369z" style="opacity:.49;fill-rule:evenodd;clip-rule:evenodd;enable-background:new"/><linearGradient id="SVGID_00000088817630821297535910000001379284943335176114_" gradientUnits="userSpaceOnUse" x1="31.486" y1="703.068" x2="106.147" y2="777.729" gradientTransform="translate(0 -709.89)"><stop offset="0" style="stop-color:#fff"/><stop offset="1" style="stop-color:#eee"/></linearGradient><path style="opacity:.14;fill-rule:evenodd;clip-rule:evenodd;fill:url(#SVGID_00000088817630821297535910000001379284943335176114_);enable-background:new" d="M16.563 15.798c1.444-8.069 7.774-14.1 16.902-14.1h138.822L172.595 0H31.766c-8.324 0-15.459 6.031-16.902 14.1L0 95.979h2.007l14.556-80.181z"/><linearGradient id="SVGID_00000102536066331067741270000001758395892796109209_" gradientUnits="userSpaceOnUse" x1="31.486" y1="703.068" x2="105.799" y2="777.381" gradientTransform="translate(0 -709.89)"><stop offset="0" style="stop-color:#fff"/><stop offset="1" style="stop-color:#ccc"/></linearGradient><path style="opacity:.22;fill-rule:evenodd;clip-rule:evenodd;fill:url(#SVGID_00000102536066331067741270000001758395892796109209_);enable-background:new" d="M15.713 14.949C17.157 6.88 24.292.849 32.615.849H172.44l.155-.849H31.766c-8.324 0-15.459 6.031-16.902 14.1L0 95.979h1.004l14.709-81.03z"/></g></svg>