<svg version="1.1" id="Ebene_1" xmlns="http://www.w3.org/2000/svg" x="0" y="0" viewBox="0 0 138 100" style="enable-background:new 0 0 138 100" xml:space="preserve"><style>.st3,.st5,.st6{opacity:.1;fill-rule:evenodd;clip-rule:evenodd;fill:url(#SVGID_00000050622240501306996170000013760119081485410696_);enable-background:new}.st5,.st6{opacity:.14;fill:url(#SVGID_00000076604444433490339920000018093300849631340985_)}.st6{opacity:.22;fill:url(#SVGID_00000009571855595346804120000002196270214501000101_)}</style><filter id="blur"><feGaussianBlur stdDeviation="2"/></filter><g id="_x31_2"><g style="filter:url(#blur)"><path d="M136.358 2.548H34.314c-8.324 0-15.459 6.031-16.902 14.1L2.548 98.527h102.383c8.324 0 15.119-6.031 16.563-14.1l14.864-81.879z" style="opacity:.7;fill-rule:evenodd;clip-rule:evenodd;enable-background:new"/></g><linearGradient id="SVGID_1_" gradientUnits="userSpaceOnUse" x1="66.905" y1="642.869" x2="66.905" y2="546.89" gradientTransform="translate(0 -546.89)"><stop offset="0" style="stop-color:#06133c"/><stop offset="1" style="stop-color:#0b1f60"/></linearGradient><path d="M133.81 0H31.766c-8.324 0-15.459 6.031-16.902 14.1L0 95.979h102.383c8.324 0 15.119-6.031 16.563-14.1L133.81 0z" style="fill-rule:evenodd;clip-rule:evenodd;fill:url(#SVGID_1_)"/><linearGradient id="SVGID_00000144316815645202706290000003679247419007757699_" gradientUnits="userSpaceOnUse" x1="66.905" y1="805.869" x2="66.905" y2="709.89" gradientTransform="translate(0 -709.89)"><stop offset="0" style="stop-color:#06133c"/><stop offset="1" style="stop-color:#000"/></linearGradient><path style="opacity:.1;fill-rule:evenodd;clip-rule:evenodd;fill:url(#SVGID_00000144316815645202706290000003679247419007757699_);enable-background:new" d="m131.803 0-14.556 80.18c-1.444 8.069-8.239 14.1-16.563 14.1H.308L0 95.979h102.383c8.324 0 15.119-6.031 16.563-14.1L133.81 0h-2.007z"/><path d="M118.266 81.369c-1.444 7.984-8.494 13.76-16.648 13.76L.085 95.384 0 95.979h102.043c8.324 0 15.459-6.031 16.902-14.1L133.81 0h-.849l-14.695 81.369z" style="opacity:.49;fill-rule:evenodd;clip-rule:evenodd;enable-background:new"/><linearGradient id="SVGID_00000147218176821934610730000014933743509040842639_" gradientUnits="userSpaceOnUse" x1="21.79" y1="712.764" x2="77.058" y2="768.032" gradientTransform="translate(0 -709.89)"><stop offset="0" style="stop-color:#fff"/><stop offset="1" style="stop-color:#eee"/></linearGradient><path style="opacity:.14;fill-rule:evenodd;clip-rule:evenodd;fill:url(#SVGID_00000147218176821934610730000014933743509040842639_);enable-background:new" d="M16.563 15.798c1.444-8.069 7.774-14.1 16.902-14.1h100.036L133.81 0H31.766c-8.324 0-15.459 6.031-16.902 14.1L0 95.979h2.007l14.556-80.181z"/><linearGradient id="SVGID_00000016762709532779037150000010367393243885086863_" gradientUnits="userSpaceOnUse" x1="21.79" y1="712.764" x2="76.71" y2="767.684" gradientTransform="translate(0 -709.89)"><stop offset="0" style="stop-color:#fff"/><stop offset="1" style="stop-color:#ccc"/></linearGradient><path style="opacity:.22;fill-rule:evenodd;clip-rule:evenodd;fill:url(#SVGID_00000016762709532779037150000010367393243885086863_);enable-background:new" d="M15.713 14.949C17.157 6.88 24.292.849 32.615.849h101.039L133.81 0H31.766c-8.324 0-15.459 6.031-16.902 14.1L0 95.979h1.004l14.709-81.03z"/></g></svg>