<svg xmlns="http://www.w3.org/2000/svg" width="330" height="131" style="enable-background:new 0 0 330 131" xml:space="preserve"><filter id="a"><feGaussianBlur stdDeviation="3"/></filter><g style="filter:url(#a)"><path d="M315 3H40.4c-9.8 0-18.2 7.1-19.9 16.6L3 116h275c9.8 0 17.8-7.1 19.5-16.6L315 3z" style="opacity:.7;fill-rule:evenodd;clip-rule:evenodd"/></g><linearGradient id="b" gradientUnits="userSpaceOnUse" x1="156" y1="311" x2="156" y2="198" gradientTransform="translate(0 -198)"><stop offset="0" style="stop-color:#06133c"/><stop offset="1" style="stop-color:#0b1f60"/></linearGradient><path d="M312 0H37.4c-9.8 0-18.2 7.1-19.9 16.6L0 113h275c9.8 0 17.8-7.1 19.5-16.6L312 0z" style="fill-rule:evenodd;clip-rule:evenodd;fill:url(#b)"/><path d="M293.7 95.8c-1.7 9.4-10 16.2-19.6 16.2l-274 .3-.1.7h274.6c9.8 0 18.2-7.1 19.9-16.6L312 0h-1l-17.3 95.8z" style="opacity:.49;fill-rule:evenodd;clip-rule:evenodd;enable-background:new"/><path d="M18.3 17.2C20 7.8 28.3.9 37.9.9L311.8.7l.2-.7H37.4c-9.8 0-18.2 7.1-19.9 16.6L0 113h1l17.3-95.8z" style="opacity:.28;fill-rule:evenodd;clip-rule:evenodd;fill:#fff;enable-background:new"/><path d="m311.6.7-17.3 94.7c-1.7 9.5-9.7 16.9-19.5 16.9l-273.7.3-1.1.4h274.8c9.9 0 18.1-7.3 19.9-16.9L312 0l-.4.7z" style="opacity:.38;fill-rule:evenodd;clip-rule:evenodd;fill:#029ad0;enable-background:new"/></svg>