<?xml version="1.0" encoding="utf-8"?>
<!-- Generator: Adobe Illustrator 24.1.1, SVG Export Plug-In . SVG Version: 6.00 Build 0)  -->
<svg version="1.1" id="Ebene_1" xmlns="http://www.w3.org/2000/svg" xmlns:xlink="http://www.w3.org/1999/xlink" x="0px" y="0px"
	 viewBox="0 0 156 113" style="enable-background:new 0 0 156 113;" xml:space="preserve">
<style type="text/css">
	.st0{fill:#FFFFFF;}
</style>
<g id="R_x2F_2">
	<g>
		<path class="st0" d="M70.8,59l-4-13.5c4.8-1.8,8-6,8-11.6c0-5-3.6-8.4-9.8-8.4l-13.2,0c-0.3,0-0.5,0.2-0.6,0.5l-5.9,33.1
			c-0.1,0.3,0.2,0.5,0.5,0.5l6.2,0c0.3,0,0.5-0.2,0.5-0.5l2.2-12.3c0-0.2,0.2-0.3,0.4-0.3l5,0l3.6,12.6c0.1,0.4,0.3,0.5,0.7,0.5
			l6.1,0C70.7,59.6,70.9,59.3,70.8,59z M62,40.5l-5.9,0c-0.2,0-0.3-0.1-0.3-0.3l1.5-8.2c0.1-0.2,0.2-0.3,0.4-0.3l5.9,0
			c2.4,0,3.9,1.2,3.9,3.4C67.5,38.5,65,40.4,62,40.5z M94.8,32.9l-3.5,0c-0.5,0-0.8,0.2-1,0.7L67.7,79.2c-0.2,0.4-0.1,0.7,0.3,0.7
			l3.5,0c0.4,0,0.8-0.2,1-0.7l22.6-45.6C95.4,33.2,95.2,32.9,94.8,32.9z M106.6,81.7l-11.7,0l0-0.1l10.9-10.9c3.3-3.3,5-6.3,5-10.1
			c0-4.5-3.5-7.8-9.1-7.8c-6.7,0-10.7,4.1-11.9,8.8c-0.1,0.3,0,0.5,0.3,0.6l5.2,0.9c0.3,0,0.5-0.1,0.6-0.4c0.8-2.7,2.5-4.2,4.8-4.2
			c2,0,3.1,1.2,3.1,3.1c0,2.1-1,3.7-3,5.8L86.5,81.7c-0.3,0.3-0.4,0.5-0.5,0.8L85.2,87c-0.1,0.3,0.2,0.5,0.5,0.5l19.9,0
			c0.3,0,0.5-0.2,0.6-0.5l0.9-4.8C107.1,81.9,106.9,81.7,106.6,81.7z"/>
	</g>
</g>
</svg>
