<?xml version="1.0" encoding="utf-8"?>
<!-- Generator: Adobe Illustrator 24.2.0, SVG Export Plug-In . SVG Version: 6.00 Build 0)  -->
<svg version="1.1" id="Ebene_1" xmlns="http://www.w3.org/2000/svg" xmlns:xlink="http://www.w3.org/1999/xlink" x="0px" y="0px"
	 width="1624px" height="819px" viewBox="0 0 1624 819" style="enable-background:new 0 0 1624 819;" xml:space="preserve">
<style type="text/css">
	.st0{opacity:0.7;fill-rule:evenodd;clip-rule:evenodd;fill:#737f8f;enable-background:new    ;}
	.st1{display:none;opacity:0.6;fill-rule:evenodd;clip-rule:evenodd;fill:#03163D;enable-background:new    ;}
	.st2{opacity:0.15;fill-rule:evenodd;clip-rule:evenodd;fill:url(#SVGID_1_);enable-background:new    ;}
	.st3{fill-rule:evenodd;clip-rule:evenodd;fill:#D4C300;}
</style>
<path class="st0" d="M1624,0H0v804h1454.31c14.8,0,27.4-10.6,30.1-25.2L1624,0z"/>
<path class="st1" d="M1485.31,755.8L1620.9,0H779v781h676.31C1470.01,781,1482.71,770.4,1485.31,755.8z"/>
<linearGradient id="SVGID_1_" gradientUnits="userSpaceOnUse" x1="810.45" y1="238" x2="810.45" y2="-543" gradientTransform="matrix(1 0 0 -1 0 238)">
	<stop  offset="0.876" style="stop-color:#000000"/>
	<stop  offset="1" style="stop-color:#000000"/>
</linearGradient>
<path class="st2" d="M1485.31,755.8L1620.9,0H0v781h1455.31C1470.01,781,1482.71,770.4,1485.31,755.8z"/>
<path class="st3" d="M0,706.97h1494.02l-8.8,49.09c-2.47,13.72-13.89,23.9-27.58,24.95H0V706.97z"/>
</svg>
