<?xml version="1.0" encoding="utf-8"?>
<!-- Generator: Adobe Illustrator 24.3.0, SVG Export Plug-In . SVG Version: 6.00 Build 0)  -->
<svg version="1.1" id="Ebene_1" xmlns="http://www.w3.org/2000/svg" xmlns:xlink="http://www.w3.org/1999/xlink" x="0px" y="0px"
	 width="174px" height="131px" viewBox="0 0 174 131" style="enable-background:new 0 0 174 131;" xml:space="preserve">
<style type="text/css">
	.st00{filter:url(#blur);}
	.st0{opacity:0.7;fill-rule:evenodd;clip-rule:evenodd;}
	.st1{fill-rule:evenodd;clip-rule:evenodd;fill:url(#SVGID_1_);}
	.st2{opacity:0.1;fill-rule:evenodd;clip-rule:evenodd;fill:url(#SVGID_2_);enable-background:new    ;}
	.st3{opacity:0.49;fill-rule:evenodd;clip-rule:evenodd;enable-background:new    ;}
	.st4{opacity:0.14;fill-rule:evenodd;clip-rule:evenodd;fill:url(#SVGID_3_);enable-background:new    ;}
	.st5{opacity:0.22;fill-rule:evenodd;clip-rule:evenodd;fill:url(#SVGID_4_);enable-background:new    ;}
</style>
<filter  id="blur">
	<feGaussianBlur  stdDeviation="3"></feGaussianBlur>
</filter>
<g class="st00">
<path class="st0" d="M159,3H40.4c-9.8,0-18.2,7.1-19.9,16.6L3,116h119c9.8,0,17.8-7.1,19.5-16.6L159,3z"/>
</g>
<linearGradient id="SVGID_1_" gradientUnits="userSpaceOnUse" x1="78" y1="182" x2="78" y2="295" gradientTransform="matrix(1 0 0 -1 0 295)">
	<stop  offset="2.727828e-06" style="stop-color:#545B61"/>
	<stop  offset="1" style="stop-color:#627185"/>
</linearGradient>
<path class="st1" d="M156,0H37.4c-9.8,0-18.2,7.1-19.9,16.6L0,113h119c9.8,0,17.8-7.1,19.5-16.6L156,0z"/>
<linearGradient id="SVGID_2_" gradientUnits="userSpaceOnUse" x1="78" y1="19" x2="78" y2="132" gradientTransform="matrix(1 0 0 -1 0 132)">
	<stop  offset="2.594634e-06" style="stop-color:#06133C"/>
	<stop  offset="1" style="stop-color:#000000"/>
</linearGradient>
<path class="st2" d="M153.637,0L136.5,94.4c-1.7,9.5-9.7,16.6-19.5,16.6H0.363L0,113h119c9.8,0,17.8-7.1,19.5-16.6L156,0H153.637z"
	/>
<path class="st3" d="M137.7,95.8c-1.7,9.4-10,16.2-19.6,16.2l-118,0.3L0,113h118.6c9.8,0,18.2-7.1,19.9-16.6L156,0h-1L137.7,95.8z"
	/>
<linearGradient id="SVGID_3_" gradientUnits="userSpaceOnUse" x1="25.2687" y1="128.2313" x2="89.5685" y2="63.9315" gradientTransform="matrix(1 0 0 -1 0 132)">
	<stop  offset="9.057242e-08" style="stop-color:#FFFFFF"/>
	<stop  offset="1" style="stop-color:#EEEEEE"/>
</linearGradient>
<path class="st4" d="M19.5,18.6C21.2,9.1,28.653,2,39.4,2h116.237L156,0H37.4c-9.8,0-18.2,7.1-19.9,16.6L0,113h2.363L19.5,18.6z"/>
<linearGradient id="SVGID_4_" gradientUnits="userSpaceOnUse" x1="25.2687" y1="128.2313" x2="89.159" y2="64.341" gradientTransform="matrix(1 0 0 -1 0 132)">
	<stop  offset="9.057242e-08" style="stop-color:#FFFFFF"/>
	<stop  offset="1" style="stop-color:#CCCCCC"/>
</linearGradient>
<path class="st5" d="M18.5,17.6C20.2,8.1,28.6,1,38.4,1h117.418L156,0H37.4c-9.8,0-18.2,7.1-19.9,16.6L0,113h1.182L18.5,17.6z"/>
</svg>
