<?xml version="1.0" encoding="utf-8"?>
<!-- Generator: Adobe Illustrator 24.1.1, SVG Export Plug-In . SVG Version: 6.00 Build 0)  -->
<svg version="1.1" id="Ebene_1" xmlns="http://www.w3.org/2000/svg" xmlns:xlink="http://www.w3.org/1999/xlink" x="0px" y="0px"
	 viewBox="0 0 156 113" style="enable-background:new 0 0 156 113;" xml:space="preserve">
<style type="text/css">
	.st0{fill:#FFFFFF;}
</style>
<g id="updown">
	<g>
		<path class="st0" d="M74.8,66.5l0-26.4c0-0.5,0.4-0.9,0.9-0.9l5.3,0c0.8,0,1.2-0.9,0.7-1.4L69.9,24.7c-0.4-0.4-1-0.4-1.3,0
			L56.9,37.9c-0.5,0.6-0.1,1.4,0.7,1.4l5.3,0c0.5,0,0.9,0.4,0.9,0.9l0,26.4c0,0.5,0.4,0.9,0.9,0.9l9.1,0
			C74.4,67.4,74.8,67,74.8,66.5z M98.4,73.7l-5.3,0c-0.5,0-0.9-0.4-0.9-0.9l0-26.4c0-0.5-0.4-0.9-0.9-0.9l-9.1,0
			c-0.5,0-0.9,0.4-0.9,0.9l0,26.4c0,0.5-0.4,0.9-0.9,0.9l-5.3,0c-0.8,0-1.2,0.9-0.7,1.4l11.7,13.1c0.4,0.4,1,0.4,1.3,0l11.6-13.2
			C99.6,74.6,99.2,73.7,98.4,73.7z"/>
	</g>
</g>
</svg>
