<?xml version="1.0" encoding="utf-8"?>
<!-- Generator: Adobe Illustrator 24.1.1, SVG Export Plug-In . SVG Version: 6.00 Build 0)  -->
<svg version="1.1" id="Ebene_1" xmlns="http://www.w3.org/2000/svg" xmlns:xlink="http://www.w3.org/1999/xlink" x="0px" y="0px"
	 viewBox="0 0 184 120" style="enable-background:new 0 0 184 120;" xml:space="preserve">
<style type="text/css">
	.st0{fill:#FFFFFF;}
</style>
<g>
	<path class="st0" d="M3.3,103.7c0.3-1,0.7-1.8,1.5-2.6l45.7-46.9c6.6-6.9,9.7-12.3,9.7-19c0-6.1-3.6-10.2-10-10.2
		c-7.4,0-12.9,4.9-15.4,13.6c-0.3,1-1,1.5-2,1.3L16.1,37c-0.8-0.2-1.1-0.8-0.8-1.8C19.1,20,31.8,6.6,53.3,6.6
		c18,0,29.2,10.8,29.2,25.6c0,12.6-5.6,22.4-16.1,33.1l-34.9,35.4v0.3H69c1,0,1.6,0.7,1.5,1.6l-2.8,15.6c-0.2,1-0.8,1.6-1.8,1.6H2.2
		c-1,0-1.6-0.7-1.5-1.6L3.3,103.7z"/>
</g>
</svg>
