<?xml version="1.0" encoding="utf-8"?>
<!-- Generator: Adobe Illustrator 24.1.1, SVG Export Plug-In . SVG Version: 6.00 Build 0)  -->
<svg version="1.1" id="Ebene_1" xmlns="http://www.w3.org/2000/svg" xmlns:xlink="http://www.w3.org/1999/xlink" x="0px" y="0px"
	 viewBox="0 0 21 21" style="enable-background:new 0 0 21 21;" xml:space="preserve">
<style type="text/css">
	.st0{fill:#FFFFFF;}
</style>
<g>
	<g>
		<g>
			<path class="st0" d="M10.5,0C10,0,9.7,0.4,9.7,0.8V5c0,0.5,0.4,0.8,0.8,0.8s0.8-0.4,0.8-0.8V1.7c4.5,0.4,8,4.2,8,8.8
				c0,4.8-4,8.8-8.9,8.8c-4.8,0-8.8-4-8.8-8.8c0-2.4,1-4.7,2.7-6.3c0.3-0.3,0.4-0.8,0-1.2c-0.3-0.3-0.8-0.4-1.2,0
				C1.1,4.9,0,7.6,0,10.5C0,16.3,4.7,21,10.5,21C16.3,21,21,16.3,21,10.5C21,4.7,16.3,0,10.5,0z M9.3,11.5c0.1,0.2,0.2,0.3,0.4,0.4
				c0.7,0.5,1.7,0.3,2.2-0.4c0.5-0.7,0.3-1.7-0.4-2.2L6.3,5.6c-0.2-0.2-0.4-0.2-0.6,0C5.5,5.7,5.4,6.1,5.6,6.3L9.3,11.5z"/>
		</g>
	</g>
</g>
</svg>
