<?xml version="1.0" encoding="utf-8"?>
<!-- Generator: Adobe Illustrator 24.1.1, SVG Export Plug-In . SVG Version: 6.00 Build 0)  -->
<svg version="1.1" id="Ebene_1" xmlns="http://www.w3.org/2000/svg" xmlns:xlink="http://www.w3.org/1999/xlink" x="0px" y="0px"
	 viewBox="0 0 156 113" style="enable-background:new 0 0 156 113;" xml:space="preserve">
<style type="text/css">
	.st0{fill:#FFFFFD;}
</style>
<path id="R" class="st0" d="M59,78.6c-0.1,0.4,0.2,0.7,0.6,0.7l6.3,0c0.3,0,0.6-0.3,0.7-0.7L69.8,61c0-0.3,0.2-0.4,0.5-0.4l8.2,0
	l5.4,17.9c0.1,0.5,0.3,0.7,0.9,0.7l6.1,0c0.4,0,0.7-0.4,0.5-0.9l-5.8-18.6C92.3,57.7,97,52,97,44.6c0-6.6-4.9-10.8-12.3-10.8l-17,0
	c-0.4,0-0.7,0.3-0.7,0.7L59,78.6z M71.4,54c-0.3,0-0.4-0.1-0.3-0.4l2.3-12.7c0.1-0.3,0.2-0.4,0.5-0.4l9.5,0c3.6,0,5.9,2,5.9,5.2
	c0,5.2-3.7,8.2-8.4,8.3L71.4,54z"/>
</svg>
