<?xml version="1.0" encoding="utf-8"?>
<!-- Generator: Adobe Illustrator 24.1.1, SVG Export Plug-In . SVG Version: 6.00 Build 0)  -->
<svg version="1.1" id="Ebene_1" xmlns="http://www.w3.org/2000/svg" xmlns:xlink="http://www.w3.org/1999/xlink" x="0px" y="0px"
	 viewBox="0 0 156 113" style="enable-background:new 0 0 156 113;" xml:space="preserve">
<style type="text/css">
	.st0{fill:#FFFFFF;}
</style>
<g id="diag">
	<g>
		<path class="st0" d="M63.8,47.2c-0.3-0.3-0.3-0.9,0-1.2l3.8-3.7c0.5-0.5,0.2-1.4-0.6-1.5l-17.8-1.2c-0.5,0-1,0.4-0.9,0.9l1.3,17.4
			c0.1,0.7,1,1.1,1.5,0.5l3.8-3.7c0.3-0.3,0.9-0.3,1.2,0l19.1,18.6c0.3,0.3,0.9,0.3,1.2,0l6.4-6.3c0.3-0.3,0.3-0.9,0-1.2L63.8,47.2z
			 M106.4,55.1c-0.1-0.7-1-1.1-1.5-0.5l-3.8,3.7c-0.3,0.3-0.9,0.3-1.2,0L80.7,39.6c-0.3-0.3-0.9-0.3-1.2,0l-6.4,6.3
			c-0.3,0.3-0.3,0.9,0,1.2l19.1,18.6c0.3,0.3,0.3,0.9,0,1.2l-3.8,3.7c-0.5,0.5-0.2,1.4,0.6,1.5l17.8,1.2c0.5,0,1-0.4,0.9-0.9
			L106.4,55.1z"/>
	</g>
</g>
</svg>
