<svg xmlns="http://www.w3.org/2000/svg" viewBox="0 0 49 36"><defs><linearGradient id="a" x1="24.5" y1="105" x2="24.5" y2="69" gradientTransform="translate(0 -69)" gradientUnits="userSpaceOnUse"><stop offset="0" stop-color="#17a62b"/><stop offset="1" stop-color="#27c139"/></linearGradient></defs><path d="M49 0H11.83a6.35 6.35 0 0 0-6.27 5.24L0 36h37.17a6.33 6.33 0 0 0 6.26-5.24Z" style="fill-rule:evenodd;fill:url(#a)"/><path d="m17.24 26.38 2.18-2.68c.13-.16.29-.2.42-.07a7.4 7.4 0 0 0 3.84 1.7v-5.47c-3.75-.58-6-2.88-6-6.31a6.59 6.59 0 0 1 6-6.72V5a.3.3 0 0 1 .32-.38h1.47a.31.31 0 0 1 .32.33v1.88a10.93 10.93 0 0 1 5.08 1.73.31.31 0 0 1 .07.48l-1.86 2.69a.32.32 0 0 1-.45.09 8 8 0 0 0-2.84-1.12v5.16c4 .64 6 2.91 6 6.36a6.61 6.61 0 0 1-6 6.88v2a.3.3 0 0 1-.32.31H24a.29.29 0 0 1-.32-.31v-1.9a11.2 11.2 0 0 1-6.37-2.34.33.33 0 0 1-.07-.48Zm6.44-15.52a2.42 2.42 0 0 0-1.6 2.34 2.15 2.15 0 0 0 1.6 2.24Zm3.74 11.59a2.16 2.16 0 0 0-1.63-2.15v4.8a2.61 2.61 0 0 0 1.63-2.65Z" style="fill:#fff"/></svg>