<svg xmlns="http://www.w3.org/2000/svg" viewBox="0 0 49 36"><defs><linearGradient id="a" x1="24.5" y1="105" x2="24.5" y2="69" gradientTransform="translate(0 -69)" gradientUnits="userSpaceOnUse"><stop offset="0" stop-color="#17a62b"/><stop offset="1" stop-color="#27c139"/></linearGradient></defs><path d="M49 0H11.83a6.35 6.35 0 0 0-6.27 5.24L0 36h37.17a6.33 6.33 0 0 0 6.26-5.24Z" style="fill-rule:evenodd;fill:url(#a)"/><path d="M22.22 22.37V21a3.76 3.76 0 0 1 .92-2.68l2.24-2.92a3.84 3.84 0 0 0 1.22-2.56 2 2 0 0 0-2.11-2.11 2.4 2.4 0 0 0-2.4 2.27c-.07.26-.19.32-.42.29l-3.45-.51c-.23 0-.29-.19-.26-.39.48-3.29 2.91-5.44 6.66-5.44s6.43 2.5 6.43 5.76a6 6 0 0 1-1.7 4.16l-2.14 2.82a2.48 2.48 0 0 0-.64 1.92v.77a.3.3 0 0 1-.32.32h-3.71a.3.3 0 0 1-.32-.33Zm-.07 2.72a.3.3 0 0 1 .32-.32h3.84a.3.3 0 0 1 .32.32v3.65a.3.3 0 0 1-.32.32h-3.84a.3.3 0 0 1-.32-.32Z" style="fill:#fff"/></svg>