<svg xmlns="http://www.w3.org/2000/svg" viewBox="0 0 270 14" style="enable-background:new 0 0 270 14" xml:space="preserve"><g style="opacity:.38"><linearGradient id="a" gradientUnits="userSpaceOnUse" x1="135" y1="12.496" x2="135" y2="1.504"><stop offset="0" style="stop-color:#fff;stop-opacity:.15"/><stop offset=".076" style="stop-color:#d0d0d0;stop-opacity:.1971"/><stop offset=".166" style="stop-color:#a0a0a0;stop-opacity:.2531"/><stop offset=".262" style="stop-color:#757575;stop-opacity:.3122"/><stop offset=".36" style="stop-color:#515151;stop-opacity:.3735"/><stop offset=".464" style="stop-color:#333;stop-opacity:.4375"/><stop offset=".573" style="stop-color:#1d1d1d;stop-opacity:.5052"/><stop offset=".69" style="stop-color:#0d0d0d;stop-opacity:.5781"/><stop offset=".823" style="stop-color:#030303;stop-opacity:.6601"/><stop offset="1" style="stop-color:#000;stop-opacity:.77"/></linearGradient><path d="M1 12.5c-.2 0-.3-.1-.4-.2-.1-.1-.1-.3-.1-.4l1.8-5.7C3.5 3 6.2 1.5 10.8 1.5H269c.2 0 .3.1.4.2.1.1.1.3.1.4l-1.8 5.7c-1.2 3.2-3.9 4.7-8.5 4.7H1z" style="fill-rule:evenodd;clip-rule:evenodd;fill:url(#a)"/><path d="m269 2-1.8 5.7c-.9 2.5-2.9 4.3-8.1 4.3H1l1.8-5.7c.9-2.5 2.9-4.3 8-4.3H269m0-1H10.8C5.9 1 3 2.6 1.8 6L0 11.7c0 .3 0 .6.2.9.2.2.5.4.8.4h258.2c4.9 0 7.8-1.6 9-5l1.8-5.7c.1-.3 0-.6-.1-.9-.3-.2-.6-.4-.9-.4z" style="fill:#fff"/></g></svg>