<?xml version="1.0" encoding="UTF-8"?>
<svg width="128px" height="128px" viewBox="0 0 128 128" version="1.1" xmlns="http://www.w3.org/2000/svg" xmlns:xlink="http://www.w3.org/1999/xlink">
    <!-- Generator: Sketch 50.2 (55047) - http://www.bohemiancoding.com/sketch -->
    <title>Hat Dog / 3</title>
    <desc>Created with Sketch.</desc>
    <defs></defs>
    <g id="Hat-Dog-/-3" stroke="none" stroke-width="1" fill="none" fill-rule="evenodd">
        <rect id="Container" fill="#DADADB" x="0" y="0" width="128" height="128"></rect>
        <path d="M83.868,75.41 C83.868,78.4713486 83.3350053,81.1226555 82.269,83.364 C81.2029947,85.6053445 79.7816756,87.4639926 78.005,88.94 C76.2283244,90.4160074 74.1646784,91.5229963 71.814,92.261 C69.4633216,92.9990037 67.0033462,93.368 64.434,93.368 C62.0286546,93.368 59.664345,93.0263367 57.341,92.343 C55.017655,91.6596632 52.9403425,90.5936739 51.109,89.145 C49.2776575,87.6963261 47.8016723,85.810345 46.681,83.487 C45.5603277,81.163655 45,78.3620164 45,75.082 L58.448,75.082 C58.448,77.1593437 59.0219943,78.7036616 60.17,79.715 C61.3180057,80.7263384 62.7393249,81.232 64.434,81.232 C66.1833421,81.232 67.6183277,80.7126719 68.739,79.674 C69.8596723,78.6353281 70.42,77.0773437 70.42,75 C70.42,73.2506579 69.8323392,71.7883392 68.657,70.613 C67.4816608,69.4376608 65.992009,68.85 64.188,68.85 L62.302,68.85 L62.302,57.206 L64.188,57.206 C66.2106768,57.206 67.6456624,56.6183392 68.493,55.443 C69.3403376,54.2676608 69.764,53.0240066 69.764,51.712 C69.764,49.853324 69.2310053,48.459338 68.165,47.53 C67.0989947,46.600662 65.8553404,46.136 64.434,46.136 C63.0126596,46.136 61.7690053,46.6143285 60.703,47.571 C59.6369947,48.5276714 59.104,49.8806579 59.104,51.63 L45.656,51.63 C45.656,48.896653 46.1479951,46.4366776 47.132,44.25 C48.1160049,42.0633224 49.4553249,40.2183409 51.15,38.715 C52.8446751,37.2116592 54.826322,36.0500041 57.095,35.23 C59.363678,34.4099959 61.8099869,34 64.434,34 C67.1126801,34 69.5999885,34.4236624 71.896,35.271 C74.1920115,36.1183376 76.1873249,37.3073257 77.882,38.838 C79.5766751,40.3686743 80.888662,42.1999893 81.818,44.332 C82.747338,46.4640107 83.212,48.7873208 83.212,51.302 C83.212,52.8873413 83.0343351,54.2949939 82.679,55.525 C82.3236649,56.7550061 81.8590029,57.8209955 81.285,58.723 C80.7109971,59.6250045 80.0550037,60.3903302 79.317,61.019 C78.5789963,61.6476698 77.8546702,62.2079975 77.144,62.7 C77.9640041,63.2466694 78.7703294,63.8889963 79.563,64.627 C80.3556706,65.3650037 81.0663302,66.2396616 81.695,67.251 C82.3236698,68.2623384 82.842998,69.43766 83.253,70.777 C83.6630021,72.11634 83.868,73.6606579 83.868,75.41 Z" id="3" fill="#000000"></path>
    </g>
</svg>