<svg version="1.1" id="Ebene_1" xmlns="http://www.w3.org/2000/svg" x="0" y="0" width="140" height="103" style="enable-background:new 0 0 140 103" xml:space="preserve"><style>.st2{opacity:.21;fill-rule:evenodd;clip-rule:evenodd;enable-background:new}</style><g id="_x35_"><linearGradient id="SVGID_1_" gradientUnits="userSpaceOnUse" x1="70" y1=".89" x2="70" y2="103.89" gradientTransform="matrix(1 0 0 -1 0 103.89)"><stop offset="0" style="stop-color:#00ad61"/><stop offset="1" style="stop-color:#006120"/></linearGradient><path d="M140 0H33.8C25 0 17.4 6.3 15.9 15L0 103h106.2c8.8 0 16.4-6.3 17.9-15L140 0z" style="fill-rule:evenodd;clip-rule:evenodd;fill:url(#SVGID_1_)"/><g style="opacity:.64"><path class="st2" d="M121 87.9c-1.3 7.1-7.4 12.2-14.6 12.2H.5L0 103h106.2c8.8 0 16.4-6.3 17.9-15L140 0h-3.1L121 87.9z"/><path class="st2" d="M121.9 88.8c-1.3 7.1-7.5 12.3-14.7 12.3H.3L0 103h106.2c8.8 0 16.4-6.3 17.9-15L140 0h-2l-16.1 88.8z"/><path class="st2" d="M121.9 88.8c-1.3 7.1-7.5 12.3-14.7 12.3H.3L0 103h106.2c8.8 0 16.4-6.3 17.9-15L140 0h-2l-16.1 88.8z"/><path class="st2" d="M122.9 88.9c-1.4 7.6-8 13.1-15.7 13.1H.2l-.2 1h106.2c8.8 0 16.4-6.3 17.9-15L140 0h-1.1l-16 88.9z"/></g><linearGradient id="SVGID_2_" gradientUnits="userSpaceOnUse" x1="37.428" y1="108.806" x2="75.825" y2="42.3" gradientTransform="matrix(1 0 0 -1 0 103.89)"><stop offset="0" style="stop-color:#fff"/><stop offset=".042" style="stop-color:#f1f1f1"/><stop offset=".126" style="stop-color:#dbdbdb"/><stop offset=".225" style="stop-color:#cacaca"/><stop offset=".348" style="stop-color:#bfbfbf"/><stop offset=".521" style="stop-color:#b8b8b8"/><stop offset="1" style="stop-color:#b6b6b6"/></linearGradient><path d="M19.9 16.1C21.1 9.1 27.3 4 34.4 4h104.9l.7-4H33.8C25 0 17.4 6.3 15.9 15L0 103h4.1l15.8-86.9z" style="opacity:.21;fill-rule:evenodd;clip-rule:evenodd;fill:url(#SVGID_2_);enable-background:new"/><linearGradient id="SVGID_3_" gradientUnits="userSpaceOnUse" x1="37.428" y1="108.806" x2="75.575" y2="42.733" gradientTransform="matrix(1 0 0 -1 0 103.89)"><stop offset="0" style="stop-color:#fff"/><stop offset=".042" style="stop-color:#f1f1f1"/><stop offset=".126" style="stop-color:#dbdbdb"/><stop offset=".225" style="stop-color:#cacaca"/><stop offset=".348" style="stop-color:#bfbfbf"/><stop offset=".521" style="stop-color:#b8b8b8"/><stop offset="1" style="stop-color:#b6b6b6"/></linearGradient><path d="M19 15.1C20.3 8 26.4 2.9 33.6 2.9h105.9L140 0H33.8C25 0 17.4 6.3 15.9 15L0 103h3.1L19 15.1z" style="opacity:.21;fill-rule:evenodd;clip-rule:evenodd;fill:url(#SVGID_3_);enable-background:new"/><linearGradient id="SVGID_4_" gradientUnits="userSpaceOnUse" x1="37.428" y1="108.806" x2="75.3" y2="43.21" gradientTransform="matrix(1 0 0 -1 0 103.89)"><stop offset="0" style="stop-color:#fff"/><stop offset=".042" style="stop-color:#f1f1f1"/><stop offset=".126" style="stop-color:#dbdbdb"/><stop offset=".225" style="stop-color:#cacaca"/><stop offset=".348" style="stop-color:#bfbfbf"/><stop offset=".521" style="stop-color:#b8b8b8"/><stop offset="1" style="stop-color:#b6b6b6"/></linearGradient><path d="M18.1 14.2c1.3-7.1 7.5-12.3 14.7-12.3h106.8L140 0H33.8C25 0 17.4 6.3 15.9 15L0 103h2l16.1-88.8z" style="opacity:.21;fill-rule:evenodd;clip-rule:evenodd;fill:url(#SVGID_4_);enable-background:new"/><linearGradient id="SVGID_5_" gradientUnits="userSpaceOnUse" x1="37.428" y1="108.806" x2="75.3" y2="43.21" gradientTransform="matrix(1 0 0 -1 0 103.89)"><stop offset="0" style="stop-color:#fff"/><stop offset=".042" style="stop-color:#f1f1f1"/><stop offset=".126" style="stop-color:#dbdbdb"/><stop offset=".225" style="stop-color:#cacaca"/><stop offset=".348" style="stop-color:#bfbfbf"/><stop offset=".521" style="stop-color:#b8b8b8"/><stop offset="1" style="stop-color:#b6b6b6"/></linearGradient><path d="M18.1 14.2c1.3-7.1 7.5-12.3 14.7-12.3h106.8L140 0H33.8C25 0 17.4 6.3 15.9 15L0 103h2l16.1-88.8z" style="opacity:.21;fill-rule:evenodd;clip-rule:evenodd;fill:url(#SVGID_5_);enable-background:new"/><linearGradient id="SVGID_6_" gradientUnits="userSpaceOnUse" x1="37.428" y1="108.806" x2="75.075" y2="43.599" gradientTransform="matrix(1 0 0 -1 0 103.89)"><stop offset="0" style="stop-color:#fff"/><stop offset=".042" style="stop-color:#f1f1f1"/><stop offset=".126" style="stop-color:#dbdbdb"/><stop offset=".225" style="stop-color:#cacaca"/><stop offset=".348" style="stop-color:#bfbfbf"/><stop offset=".521" style="stop-color:#b8b8b8"/><stop offset="1" style="stop-color:#b6b6b6"/></linearGradient><path d="M17.1 14.1C18.5 6.5 25.1 1 32.8 1h107l.2-1H33.8C25 0 17.4 6.3 15.9 15L0 103h1.1l16-88.9z" style="opacity:.21;fill-rule:evenodd;clip-rule:evenodd;fill:url(#SVGID_6_);enable-background:new"/><g style="enable-background:new"><path d="M92.472 32.235H67.724L65.608 43c1.348-.921 2.668-1.533 3.956-1.841a17.874 17.874 0 0 1 4.14-.46c2.636 0 4.937.446 6.899 1.334 1.963.891 3.557 2.056 4.784 3.496 1.227 1.442 2.146 3.098 2.761 4.969a18.41 18.41 0 0 1 .92 5.75c0 .92-.047 1.963-.139 3.128s-.23 2.178-.414 3.035c-.491 2.822-1.319 5.767-2.484 8.832a22.75 22.75 0 0 1-5.243 8.097c-1.78 1.779-3.956 3.22-6.532 4.324-2.576 1.104-5.704 1.655-9.384 1.655-2.576 0-4.938-.399-7.084-1.195-2.148-.797-3.988-1.9-5.52-3.312-1.534-1.41-2.73-3.112-3.588-5.105-.859-1.993-1.288-4.187-1.288-6.578 0-.307.014-.843.046-1.61.03-.767.106-1.548.23-2.346h13.708a4.638 4.638 0 0 0-.092.92v.828c0 1.472.322 2.745.966 3.817.644 1.074 1.886 1.61 3.726 1.61 2.146 0 3.832-.904 5.06-2.714 1.226-1.809 2.146-4.217 2.76-7.223.368-1.9.552-3.312.552-4.231 0-1.472-.322-2.744-.966-3.818-.644-1.072-1.886-1.609-3.726-1.609-2.024 0-3.558.521-4.6 1.563-1.044 1.044-1.81 2.086-2.3 3.128H49.692l7.636-38.18h37.72l-2.576 12.971z" style="fill:#fff"/></g></g></svg>