<?xml version="1.0" encoding="utf-8"?>
<!-- Generator: Adobe Illustrator 27.2.0, SVG Export Plug-In . SVG Version: 6.00 Build 0)  -->
<svg version="1.1" id="Ebene_1" xmlns="http://www.w3.org/2000/svg" xmlns:xlink="http://www.w3.org/1999/xlink" x="0px" y="0px"
	 viewBox="0 0 28 20" style="enable-background:new 0 0 28 20;" xml:space="preserve">
<style type="text/css">
	.st0{fill:#FFFFFF;}
	.st1{fill:#204CA8;}
	.st2{fill:#098520;}
	.st3{fill-rule:evenodd;clip-rule:evenodd;fill:#FFFFFF;}
	.st4{fill:#FF2D2D;}
	.st5{fill:#7B510E;}
	.st6{fill:#7E7E7E;}
	.st7{fill:url(#SVGID_1_);}
	.st8{fill:url(#SVGID_00000133510454625427094800000001445241658403111870_);}
	.st9{fill:url(#SVGID_00000049190715350672343950000006135439877064511931_);}
	.st10{fill:url(#SVGID_00000176003042271128608430000005044546877712555660_);}
	.st11{fill:url(#SVGID_00000020379759254067729240000014649135222556742328_);}
	.st12{fill:url(#SVGID_00000110472641069355664530000014025619064406357645_);}
	.st13{fill:url(#SVGID_00000124164224408270532650000001829040640889142151_);}
	.st14{fill:url(#SVGID_00000152948905356777607980000017997146814306428344_);}
	.st15{fill:#DFDFDF;}
	.st16{clip-path:url(#SVGID_00000088816543918882316480000002421933961535892379_);}
	.st17{fill:#EE6060;}
	.st18{fill:#708444;}
</style>
<g>
	<g>
		<path class="st2" d="M25.227,11.736c-1.327-0.347-4.836-1.464-7.417-4.123c-2.787-2.871-4.858-3.992-8.26-3.388
			c-0.1-0.016-0.205-0.03-0.308-0.009C6.689,4.739,4.497,3.525,2.737,2.999c0,0,0.829,2.016,1.654,2.908
			c-0.697,0.293-1.436,0.62-2.227,0.983C1.746,7.081,1.336,7.236,0.931,7.362c-0.128,0.04-0.256,0.076-0.382,0.11
			C0.544,7.474,0.538,7.475,0.533,7.476C0.385,7.541,0.202,7.609,0,7.678v11.078c3.495-1.693,7.067-3.703,7.834-4.017
			c3.489-1.427,9.848-0.661,12.028-0.164c2.13,0.486,5.324,0.108,5.723-2.308C25.624,12.026,25.464,11.797,25.227,11.736z"/>
	</g>
	<circle class="st0" cx="14.469" cy="7.516" r="0.806"/>
</g>
<polygon class="st3" points="7.391,10.186 5.232,10.186 5.232,8.027 3.849,8.027 3.849,10.186 1.69,10.186 1.69,11.569 
	3.849,11.569 3.849,13.728 5.232,13.728 5.232,11.569 7.391,11.569 "/>
</svg>
