<?xml version="1.0" encoding="UTF-8"?>
<svg width="16px" height="16px" viewBox="0 0 16 16" version="1.1" xmlns="http://www.w3.org/2000/svg" xmlns:xlink="http://www.w3.org/1999/xlink">
    <!-- Generator: Sketch 48.2 (47327) - http://www.bohemiancoding.com/sketch -->
    <title>Group</title>
    <desc>Created with Sketch.</desc>
    <defs></defs>
    <g id="Symbols" stroke="none" stroke-width="1" fill="none" fill-rule="evenodd">
        <path d="M5.42275631,13.3262643 L3.16785213,13.3262643 C3.07509174,13.3262643 3,13.2593655 3,13.1769117 L3,9.59256631 C3,9.51011245 3.07509174,9.44321371 3.16785213,9.44321371 L5.42286957,9.44321371 C5.51562996,9.44321371 5.5907217,9.51011245 5.5907217,9.59256631 L5.5907217,13.1769117 C5.59060844,13.2594825 5.51551669,13.3262643 5.42275631,13.3262643 Z M8.82918045,13.3262643 L6.574163,13.3262643 C6.48140262,13.3262643 6.40631088,13.2593655 6.40631088,13.1769117 L6.40631088,6.90433652 C6.40631088,6.82188266 6.48140262,6.75498393 6.574163,6.75498393 L8.82918045,6.75498393 C8.92194083,6.75498393 8.99703257,6.82188266 8.99703257,6.90433652 L8.99703257,13.1770286 C8.99703257,13.2594825 8.92194083,13.3262643 8.82918045,13.3262643 Z M12.2835138,13.3262643 L9.93256467,13.3262643 C9.83980429,13.3262643 9.76471254,13.2593655 9.76471254,13.1769117 L9.76471254,3.1493526 C9.76471254,3.06689874 9.83980429,3 9.93256467,3 L12.2835138,3 C12.3762742,3 12.4513659,3.06689874 12.4513659,3.1493526 L12.4513659,13.1770286 C12.4514792,13.2594825 12.3763874,13.3262643 12.2835138,13.3262643 Z" id="Shape" fill="#286CA7" fill-rule="nonzero"></path>
    </g>
</svg>