<svg viewBox="0 0 126 126" version="1.1" xmlns="http://www.w3.org/2000/svg" xmlns:xlink="http://www.w3.org/1999/xlink">
    <g id="Icons" stroke="none" stroke-width="1" fill="none" fill-rule="evenodd">
        <g id="icons" transform="translate(-126.000000, -126.000000)" fill-rule="nonzero" fill="#000000">
            <g id="tv" transform="translate(126.000000, 132.000000)">
                <path d="M45.5,105 L81.5,105 C85.6421356,105 89,108.357864 89,112.5 C89,116.642136 85.6421356,120 81.5,120 L45.5,120 C41.3578644,120 38,116.642136 38,112.5 L38,112.5 L38,112.5 C38,108.357864 41.3578644,105 45.5,105 L45.5,105 Z M55,97 L70.6488747,97 L70.6488747,105 L55,105 L55,97 Z M20,15 C17.2385763,15 15,17.2385763 15,20 L15,77 C15,79.7614237 17.2385763,82 20,82 L106,82 C108.761424,82 111,79.7614237 111,77 L111,20 C111,17.2385763 108.761424,15 106,15 L20,15 Z M20,0 L106,0 C117.045695,0 126,8.954305 126,20 L126,77 C126,88.045695 117.045695,97 106,97 L20,97 C8.954305,97 0,88.045695 0,77 L0,20 C0,8.954305 8.954305,0 20,0 Z" id="Rectangle"></path>
            </g>
        </g>
    </g>
</svg>
