<?xml version="1.0" encoding="utf-8"?>
<!-- Generator: Adobe Illustrator 23.1.0, SVG Export Plug-In . SVG Version: 6.00 Build 0)  -->
<svg version="1.1" id="Ebene_1" xmlns="http://www.w3.org/2000/svg" xmlns:xlink="http://www.w3.org/1999/xlink" x="0px" y="0px" width="256" height="170"
	 viewBox="0 0 256 170" style="enable-background:new 0 0 256 170;" xml:space="preserve">
<style type="text/css">
	.st0{fill:url(#SVGID_1_);}
</style>
<linearGradient id="SVGID_1_" gradientUnits="userSpaceOnUse" x1="43.1476" y1="85" x2="212.8524" y2="85">
	<stop  offset="0" style="stop-color:#060F0D"/>
	<stop  offset="0.9976" style="stop-color:#10261E"/>
</linearGradient>
<path class="st0" d="M193.87,139.12H43.15l16.23-92.56c1.59-9.07,9.47-15.69,18.68-15.69h134.79L193.87,139.12z M137.14,40.37
	c-24.65-5.2-48.85,10.56-54.05,35.21c-0.16,0.77-0.3,1.53-0.43,2.3c1.9-0.05,3.84-0.32,5.84-0.85c0.02,0,0.03-0.01,0.05-0.01
	c0.38-0.1,0.76-0.21,1.14-0.33c1.21-0.38,2.44-0.84,3.69-1.42c2.37-1.09,4.58-2.06,6.66-2.94c-2.47-2.67-3.72-5.49-3.72-5.49
	c5.26,1.57,14.54,0.82,18.24,0.43c0.31-0.03,0.62-0.02,0.92,0.03c10.17-1.81,16.37,1.55,24.71,10.13
	c7.72,7.95,18.22,11.3,22.18,12.33c0.71,0.18,1.19,0.87,1.07,1.59c-1.19,7.23-10.75,8.36-17.12,6.9c-6.52-1.49-26-2.25-35.97,0.49
	c-4.24,1.16-11.39,6.72-20.03,12.35c6.4,9.18,16.17,16.03,27.98,18.53c24.65,5.2,48.85-10.56,54.05-35.21
	C177.55,69.77,161.79,45.57,137.14,40.37z"/>
</svg>
