<?xml version="1.0" encoding="UTF-8"?>
<svg width="128px" height="128px" viewBox="0 0 128 128" version="1.1" xmlns="http://www.w3.org/2000/svg" xmlns:xlink="http://www.w3.org/1999/xlink">
    <!-- Generator: Sketch 50.2 (55047) - http://www.bohemiancoding.com/sketch -->
    <title>Hat Dog / 5</title>
    <desc>Created with Sketch.</desc>
    <defs></defs>
    <g id="Hat-Dog-/-5" stroke="none" stroke-width="1" fill="none" fill-rule="evenodd">
        <rect id="Container" fill="#FF9403" x="0" y="0" width="128" height="128"></rect>
        <path d="M82.884,73.458 C82.884,75.2073421 82.8020008,76.7926596 82.638,78.214 C82.4739992,79.6353404 82.187002,80.9609939 81.777,82.191 C81.366998,83.4210061 80.8203367,84.5689947 80.137,85.635 C79.4536633,86.7010053 78.5653388,87.7806612 77.472,88.874 C76.2146604,90.1313396 74.4653445,91.2793281 72.224,92.318 C69.9826555,93.3566719 67.2220164,93.876 63.942,93.876 C60.6619836,93.876 57.8466784,93.3430053 55.496,92.277 C53.1453216,91.2109947 51.3413396,90.0493396 50.084,88.792 C48.0066563,86.7146563 46.6810029,84.5280115 46.107,82.232 C45.5329971,79.9359885 45.1640008,77.7220107 45,75.59 L58.448,75.59 C58.6666678,77.5033429 59.1996624,79.0066612 60.047,80.1 C60.8943376,81.1933388 62.1926579,81.74 63.942,81.74 C65.4726743,81.74 66.7299951,81.2480049 67.714,80.264 C68.8620057,79.1159943 69.436,76.8473503 69.436,73.458 C69.436,70.2326505 68.9303384,68.0460057 67.919,66.898 C66.9076616,65.7499943 65.5820082,65.176 63.942,65.176 C62.9579951,65.176 62.1516698,65.3263318 61.523,65.627 C60.8943302,65.9276682 60.375002,66.2829979 59.965,66.693 C59.554998,67.1030021 59.2406678,67.5539975 59.022,68.046 C58.8033322,68.5380025 58.6120008,68.9753314 58.448,69.358 L46.066,69.358 L46.066,35 L81.654,35 L81.654,47.136 L58.284,47.136 L58.284,56.156 C58.8853363,55.7186645 59.8966596,55.2266694 61.318,54.68 C62.7393404,54.1333306 64.351991,53.86 66.156,53.86 C68.7253462,53.86 70.9529906,54.2426628 72.839,55.008 C74.7250094,55.7733372 76.2693273,56.7573273 77.472,57.96 C78.6746727,59.1626727 79.6313298,60.3789939 80.342,61.609 C81.0526702,62.8390061 81.5993314,64.1099934 81.982,65.422 C82.3646686,66.7340066 82.6106661,68.05966 82.72,69.399 C82.8293339,70.73834 82.884,72.0913265 82.884,73.458 Z" id="5" fill="#000000"></path>
    </g>
</svg>