<svg width="283" height="150" id="Ebene_1" data-name="Ebene 1" xmlns="http://www.w3.org/2000/svg" viewBox="0 0 122.35 64.92"><defs><style>.cls-1{fill:#fff;}</style></defs><title>logo</title><circle class="cls-1" cx="90.14" cy="57.1" r="7.83"/><circle class="cls-1" cx="24.16" cy="57.1" r="7.83"/><path class="cls-1" d="M7169.59,7170.35c.14-2.61,1.86-3.12,1.86-3.12l10.4,1.81,0-1a11,11,0,0,0-9-6.81c-8.09-.24-10.34,5.85-11.14,7.21s-.17,6.13-.17,6.13l15.86,10.25,2.81-.4,1.77-4.32C7177.12,7179.3,7169.44,7172.94,7169.59,7170.35Z" transform="translate(-7143.85 -7161.26)"/><path class="cls-1" d="M7226.69,7208.89c-4.3-1.47-15.9-4.88-15.9-4.88l-23.54.42-2-2.46-4.33.31,7.47,7.05,22.72.44s8.37,3.12,11.61,4.7A9.85,9.85,0,0,1,7226.69,7208.89Z" transform="translate(-7143.85 -7161.26)"/><path class="cls-1" d="M7266.12,7218.56l-7.77-7.05L7215,7186.72h-2.8l.24,7s16.31,11.42,19,13a12.12,12.12,0,0,1,2.5-.26,11.9,11.9,0,0,1,10.38,17.72c0,.12-.05.23-.08.35l21.95.33Z" transform="translate(-7143.85 -7161.26)"/><path class="cls-1" d="M7208.09,7185.55l-.88,1.31-4,.08-2.14,1.47-2,1.09s-16.62,2.65-17.48,2.44-8.56-5.31-8.56-5.31l-.32-.32,0-.44-10-6.71s-4.72,2.24-4.2,11a22.65,22.65,0,0,0,1,4.64l4.71,12.47a3.77,3.77,0,0,1,1.7-.45l-2.83-7.07s13.3-.15,18.32-.12,14.45-3.85,20.89-5.18c.62-.38-1,1.65-1,1.65l1.71.91,1.89-3.18,2.62-.42a24.42,24.42,0,0,0,1.28-5.08,13.38,13.38,0,0,1,.81-1.79Z" transform="translate(-7143.85 -7161.26)"/><path class="cls-1" d="M7222,7218.31a11.73,11.73,0,0,1,.08-1.33l-11.56-4.67-23.75.07-9.94-9.91-9.68-.08,2.34,4.37a11.47,11.47,0,0,1,10.55,11.78,12,12,0,0,1-.82,4.33c-.09.55-.19,1.11-.31,1.7l45,.16A11.85,11.85,0,0,1,7222,7218.31Z" transform="translate(-7143.85 -7161.26)"/><path class="cls-1" d="M7157.86,7224.46a10.74,10.74,0,0,1-1.59-5.92c.22-4.5,1.81-7.6,5.27-9.88l-5.08-13.88s1-4.42-4.11-3.62a33.24,33.24,0,0,0,0,4c.16.32,2.8,10.5,2.24,10.58s-10.74.16-10.74.16l1.85,6.65,6.57,13.22,5.37,0s.69-.26.45-.74C7158,7224.84,7157.94,7224.66,7157.86,7224.46Z" transform="translate(-7143.85 -7161.26)"/></svg>