<svg version="1.1" id="Ebene_1" xmlns="http://www.w3.org/2000/svg" x="0" y="0" viewBox="0 0 140 103" style="enable-background:new 0 0 140 103" xml:space="preserve"><style>.st3{opacity:.21;fill-rule:evenodd;clip-rule:evenodd;enable-background:new}</style><g id="_x38_"><linearGradient id="SVGID_1_" gradientUnits="userSpaceOnUse" x1="70" y1=".9" x2="70" y2="103.9" gradientTransform="matrix(1 0 0 -1 0 104)"><stop offset="0" style="stop-color:#ffaf00"/><stop offset="1" style="stop-color:#fb8200"/></linearGradient><path d="M140 .1H33.8c-8.8 0-16.4 6.3-17.9 15L0 103.1h106.2c8.8 0 16.4-6.3 17.9-15L140 .1z" style="fill-rule:evenodd;clip-rule:evenodd;fill:url(#SVGID_1_)"/><linearGradient id="SVGID_2_" gradientUnits="userSpaceOnUse" x1="100.4" y1=".8" x2="100.4" y2="104.1" gradientTransform="matrix(1 0 0 -1 0 104)"><stop offset="0" style="stop-color:#383838"/><stop offset="1" style="stop-color:#0a0a0a"/></linearGradient><path d="m78.9-.1-18 103 45.3.3c8.8 0 16.4-6.3 17.9-15l15.8-88-61-.3z" style="fill-rule:evenodd;clip-rule:evenodd;fill:url(#SVGID_2_)"/><g style="opacity:.64"><path class="st3" d="M121 88c-1.3 7.1-7.4 12.2-14.6 12.2H.5l-.5 2.9h106.2c8.8 0 16.4-6.3 17.9-15l15.8-88h-3.1L121 88z"/><path class="st3" d="M121.9 88.9c-1.3 7.1-7.5 12.3-14.7 12.3H.3l-.3 1.9h106.2c8.8 0 16.4-6.3 17.9-15l15.8-88h-2l-16 88.8z"/><path class="st3" d="M121.9 88.9c-1.3 7.1-7.5 12.3-14.7 12.3H.3l-.3 1.9h106.2c8.8 0 16.4-6.3 17.9-15l15.8-88h-2l-16 88.8z"/><path class="st3" d="M122.9 89c-1.4 7.6-8 13.1-15.7 13.1H.2l-.2 1h106.2c8.8 0 16.4-6.3 17.9-15l15.8-88h-1.1L122.9 89z"/></g><linearGradient id="SVGID_3_" gradientUnits="userSpaceOnUse" x1="37.428" y1="108.817" x2="75.825" y2="42.31" gradientTransform="matrix(1 0 0 -1 0 104)"><stop offset="0" style="stop-color:#fff"/><stop offset=".042" style="stop-color:#f1f1f1"/><stop offset=".126" style="stop-color:#dbdbdb"/><stop offset=".225" style="stop-color:#cacaca"/><stop offset=".348" style="stop-color:#bfbfbf"/><stop offset=".521" style="stop-color:#b8b8b8"/><stop offset="1" style="stop-color:#b6b6b6"/></linearGradient><path d="M19.9 16.3c1.3-7 7.4-12.2 14.5-12.2h104.9l.7-4H33.8c-8.8 0-16.4 6.3-17.9 15L0 103.1h4.1l15.8-86.8z" style="opacity:.21;fill-rule:evenodd;clip-rule:evenodd;fill:url(#SVGID_3_);enable-background:new"/><linearGradient id="SVGID_4_" gradientUnits="userSpaceOnUse" x1="37.428" y1="108.817" x2="75.575" y2="42.743" gradientTransform="matrix(1 0 0 -1 0 104)"><stop offset="0" style="stop-color:#fff"/><stop offset=".042" style="stop-color:#f1f1f1"/><stop offset=".126" style="stop-color:#dbdbdb"/><stop offset=".225" style="stop-color:#cacaca"/><stop offset=".348" style="stop-color:#bfbfbf"/><stop offset=".521" style="stop-color:#b8b8b8"/><stop offset="1" style="stop-color:#b6b6b6"/></linearGradient><path d="M19 15.3C20.2 8.2 26.4 3 33.6 3h105.9l.5-2.9H33.8c-8.8 0-16.4 6.3-17.9 15L0 103.1h3.1L19 15.3z" style="opacity:.21;fill-rule:evenodd;clip-rule:evenodd;fill:url(#SVGID_4_);enable-background:new"/><linearGradient id="SVGID_5_" gradientUnits="userSpaceOnUse" x1="37.371" y1="108.778" x2="75.261" y2="43.15" gradientTransform="matrix(1 0 0 -1 0 104)"><stop offset="0" style="stop-color:#fff"/><stop offset=".042" style="stop-color:#f1f1f1"/><stop offset=".126" style="stop-color:#dbdbdb"/><stop offset=".225" style="stop-color:#cacaca"/><stop offset=".348" style="stop-color:#bfbfbf"/><stop offset=".521" style="stop-color:#b8b8b8"/><stop offset="1" style="stop-color:#b6b6b6"/></linearGradient><path d="M18.1 14.4c1.3-7.1 7.5-12.3 14.7-12.3h106.8l.3-1.9H33.8c-8.8 0-16.4 6.3-17.9 15L0 103.1h2l16.1-88.7z" style="opacity:.21;fill-rule:evenodd;clip-rule:evenodd;fill:url(#SVGID_5_);enable-background:new"/><linearGradient id="SVGID_6_" gradientUnits="userSpaceOnUse" x1="37.371" y1="108.778" x2="75.261" y2="43.15" gradientTransform="matrix(1 0 0 -1 0 104)"><stop offset="0" style="stop-color:#fff"/><stop offset=".042" style="stop-color:#f1f1f1"/><stop offset=".126" style="stop-color:#dbdbdb"/><stop offset=".225" style="stop-color:#cacaca"/><stop offset=".348" style="stop-color:#bfbfbf"/><stop offset=".521" style="stop-color:#b8b8b8"/><stop offset="1" style="stop-color:#b6b6b6"/></linearGradient><path d="M18.1 14.4c1.3-7.1 7.5-12.3 14.7-12.3h106.8l.3-1.9H33.8c-8.8 0-16.4 6.3-17.9 15L0 103.1h2l16.1-88.7z" style="opacity:.21;fill-rule:evenodd;clip-rule:evenodd;fill:url(#SVGID_6_);enable-background:new"/><linearGradient id="SVGID_7_" gradientUnits="userSpaceOnUse" x1="37.428" y1="108.817" x2="75.075" y2="43.61" gradientTransform="matrix(1 0 0 -1 0 104)"><stop offset="0" style="stop-color:#fff"/><stop offset=".042" style="stop-color:#f1f1f1"/><stop offset=".126" style="stop-color:#dbdbdb"/><stop offset=".225" style="stop-color:#cacaca"/><stop offset=".348" style="stop-color:#bfbfbf"/><stop offset=".521" style="stop-color:#b8b8b8"/><stop offset="1" style="stop-color:#b6b6b6"/></linearGradient><path d="M17.1 14.2c1.4-7.6 8-13.1 15.7-13.1h107l.2-1H33.8c-8.8 0-16.4 6.3-17.9 15L0 103.1h1.1l16-88.9z" style="opacity:.21;fill-rule:evenodd;clip-rule:evenodd;fill:url(#SVGID_7_);enable-background:new"/><linearGradient id="SVGID_8_" gradientUnits="userSpaceOnUse" x1="70.9" y1="27.1" x2="70.9" y2="76.1" gradientTransform="matrix(1 0 0 -1 0 104)"><stop offset="0" style="stop-color:#383838"/><stop offset="1" style="stop-color:#0a0a0a"/></linearGradient><path style="fill-rule:evenodd;clip-rule:evenodd;fill:url(#SVGID_8_)" d="m63.9 27.9 20 2-10 47h-16z"/><g style="enable-background:new"><path d="M92.2 41.9c-.5 1.6-1.2 3-2.1 4.3-.9 1.3-1.8 2.5-2.9 3.5s-2.3 1.9-3.5 2.6c.4.4.8.9 1.4 1.5.6.6 1.1 1.4 1.6 2.3.5.9 1 2 1.3 3.3.3 1.3.5 2.7.5 4.4 0 3.1-.5 6-1.6 8.6-1 2.6-2.6 4.9-4.6 6.9-2 1.9-4.4 3.5-7.3 4.6-2.9 1.1-6.1 1.7-9.7 1.7-2.7 0-5.2-.4-7.6-1.1-2.3-.7-4.4-1.8-6.1-3.3-1.7-1.5-3.1-3.3-4.1-5.6-1-2.3-1.5-4.9-1.5-8 0-3.5.9-6.7 2.6-9.7 1.7-3 4.3-5.4 7.7-7.4-1-1-2-2.4-2.9-4.1-1-1.8-1.5-4.2-1.5-7.3 0-2.7.5-5.3 1.6-7.7 1-2.4 2.5-4.6 4.4-6.4 1.9-1.8 4.2-3.3 6.9-4.4 2.7-1.1 5.8-1.6 9.2-1.6 2.8 0 5.3.4 7.6 1.3s4.3 2.1 6 3.7c1.7 1.6 3 3.5 3.9 5.8.9 2.2 1.4 4.7 1.4 7.5 0 1.4-.2 3-.7 4.6zM73.6 61.8c-.2-.7-.6-1.4-1-2-.5-.6-1.1-1.1-1.8-1.5-.7-.4-1.6-.6-2.6-.6-2.1 0-3.9.8-5.4 2.3-1.5 1.5-2.3 3.6-2.3 6.2 0 .7.1 1.5.3 2.2.2.7.6 1.4 1 2 .5.6 1 1.1 1.7 1.5.7.4 1.6.6 2.6.6 2.1 0 3.9-.8 5.4-2.3 1.5-1.5 2.3-3.6 2.3-6.2.1-.7 0-1.5-.2-2.2zm3.6-28.2c-.8-1.2-2.1-1.8-3.9-1.8-1.9 0-3.6.7-5 2.1-1.4 1.4-2.1 3.3-2.1 5.7 0 1.3.4 2.6 1.2 3.8.8 1.2 2.1 1.8 3.9 1.8 1.9 0 3.6-.7 4.9-2.1 1.4-1.4 2.1-3.3 2.1-5.7.1-1.3-.3-2.6-1.1-3.8z" style="fill:#fff"/></g></g></svg>