<svg version="1.1" id="Ebene_1" xmlns="http://www.w3.org/2000/svg" x="0" y="0" viewBox="0 0 140 103" style="enable-background:new 0 0 140 103" xml:space="preserve"><style>.st4{opacity:.21;fill-rule:evenodd;clip-rule:evenodd}</style><g id="_x31_"><linearGradient id="SVGID_1_" gradientUnits="userSpaceOnUse" x1="70" y1="103" x2="70" y2="0"><stop offset="0" style="stop-color:red"/><stop offset="1" style="stop-color:#bd0000"/></linearGradient><path d="M140 0H33.8C25 0 17.4 6.3 15.9 15L0 103h106.2c8.8 0 16.4-6.3 17.9-15L140 0z" style="fill-rule:evenodd;clip-rule:evenodd;fill:url(#SVGID_1_)"/><defs><filter id="Adobe_OpacityMaskFilter" filterUnits="userSpaceOnUse" x="0" y="0" width="140" height="103"><feColorMatrix values="1 0 0 0 0 0 1 0 0 0 0 0 1 0 0 0 0 0 1 0"/></filter></defs><mask maskUnits="userSpaceOnUse" x="0" y="0" width="140" height="103" id="SVGID_2_"><g style="filter:url(#Adobe_OpacityMaskFilter)"><linearGradient id="SVGID_3_" gradientUnits="userSpaceOnUse" x1="-131.427" y1="46.733" x2="-51.827" y2="184.605" gradientTransform="rotate(180 -10.627 83.669)"><stop offset="0" style="stop-color:#fff"/><stop offset=".309" style="stop-color:#d7d7d7"/><stop offset=".774" style="stop-color:#a1a1a1"/><stop offset="1" style="stop-color:#8c8c8c"/></linearGradient><path style="fill-rule:evenodd;clip-rule:evenodd;fill:url(#SVGID_3_)" d="M140.4.2H.4v103h140z"/></g></mask><g style="opacity:.64;mask:url(#SVGID_2_)"><path class="st4" d="M121 87.9c-1.3 7.1-7.4 12.2-14.6 12.2H.5L0 103h106.2c8.8 0 16.4-6.3 17.9-15L140 0h-3.1L121 87.9z"/><path class="st4" d="M121.9 88.8c-1.3 7.1-7.5 12.3-14.7 12.3H.3L0 103h106.2c8.8 0 16.4-6.3 17.9-15L140 0h-2l-16.1 88.8z"/><path class="st4" d="M121.9 88.8c-1.3 7.1-7.5 12.3-14.7 12.3H.3L0 103h106.2c8.8 0 16.4-6.3 17.9-15L140 0h-2l-16.1 88.8z"/><path class="st4" d="M122.9 88.9c-1.4 7.6-8 13.1-15.7 13.1H.2l-.2 1h106.2c8.8 0 16.4-6.3 17.9-15L140 0h-1.1l-16 88.9z"/></g><defs><filter id="Adobe_OpacityMaskFilter_1_" filterUnits="userSpaceOnUse" x="0" y="0" width="140" height="103"><feColorMatrix values="1 0 0 0 0 0 1 0 0 0 0 0 1 0 0 0 0 0 1 0"/></filter></defs><mask maskUnits="userSpaceOnUse" x="0" y="0" width="140" height="103" id="SVGID_4_"><g style="filter:url(#Adobe_OpacityMaskFilter_1_)"><linearGradient id="SVGID_5_" gradientUnits="userSpaceOnUse" x1="29.827" y1="-17.605" x2="109.427" y2="120.267"><stop offset="0" style="stop-color:#fff"/><stop offset=".309" style="stop-color:#d7d7d7"/><stop offset=".774" style="stop-color:#a1a1a1"/><stop offset="1" style="stop-color:#8c8c8c"/></linearGradient><path style="fill-rule:evenodd;clip-rule:evenodd;fill:url(#SVGID_5_)" d="M-.4-.2h140v103H-.4z"/></g></mask><g style="mask:url(#SVGID_4_)"><linearGradient id="SVGID_6_" gradientUnits="userSpaceOnUse" x1="37.419" y1="-4.931" x2="75.834" y2="61.605"><stop offset="0" style="stop-color:#fff"/><stop offset=".042" style="stop-color:#f1f1f1"/><stop offset=".126" style="stop-color:#dbdbdb"/><stop offset=".225" style="stop-color:#cacaca"/><stop offset=".348" style="stop-color:#bfbfbf"/><stop offset=".521" style="stop-color:#b8b8b8"/><stop offset="1" style="stop-color:#b6b6b6"/></linearGradient><path d="M19.9 16.1C21.1 9.1 27.3 4 34.4 4h104.9l.7-4H33.8C25 0 17.4 6.3 15.9 15L0 103h4.1l15.8-86.9z" style="opacity:.21;fill-rule:evenodd;clip-rule:evenodd;fill:url(#SVGID_6_)"/><linearGradient id="SVGID_7_" gradientUnits="userSpaceOnUse" x1="37.419" y1="-4.931" x2="75.567" y2="61.143"><stop offset="0" style="stop-color:#fff"/><stop offset=".042" style="stop-color:#f1f1f1"/><stop offset=".126" style="stop-color:#dbdbdb"/><stop offset=".225" style="stop-color:#cacaca"/><stop offset=".348" style="stop-color:#bfbfbf"/><stop offset=".521" style="stop-color:#b8b8b8"/><stop offset="1" style="stop-color:#b6b6b6"/></linearGradient><path d="M19 15.1C20.3 8 26.4 2.9 33.6 2.9h105.9L140 0H33.8C25 0 17.4 6.3 15.9 15L0 103h3.1L19 15.1z" style="opacity:.21;fill-rule:evenodd;clip-rule:evenodd;fill:url(#SVGID_7_)"/><linearGradient id="SVGID_8_" gradientUnits="userSpaceOnUse" x1="37.419" y1="-4.931" x2="75.31" y2="60.697"><stop offset="0" style="stop-color:#fff"/><stop offset=".042" style="stop-color:#f1f1f1"/><stop offset=".126" style="stop-color:#dbdbdb"/><stop offset=".225" style="stop-color:#cacaca"/><stop offset=".348" style="stop-color:#bfbfbf"/><stop offset=".521" style="stop-color:#b8b8b8"/><stop offset="1" style="stop-color:#b6b6b6"/></linearGradient><path d="M18.1 14.2c1.3-7.1 7.5-12.3 14.7-12.3h106.8L140 0H33.8C25 0 17.4 6.3 15.9 15L0 103h2l16.1-88.8z" style="opacity:.21;fill-rule:evenodd;clip-rule:evenodd;fill:url(#SVGID_8_)"/><linearGradient id="SVGID_9_" gradientUnits="userSpaceOnUse" x1="37.419" y1="-4.931" x2="75.31" y2="60.697"><stop offset="0" style="stop-color:#fff"/><stop offset=".042" style="stop-color:#f1f1f1"/><stop offset=".126" style="stop-color:#dbdbdb"/><stop offset=".225" style="stop-color:#cacaca"/><stop offset=".348" style="stop-color:#bfbfbf"/><stop offset=".521" style="stop-color:#b8b8b8"/><stop offset="1" style="stop-color:#b6b6b6"/></linearGradient><path d="M18.1 14.2c1.3-7.1 7.5-12.3 14.7-12.3h106.8L140 0H33.8C25 0 17.4 6.3 15.9 15L0 103h2l16.1-88.8z" style="opacity:.21;fill-rule:evenodd;clip-rule:evenodd;fill:url(#SVGID_9_)"/><linearGradient id="SVGID_10_" gradientUnits="userSpaceOnUse" x1="37.419" y1="-4.931" x2="75.065" y2="60.273"><stop offset="0" style="stop-color:#fff"/><stop offset=".042" style="stop-color:#f1f1f1"/><stop offset=".126" style="stop-color:#dbdbdb"/><stop offset=".225" style="stop-color:#cacaca"/><stop offset=".348" style="stop-color:#bfbfbf"/><stop offset=".521" style="stop-color:#b8b8b8"/><stop offset="1" style="stop-color:#b6b6b6"/></linearGradient><path d="M17.1 14.1C18.5 6.5 25.1 1 32.8 1h107l.2-1H33.8C25 0 17.4 6.3 15.9 15L0 103h1.1l16-88.9z" style="opacity:.21;fill-rule:evenodd;clip-rule:evenodd;fill:url(#SVGID_10_)"/></g><path d="M75.4 84.8H61.1l9.8-49.2-15.4 10.8 3.2-16.3 15.5-10.9h14.4L75.4 84.8z" style="fill:#fff"/></g></svg>