<svg version="1.1" id="Ebene_1" xmlns="http://www.w3.org/2000/svg"
	xmlns:xlink="http://www.w3.org/1999/xlink" x="0px" y="0px"
	viewBox="0 0 500 160" width="500" height="160" style="enable-background:new 0 0 500 160;"
	xml:space="preserve">
<style type="text/css">
	.st0{opacity:0.75;}
	.st1{fill:#999999;}
	.st2{fill:#FFFFFF;}
	.st3{fill:#00AFAB;}
	.st4{fill:#A71917;}
</style>
<g>
	<polygon class="st0" points="154.4,93.21 120.76,34.93 473.77,34.93 490.45,63.58 474.03,93.21 	"/>
	<path class="st1" d="M472.19,37.69l15.09,25.93l-14.87,26.83H156l-30.46-52.75h197.03H472.19 M475.36,32.17H322.57H115.98
		l36.83,63.8h322.85l17.97-32.42L475.36,32.17L475.36,32.17z"/>
	<g>
		<path class="st2" d="M165.31,49.51c0.04-0.26,0.22-0.44,0.48-0.44h7.94c0.26,0,0.44,0.17,0.39,0.44l-1.7,9.6l7.99-9.6
			c0.26-0.31,0.44-0.44,0.83-0.44h9.34c0.39,0,0.48,0.31,0.26,0.57l-10.69,11.7l5.63,16.93c0.09,0.26-0.04,0.48-0.3,0.48h-8.38
			c-0.39,0-0.61-0.13-0.7-0.44l-2.97-10.39l-3.27,3.97l-1.14,6.42c-0.04,0.26-0.22,0.44-0.48,0.44h-7.94
			c-0.26,0-0.44-0.17-0.39-0.44L165.31,49.51z"/>
		<path class="st2" d="M193.1,49.51c0.04-0.26,0.22-0.44,0.48-0.44h7.94c0.26,0,0.44,0.17,0.39,0.44l-5.11,28.8
			c-0.04,0.26-0.22,0.44-0.48,0.44h-7.94c-0.26,0-0.44-0.17-0.39-0.44L193.1,49.51z"/>
		<path class="st2" d="M204.71,55.62c2.36-4.8,6.33-7.07,11.91-7.07c5.32,0,8.55,2.57,9.51,7.07c0.09,0.31,0,0.48-0.31,0.61
			l-6.98,2.71c-0.35,0.13-0.57,0.09-0.65-0.26c-0.31-1.57-1-2.31-2.49-2.31c-1.4,0-2.36,0.79-3.01,2.14
			c-0.7,1.48-1.96,8.16-1.96,10.34c0,1.57,0.87,2.62,2.31,2.62c1.48,0,2.36-0.87,3.27-2.4c0.17-0.35,0.39-0.44,0.65-0.31l6.2,3.58
			c0.26,0.17,0.31,0.35,0.13,0.65c-2.66,4.36-6.2,6.28-11.48,6.28c-5.85,0-9.95-3.36-9.95-9.56
			C201.88,66.58,202.97,59.29,204.71,55.62z"/>
		<path class="st2" d="M230.24,49.51c0.04-0.26,0.22-0.44,0.48-0.44h7.94c0.26,0,0.44,0.17,0.39,0.44l-1.7,9.6l7.99-9.6
			c0.26-0.31,0.44-0.44,0.83-0.44h9.34c0.39,0,0.48,0.31,0.26,0.57l-10.69,11.7l5.63,16.93c0.09,0.26-0.04,0.48-0.3,0.48h-8.38
			c-0.39,0-0.61-0.13-0.7-0.44l-2.97-10.39l-3.27,3.97l-1.14,6.42c-0.04,0.26-0.22,0.44-0.48,0.44h-7.94
			c-0.26,0-0.44-0.17-0.39-0.44L230.24,49.51z"/>
		<path class="st2" d="M258.04,49.51c0.04-0.26,0.22-0.44,0.44-0.44h12.31c5.8,0,8.34,2.36,8.34,6.15c0,3.62-1.7,6.5-4.84,8.16
			l-0.04,0.09c1.83,0.79,3.01,2.71,3.01,5.32c0,6.11-4.84,9.95-11.65,9.95h-12.31c-0.22,0-0.39-0.17-0.35-0.44L258.04,49.51z
			 M263.02,72.43h1.92c2.18,0,3.62-1.35,3.62-3.97c0-1.4-0.78-2.14-2.53-2.14h-1.92c-0.17,0-0.26,0.09-0.3,0.26l-0.96,5.59
			C262.8,72.34,262.89,72.43,263.02,72.43z M266.51,60.82c2.09,0,3.62-1.09,3.62-3.45c0-1.48-0.83-2.01-2.66-2.01h-1.44
			c-0.17,0-0.26,0.09-0.31,0.26l-0.87,4.93c-0.04,0.17,0.04,0.26,0.17,0.26H266.51z"/>
		<path class="st2" d="M279.95,69.68c0-3.06,1.13-10.65,2.84-14.05c2.44-4.93,6.81-7.07,12-7.07c6.33,0,10.39,3.23,10.39,9.6
			c0,3.06-1.14,10.65-2.84,14.05c-2.44,4.93-6.81,7.07-12,7.07C284.01,79.28,279.95,76.05,279.95,69.68z M294.35,69.33
			c0.61-1.27,1.96-8.07,1.96-10.34c0-1.57-0.79-2.62-2.44-2.62c-1.48,0-2.49,0.83-3.1,2.14c-0.61,1.27-1.96,8.07-1.96,10.34
			c0,1.57,0.78,2.62,2.44,2.62C292.74,71.47,293.74,70.64,294.35,69.33z"/>
		<path class="st2" d="M321.76,78.75c-0.39,0-0.61-0.13-0.74-0.44l-2.88-7.07h-0.09l-5.15,7.07c-0.22,0.31-0.44,0.44-0.83,0.44
			h-9.08c-0.26,0-0.35-0.22-0.17-0.44l11.91-15.27l-5.8-13.53c-0.09-0.22,0-0.44,0.31-0.44h8.2c0.39,0,0.57,0.13,0.7,0.44l2.36,5.8
			h0.13l4.19-5.8c0.22-0.26,0.48-0.44,0.79-0.44h8.55c0.26,0,0.35,0.22,0.17,0.44l-10.39,13.83l6.2,14.97c0.09,0.22,0,0.44-0.3,0.44
			H321.76z"/>
		<path class="st3" d="M337.03,49.51c0.04-0.26,0.22-0.44,0.44-0.44h7.33c0.26,0,0.57,0.09,0.65,0.44l3.45,14.23h0.18l8.29-14.23
			c0.17-0.35,0.52-0.44,0.79-0.44h7.81c0.26,0,0.44,0.17,0.39,0.44l-5.11,28.8c-0.04,0.26-0.22,0.44-0.48,0.44h-7.11
			c-0.26,0-0.44-0.17-0.39-0.44l2.49-14.1h-0.17l-5.63,9.91c-0.26,0.48-0.65,0.57-0.87,0.57h-3.71c-0.22,0-0.57-0.13-0.74-0.57
			l-2.14-9.91h-0.17l-2.44,14.1c-0.04,0.26-0.22,0.44-0.48,0.44h-7.11c-0.22,0-0.39-0.17-0.35-0.44L337.03,49.51z"/>
		<path class="st3" d="M363.44,78.32l15.1-28.8c0.09-0.26,0.26-0.44,0.57-0.44h8.6c0.31,0,0.48,0.17,0.48,0.44l4.67,28.8
			c0.04,0.26-0.09,0.44-0.31,0.44h-8.29c-0.31,0-0.48-0.17-0.52-0.44l-0.39-4.06h-8.47l-1.79,4.06c-0.13,0.26-0.31,0.44-0.61,0.44
			h-8.77C363.44,78.75,363.31,78.58,363.44,78.32z M382.68,67.02l-0.74-8.25h-0.09l-3.71,8.25H382.68z"/>
		<path class="st3" d="M400.31,49.51c0.04-0.26,0.22-0.44,0.48-0.44h7.51c0.35,0,0.57,0.13,0.65,0.44l4.32,15.14h0.17l2.66-15.14
			c0.04-0.26,0.22-0.44,0.48-0.44h7.11c0.22,0,0.39,0.17,0.35,0.44l-5.11,28.8c-0.04,0.26-0.22,0.44-0.48,0.44h-7.59
			c-0.26,0-0.48-0.13-0.57-0.44l-4.28-15.14h-0.22l-2.66,15.14c-0.04,0.26-0.22,0.44-0.48,0.44h-7.07c-0.26,0-0.44-0.17-0.39-0.44
			L400.31,49.51z"/>
		<path class="st3" d="M427.85,49.51c0.04-0.26,0.22-0.44,0.48-0.44h7.94c0.26,0,0.44,0.17,0.39,0.44l-5.11,28.8
			c-0.04,0.26-0.22,0.44-0.48,0.44h-7.94c-0.26,0-0.44-0.17-0.39-0.44L427.85,49.51z"/>
		<path class="st3" d="M433.74,78.32l15.1-28.8c0.09-0.26,0.26-0.44,0.57-0.44h8.6c0.31,0,0.48,0.17,0.48,0.44l4.67,28.8
			c0.04,0.26-0.09,0.44-0.31,0.44h-8.29c-0.31,0-0.48-0.17-0.52-0.44l-0.39-4.06h-8.47l-1.79,4.06c-0.13,0.26-0.31,0.44-0.61,0.44
			H434C433.74,78.75,433.61,78.58,433.74,78.32z M452.99,67.02l-0.74-8.25h-0.09l-3.71,8.25H452.99z"/>
	</g>
	<polygon class="st4" points="110.5,32.17 36.83,32.17 0,95.97 36.83,159.76 110.5,159.76 147.33,95.97 	"/>
	<path class="st1" d="M107.22,37.85l33.55,58.11l-33.55,58.11h-67.1L6.56,95.97l33.55-58.11H107.22 M110.5,32.17H36.83L0,95.97
		l36.83,63.8h73.67l36.83-63.8L110.5,32.17L110.5,32.17z"/>
	<path class="st2" d="M211.31,30.36c-0.65-1.01-1.3-2.01-1.96-3c-0.27-0.41-0.54-0.84-0.87-1.2c-1.06-1.16-2.52-1.27-3.94-1.35
		c-1.54-0.09-3.08-0.01-4.62-0.07c-2.55-0.09-5.1-0.24-7.65-0.35c-0.98-0.04-1.97-0.05-2.96-0.07c-1.91-0.05-3.83-0.1-5.74-0.13
		c-0.8-0.01-1.6,0.06-2.4,0.05c-3.24,0-6.48-0.03-9.73-0.02c-0.67,0-1.35,0.16-2.02,0.17c-1.32,0.02-2.64-0.02-3.97-0.02
		c-1.78-0.01-3.56-0.02-5.33,0c-0.76,0.01-1.52,0.16-2.29,0.19c-3.11,0.1-6.23,0.16-9.34,0.26c-0.64,0.02-1.28,0.12-1.92,0.18
		c-1.15,0.11-2.3,0.23-3.44,0.34c-0.81,0.08-1.61,0.18-2.42,0.24c-0.63,0.05-1.27-0.01-1.89,0.07c-0.82,0.11-1.62,0.3-2.42,0.5
		c-0.89,0.22-1.78,0.46-2.64,0.76c-0.86,0.29-1.7,0.67-2.7,1.07c0.11-0.22,0.12-0.27,0.16-0.3c0.8-0.67,1.99-0.96,2.07-2.31
		c0.02-0.34,0.32-0.66,0.46-1c0.12-0.28,0.2-0.57,0.28-0.86c0.09-0.31,0.2-0.62,0.25-0.94c0.09-0.54,0.14-1.08,0.19-1.62
		c0.09-0.97,0.39-1.98,0.21-2.89c-0.33-1.62-0.38-3.33-1.2-4.84c-0.39-0.73-0.58-1.59-1.03-2.28c-0.77-1.19-1.57-2.4-2.56-3.39
		c-1.4-1.4-2.98-2.63-4.5-3.91c-0.35-0.29-0.84-0.42-1.18-0.72c-0.97-0.87-2.21-1.12-3.38-1.39c-1.53-0.36-3.13-0.57-4.71-0.62
		c-1.9-0.06-3.85-0.07-5.72,0.24c-1.56,0.26-3.17,0.74-4.45,1.81c-1.11,0.93-2.34,1.78-3.23,2.89c-1.1,1.37-1.9,2.98-2.85,4.48
		c-0.85,1.34-1.09,2.88-1.46,4.38c-0.16,0.66-0.09,1.37-0.21,2.05c-0.25,1.45-0.79,2.77-1.82,3.86c-0.75,0.79-1.44,1.59-2.72,1.18
		c-0.31-0.1-0.7,0.08-1.06,0.09c-0.88,0.02-1.77,0.06-2.64,0c-1.01-0.07-2.02-0.32-3.03-0.34c-0.75-0.02-1.51,0.35-2.25,0.3
		c-2.87-0.22-5.43,1.04-8.13,1.59c-0.65,0.13-1.19,0.69-1.83,0.92c-0.94,0.34-1.84,0.71-2.56,1.41c-0.76,0.73-1.48,1.51-2.18,2.31
		c-1.22,1.39-2.43,2.8-3.6,4.23c-0.79,0.97-1.49,2.02-2.24,3.03c-0.98,1.31-1.94,2.63-2.96,3.9c-0.53,0.67-1.2,1.22-1.75,1.88
		c-0.53,0.63-1.03,1.3-1.48,2c-0.74,1.14-1.4,2.33-2.17,3.46c-0.88,1.28-1.58,2.64-2.14,4.07c-0.31,0.78-0.48,1.61-0.73,2.4
		c-0.1,0.31-0.26,0.6-0.42,0.88c-0.7,1.22-1.42,2.42-2.1,3.64c-0.27,0.49-0.48,1.01-0.71,1.52c-0.36,0.81-0.77,1.6-1.05,2.43
		c-0.3,0.88-0.45,1.81-0.72,2.7c-0.35,1.16-0.74,2.3-1.11,3.46c-0.2,0.62-0.48,1.23-0.57,1.87c-0.18,1.19-0.26,2.4-0.36,3.6
		c-0.09,1.05,0.03,2.16-0.25,3.15c-0.64,2.25-0.36,4.51-0.36,6.77c0,0.19,0,0.39-0.05,0.57c-0.42,1.37-0.67,2.82-1.7,3.92
		c-1.01,1.07-2.01,2.15-3.05,3.19c-0.66,0.66-1.45,1.18-2.05,1.88c-1.72,1.99-3.04,4.26-4.3,6.55c-0.75,1.35-1.99,2.08-3.24,2.82
		c-1.06,0.63-2.14,1.23-3.16,1.9c-0.78,0.51-1.43,1.23-2.24,1.68c-1.29,0.72-2.4,1.64-3.36,2.74c-0.98,1.11-1.95,2.23-2.81,3.43
		c-0.7,0.97-1.25,2.05-1.83,3.1c-0.59,1.08-1.11,2.2-1.72,3.27c-0.47,0.82-1.04,1.58-1.55,2.37c-0.01,0.01-0.01,0.02-0.02,0.04
		l22.67,39.26h73.67l2.18-3.78c-0.53-0.77-1.08-1.52-1.63-2.28c-0.55-0.77-1.08-1.55-1.69-2.27c-0.95-1.13-1.95-2.22-2.96-3.29
		c-0.75-0.79-1.53-1.56-2.35-2.27c-1.17-1-2.37-1.96-3.59-2.89c-1.36-1.03-2.74-2.04-4.14-3c-0.99-0.68-2.08-1.2-3.05-1.9
		c-0.83-0.6-1.53-1.38-2.33-2.03c-2-1.63-4.05-3.19-6.45-4.18c-0.47-0.2-0.72-0.52-0.71-1.04c0-0.21,0.02-0.56-0.09-0.61
		c-0.88-0.46-1.77-0.93-2.69-1.28c-0.8-0.3-1.77,0.05-2.49-0.65c-0.14-0.14-0.45-0.11-0.68-0.15c-0.99-0.19-1.98-0.38-2.97-0.58
		c-0.11-0.02-0.22-0.1-0.32-0.16c-0.58-0.36-1.16-0.71-1.73-1.08c-0.11-0.07-0.24-0.27-0.22-0.37c0.21-0.76,0.34-1.57,0.71-2.25
		c0.61-1.12,1.4-2.15,2.06-3.25c0.34-0.55,0.69-1.15,0.81-1.77c0.29-1.49,0.98-2.69,2.19-3.57c1.88-1.37,3.52-2.97,4.96-4.79
		c0.6-0.76,1.28-1.48,2.02-2.11c0.73-0.61,1.58-1.08,2.38-1.62c0.9-0.61,1.79-1.23,2.7-1.82c0.66-0.43,1.43-0.75,2.01-1.27
		c0.93-0.83,1.82-1.73,2.57-2.73c0.49-0.65,0.74-0.46,1.24-0.11c0.69,0.47,1.4,1,2.33,0.85c1.14-0.18,2.3-0.17,3.43-0.56
		c1.15-0.4,2.39-0.56,3.6-0.77c1.22-0.21,2.46-0.31,3.67-0.55c1.48-0.29,2.93-0.68,4.39-1.04c0.32-0.08,0.64-0.16,0.94-0.28
		c0.82-0.33,1.6-0.83,2.45-1.01c1.65-0.34,2.96-1.38,4.49-1.96c0.9-0.34,1.75-0.78,2.64-1.15c0.58-0.24,1.2-0.38,1.77-0.64
		c1.9-0.84,3.79-1.74,5.7-2.57c0.68-0.3,1.41-0.6,2.13-0.65c1.16-0.08,2.01-0.71,2.92-1.28c0.85-0.54,1.66-1.14,2.55-1.6
		c1.22-0.63,2.49-1.19,3.77-1.73c0.88-0.37,1.8-0.65,2.69-1c0.74-0.29,1.52-0.54,2.18-0.96c0.68-0.43,1.16-1.11,2.04-1.35
		c0.41-0.11,0.71-0.79,0.97-1.26c0.3-0.55,0.49-1.16,0.76-1.73c0.18-0.38,0.52-0.72,0.6-1.11c0.15-0.74,0.17-1.5,0.24-2.26
		c0.08-0.95,0.17-1.9,0.22-2.84c0.05-0.79,0.02-1.59,0.08-2.37c0.08-0.99-0.78-2.05-1.68-2.02c-0.31,0.01-0.65-0.12-0.92-0.27
		c-0.95-0.55-2.06-0.47-2.88,0.24c-0.4,0.35-0.85,0.65-1.23,1.02c-0.39,0.37-0.72,0.81-1.1,1.19c-0.46,0.45-0.93,0.89-1.43,1.29
		c-0.11,0.09-0.46,0.06-0.54-0.04c-0.09-0.11-0.04-0.39,0.03-0.56c0.16-0.36,0.34-0.72,0.56-1.05c0.19-0.3,0.39-0.72,0.67-0.81
		c0.84-0.27,1.47-0.75,2.04-1.4c0.42-0.48,0.46-1.46-0.03-1.88c-0.8-0.68-3.59-0.48-4.29,0.3c-0.01,0.02,0,0.05-0.02,0.07
		c-0.66,0.72-1.26,1.5-1.99,2.14c-1.24,1.1-2.31,2.34-3.32,3.65c-1.21,1.57-1.58,3.44-2.08,5.27c-0.19,0.68-0.33,1.39-1.04,1.75
		c-0.67,0.33-1.37,0.6-2.01,0.98c-1.17,0.69-2.38,1.21-3.78,1.22c-0.62,0.01-1.25,0.05-1.85,0.17c-0.87,0.17-1.72,0.54-2.6,0.63
		c-2.14,0.23-4.22,0.84-6.43,0.68c-1.85-0.14-3.74,0.18-5.61,0.23c-1.34,0.04-2.67,0.07-3.95,0.55c-0.48,0.18-0.99,0.33-1.49,0.44
		c-0.18,0.04-0.52-0.04-0.56-0.14c-0.07-0.22-0.07-0.54,0.05-0.72c0.81-1.21,1.67-2.4,2.5-3.6c0.26-0.39,0.55-0.79,0.68-1.23
		c0.26-0.87,0.47-1.76,0.62-2.66c0.37-2.14,0.86-4.27,1.01-6.42c0.19-2.72-0.14-5.44-0.78-8.1c-0.05-0.21-0.08-0.43-0.18-0.61
		c-0.58-1.06-1.22-2.09-1.75-3.17c-0.63-1.28-1.18-2.6-1.81-3.98c0.3-0.08,0.59-0.21,0.88-0.21c0.5-0.01,1,0.1,1.49,0.08
		c1.17-0.05,2.35-0.26,3.52-0.2c1.6,0.08,3.03-0.51,4.52-0.88c1.36-0.33,2.66-0.88,3.98-1.35c1.25-0.45,2.48-0.94,3.73-1.39
		c0.72-0.26,1.44-0.54,2.19-0.69c1-0.19,2.03-0.27,3.04-0.39c0.42-0.05,0.85-0.17,1.27-0.16c2.1,0.07,4.2,0.21,6.3,0.24
		c1.12,0.02,2.25-0.1,3.37-0.23c1.05-0.12,2.1-0.32,3.14-0.52c0.51-0.1,1-0.27,1.5-0.4c0.57-0.14,1.14-0.3,1.72-0.39
		c1.73-0.28,3.47-0.5,5.2-0.82c0.71-0.13,1.38-0.45,2.07-0.68c0.87-0.28,1.75-0.52,2.61-0.85c0.67-0.26,1.28-0.64,1.93-0.94
		c1.19-0.55,2.39-1.08,3.58-1.62c0.72-0.33,1.43-0.67,2.15-1.01c0.8-0.38,1.6-0.77,2.42-1.12c0.76-0.33,1.56-0.59,2.32-0.91
		c0.54-0.23,1.06-0.49,1.58-0.77c0.66-0.35,1.29-0.75,1.95-1.08c0.81-0.41,1.64-0.79,2.46-1.17c0.77-0.35,1.53-0.69,2.32-0.99
		c0.78-0.29,1.57-0.53,2.37-0.79c1.15-0.38,2.3-0.79,3.47-1.1c0.89-0.24,1.8-0.4,2.72-0.5c0.93-0.11,1.84-0.13,2.56,0.72
		c0.54,0.64,1.17,1.22,1.83,1.74c0.72,0.57,1.48,1.1,2.28,1.54c0.62,0.35,1.33,0.56,2,0.82c1.43,0.55,2.87,1.08,4.29,1.64
		c0.54,0.21,1.2,0.36,1.55,0.77c0.85,0.99,1.93,1.63,3.04,2.21c0.57,0.3,1.22,0.54,1.85,0.6c1.38,0.14,2.65-1.47,2.18-2.92
		c0.23-0.06,0.46-0.19,0.67-0.17c1.09,0.14,1.8-0.48,2.46-1.19c0.91-0.97,1.82-1.93,2.72-2.9c0.78-0.84,0.99-1.63,0.56-2.36
		C212.72,32.53,212.01,31.45,211.31,30.36z"/>
	<path class="st2" d="M99.12,28.36c0.43,0.06,0.87,0.18,1.3,0.17c0.88-0.03,1.76-0.16,2.65-0.2c1.76-0.07,3.53-0.15,5.29-0.13
		c1.32,0.02,2.64,0.2,3.96,0.32c0.78,0.07,1.57,0.1,2.32,0.27c1.62,0.37,3.23,0.83,4.84,1.25c0.57,0.15,1.18,0.2,1.7,0.44
		c1.16,0.55,2.78,0.42,3.73-0.38c-0.96-0.18-1.93-0.37-2.91-0.54c-1.02-0.18-2.05-0.32-3.06-0.51c-1.22-0.23-2.43-0.56-3.65-0.75
		c-1.7-0.26-3.42-0.42-5.13-0.63c-1.57-0.19-3.14-0.49-4.72-0.55C103.28,27.05,101.11,27.2,99.12,28.36z"/>
	<path class="st2" d="M202.56,35.31c0.09-0.18,0.17-0.3,0.22-0.43c0.11-0.33,0.21-0.66,0.31-1c-0.33-0.04-0.66-0.11-0.99-0.1
		c-0.77,0.02-1.54,0.07-2.31,0.14c-0.17,0.02-0.44,0.15-0.47,0.27c-0.05,0.22-0.02,0.59,0.11,0.68c1,0.68,2,1.38,3.09,1.91
		c0.4,0.19,1.16,0.49,1.5-0.38c-0.27-0.14-0.56-0.25-0.8-0.43C202.98,35.81,202.8,35.56,202.56,35.31z"/>
	<path class="st2" d="M155.96,25.35c-3.99-0.01-8.02-0.34-11.78,1.46c0.36,0.14,0.71,0.15,1.06,0.11c0.92-0.11,1.83-0.24,2.75-0.35
		c0.29-0.03,0.6,0.04,0.86-0.05c1.46-0.47,2.97-0.59,4.49-0.7C154.23,25.77,155.09,25.52,155.96,25.35z"/>
	<path class="st2" d="M198.64,25.53c-0.01,0.11-0.02,0.23-0.03,0.34c0.25,0.02,0.49,0.05,0.74,0.07c0.64,0.04,1.28,0.04,1.92,0.11
		c0.91,0.09,1.82,0.27,2.73,0.34c0.35,0.03,0.71-0.15,1.25-0.28C202.94,25.12,200.76,25.88,198.64,25.53z"/>
	<path class="st2" d="M172.04,24.71c1.24,1.17,2.6,0.21,3.9,0.41c0-0.09,0.01-0.17,0.01-0.26
		C174.65,24.81,173.35,24.76,172.04,24.71z"/>
	<path d="M97.79,29.13c2.55,0.43,5.2-0.07,7.77-0.11c2.68-0.05,5.53,0.09,8.16,0.64c4.09,0.86,8.27,3.27,12.18,0.71
		c0.26-0.17,1.13-0.87,0.32-1.02c-5.23-0.99-10.42-1.86-15.69-2.55c-4.4-0.58-8.38-0.78-12.42,1.32
		C97.58,28.39,97.26,28.77,97.79,29.13c0.53,0.36,1.86-0.28,2.32-0.52c3.44-1.78,8.76-0.19,12.44,0.27c3.68,0.46,7.38,1.3,11.03,2
		c0.11-0.34,0.21-0.68,0.32-1.02c-0.65,0.43-2.45-0.41-3.1-0.58c-0.81-0.21-1.61-0.43-2.42-0.64c-1.83-0.48-3.56-0.78-5.44-0.96
		c-1.93-0.18-3.83-0.31-5.77-0.26c-2.17,0.05-4.6,0.54-6.74,0.18c-0.72-0.12-1.73,0.07-2.32,0.52
		C97.88,28.29,96.98,28.99,97.79,29.13z"/>
	<path d="M204.2,34.96c0.25-0.45,0.38-0.93,0.52-1.43c0.06-0.21-0.12-0.38-0.32-0.41c-1.58-0.21-3.46-0.25-5,0.25
		c-1.19,0.39-2.55,1.47-1.09,2.46c1.04,0.7,2.23,1.67,3.49,1.92c1.39,0.27,3.22-0.42,3.86-1.7c0.04-0.13,0.01-0.24-0.1-0.32
		c-0.61-0.3-1-0.6-1.46-1.1c-0.61-0.67-3.73,0.63-3.07,1.35c0.46,0.5,0.85,0.81,1.46,1.1c-0.03-0.11-0.07-0.21-0.1-0.32
		c0.15-0.08,0.3-0.16,0.45-0.24c0.43-0.12,0.86-0.23,1.29-0.35c0.28-0.04-0.18-0.12-0.36-0.22c-0.39-0.2-0.77-0.43-1.14-0.66
		c-0.37-0.23-0.74-0.48-1.1-0.73c-0.17-0.12-0.34-0.23-0.52-0.35c-0.01-0.28-0.14-0.28-0.4,0c-0.42,0.16-0.83,0.32-1.25,0.47
		c0.72-0.19,1.68-0.15,2.41-0.05c-0.11-0.14-0.21-0.27-0.32-0.41c-0.15,0.49-0.28,0.97-0.52,1.43c-0.32,0.59,1.21,0.41,1.39,0.37
		C202.98,35.89,203.86,35.6,204.2,34.96z"/>
	<path d="M156.98,24.55c-4.64-0.03-9.1-0.08-13.43,1.83c-0.25,0.11-1.68,0.98-0.7,1.21c1.77,0.4,3.77-0.03,5.54-0.3
		c2.43-0.36,4.9-0.7,7.31-1.21c1.41-0.3,2.82-1.94,0.5-1.45c-1.87,0.4-3.76,0.44-5.62,0.81c-1.54,0.3-3.55,0.96-5.08,0.61
		c-0.23,0.4-0.46,0.8-0.7,1.21c3.19-1.41,6.72-1.12,10.12-1.1c0.65,0,1.91-0.18,2.33-0.76C157.57,24.97,157.81,24.55,156.98,24.55z"
		/>
	<path d="M197,25.89c-0.01,0.11-0.02,0.23-0.03,0.34c-0.03,0.38,0.3,0.42,0.61,0.45c1.4,0.14,2.79,0.19,4.18,0.38
		c1.17,0.15,2.09,0.08,3.24-0.23c0.37-0.1,2.76-1.04,1.57-1.49c-2.21-0.84-4.35-0.27-6.62-0.57c-0.79-0.1-1.64,0.1-2.32,0.52
		c-0.26,0.16-1.13,0.91-0.32,1.02c2.22,0.29,4.48-0.24,6.62,0.57c0.52-0.5,1.05-0.99,1.57-1.49c-0.96,0.26-1.76,0.03-2.75-0.08
		c-1.04-0.12-2.08-0.12-3.12-0.23c0.2,0.15,0.41,0.3,0.61,0.45c0.01-0.11,0.02-0.23,0.03-0.34C200.36,24.2,197.07,24.99,197,25.89z"
		/>
	<path d="M170.51,25.39c0.64,0.54,1.39,0.73,2.22,0.72c0.73-0.01,1.46-0.25,2.19-0.18c0.54,0.06,1.17-0.15,1.65-0.37
		c0.25-0.11,0.99-0.44,1.01-0.8c0-0.09,0.01-0.17,0.01-0.26c0.02-0.37-0.29-0.44-0.61-0.45c-1.3-0.05-2.61-0.1-3.91-0.15
		c-0.77-0.03-1.73,0.25-2.33,0.76c-0.48,0.41-0.41,0.83,0.28,0.85c1.3,0.05,2.61,0.1,3.91,0.15c-0.2-0.15-0.41-0.3-0.61-0.45
		c0,0.09-0.01,0.17-0.01,0.26c0.89-0.39,1.78-0.77,2.67-1.16c-1.18-0.13-2.4,0.56-3.39-0.28C172.85,23.42,169.84,24.82,170.51,25.39
		z"/>
	<path d="M210.13,25.63c-2.55-2.67-7.79-1.62-11.1-1.77c-4.94-0.22-9.89-0.52-14.83-0.47c-9.39,0.1-18.76,0.2-28.14,0.45
		c-7.3,0.2-14.66,0.34-21.65,2.34c0.35-0.5,0.47-1.04,0.69-1.66c0.68-1.98,1.23-3.97,1.27-6.11c0.08-4.49-2.38-9.1-5.55-12.13
		c-3.53-3.38-6.85-5.52-11.77-6.05c-4.26-0.46-9.24-0.39-13.07,1.79c-3.8,2.16-7.15,6.28-8.53,10.43c-0.66,1.98-0.53,4.12-1.23,6.06
		c-0.23,0.63-0.58,1.11-0.87,1.7c0.68-1.37-0.68,0.83-0.43,0.85c-0.6,0.27-2.48,0.06-3.04,0.05c-1.19-0.02-2.35-0.29-3.53-0.35
		c-1.14-0.05-2.34,0.17-3.48,0.24c-2.12,0.13-4.06,0.61-6.09,1.19c-4.2,1.19-7.38,2.72-10.31,6.03c-3.53,3.98-6.41,8.47-9.96,12.42
		c-2.84,3.15-5.63,7.47-6.88,11.55c-0.65,2.11-1.86,3.78-2.87,5.73c-1.33,2.58-2,5.21-2.88,7.95c-0.73,2.29-1.37,4.31-1.56,6.72
		c-0.18,2.27-0.61,4.51-0.72,6.77c-0.13,2.52,0.31,5-0.91,7.35c-1.15,2.21-3.57,3.87-5.31,5.58c-1.66,1.64-2.88,3.72-4.05,5.72
		c-0.82,1.39-1.46,2.47-2.84,3.36c-1.24,0.8-2.56,1.46-3.78,2.28c-3.7,2.49-7,5.18-9.43,9c-1.28,2-2.17,4.21-3.42,6.22
		c-0.11,0.17-0.22,0.35-0.33,0.52l1.35,2.34c0.99-1.59,2.07-3.13,2.96-4.78c1.26-2.34,2.39-4.68,4.07-6.76
		c3.11-3.85,7.15-6,11.2-8.7c3.53-2.36,4.51-6.93,7.63-9.77c2.83-2.57,5.84-5.15,6.19-9.19c0.41-4.64-0.06-9.74,1.22-14.28
		c1.29-4.61,2.76-9.07,5.16-13.22c1.04-1.79,1.49-3.57,2.29-5.45c0.95-2.22,2.38-4.26,3.68-6.28c1.22-1.9,2.83-3.4,4.2-5.18
		c1.52-1.96,2.91-4.02,4.44-5.97c1.46-1.85,3-3.73,4.66-5.41c1.72-1.74,3.89-2.56,6.19-3.21c4.77-1.35,9.41-0.74,14.29-0.84
		c2.91-0.06,5.22-1.82,6.31-4.54c0.86-2.15,0.66-4.56,1.48-6.76c0.99-2.66,2.92-5.42,5.05-7.27c4.66-4.05,13.53-3.06,18.28,0.49
		c4.44,3.31,7.99,7.55,8.7,13.2c0.28,2.23,0.05,4.82-0.78,6.95c-0.45,1.15-0.86,1.75-1.76,2.6c-0.29,0.27-0.52,0.42-0.71,0.67
		c-0.08,0.08-0.12,0.14-0.13,0.21c-0.03,0.05-0.05,0.08-0.08,0.13c-0.11,0.23,0.26,0.32,0.79,0.29c0.44,0.04,1.01-0.01,1.48-0.2
		c7.35-3,15.89-2.79,23.73-3.01c7.6-0.22,15.19-0.39,22.79-0.37c7.83,0.02,15.64,0.42,23.47,0.52c2.32,0.03,4.29-0.02,5.83,2.02
		c1.17,1.55,2.17,3.3,3.21,4.94c0.41,0.66,1.34,1.75,1.2,2.61c-0.12,0.73-1.2,1.66-1.7,2.18c-0.49,0.53-1.02,1.33-1.63,1.74
		c0.18,0.26,0.09,0.34-0.28,0.24c-0.37,0.05-0.73,0.13-1.09,0.23c-0.44,0.11-2.01,0.53-1.9,1.26c0.19,1.23,0.35,1.67-0.85,1.1
		c-0.67-0.31-1.34-0.72-1.92-1.17c-1.35-1.04-2.11-1.61-3.74-2.23c-1.72-0.65-3.59-1.18-5.22-2.03c-1.83-0.95-2.98-2.77-4.68-3.77
		c-2.21-1.29-6.02,0.18-8.18,0.87c-3.33,1.07-6.58,2.24-9.68,3.87c-3.16,1.66-6.44,3.03-9.68,4.53c-3.69,1.71-7.37,3.63-11.42,4.27
		c-3.55,0.56-7.07,1.62-10.66,1.9c-3.63,0.28-7.2-0.29-10.82,0.15c-3.62,0.44-6.85,1.89-10.26,3.11c-2.17,0.78-4.27,1.31-6.57,1.44
		c-1.93,0.11-3.91-0.04-5.8,0.41c-0.27,0.06-2.18,0.62-1.9,1.26c1.07,2.4,2.61,4.73,3.56,7.15c1.1,2.81,1.19,6.5,0.88,9.45
		c-0.26,2.58-0.57,5.75-1.55,8.16c-0.5,1.23-3.96,4.39-3.23,5.74c0.5,0.92,2.52,0.18,3.15,0.01c3.06-0.81,6.39-0.83,9.55-0.81
		c2.4,0.02,4.82-0.42,7.17-0.85c2.36-0.43,4.99-0.57,7.23-1.5c1.48-0.62,3.72-1.37,4.78-2.63c1.51-1.8,1.29-4.71,2.69-6.7
		c1.32-1.88,3.12-3.71,4.82-5.25c-0.75,0.68,0.7-0.76,0.6-0.75c0.51-0.05,1.24,0.98,1.3,1.36c0.17,1.04-1.86,1.63-2.53,2.39
		c-0.56,0.64-1.53,2.08-0.69,2.7c0.89,0.65,2.72-0.36,3.41-0.88c1.61-1.22,2.8-3.72,5.09-2.37c1.81,1.07,0.91,6.35,0.54,8.18
		c-0.36,1.77-1.33,3.59-2.7,4.7c-2.24,1.81-5.32,2.45-7.92,3.66c-2.05,0.95-3.94,2.69-6.08,3.32c-2.46,0.73-4.72,1.7-7.08,2.77
		c-4.49,2.03-9.2,4.34-13.91,5.7c-2.66,0.77-5.39,1.05-8.1,1.53c-1.33,0.24-2.66,0.75-3.98,0.91c-1.02,0.13-1.96,0.08-2.91-0.36
		c-0.37-0.17-0.65-0.46-1.06-0.55c-1.25-0.28-2.53,0.39-3.39,1.22c-0.87,0.84-1.5,1.86-2.46,2.62c-1.03,0.81-2.27,1.44-3.36,2.18
		c-1.74,1.17-3.55,2.21-5,3.74c-0.93,0.98-1.72,2.09-2.66,3.06c-1.11,1.15-2.43,2.02-3.59,3.1c-1.47,1.36-1.59,3.02-2.44,4.71
		c-0.75,1.48-3.66,4.38-3.11,6.24c0.33,1.13,2.3,1.74,3.33,2c1.98,0.48,4.07,0.78,5.97,1.49c0.55,0.2,1.52,0.55,1.88,1.04
		c0.19,0.26,0.06,0.81,0.31,1.16c0.5,0.7,2.05,1.1,2.8,1.55c2.52,1.5,4.47,3.66,6.86,5.29c5.12,3.5,10.08,6.79,14.27,11.44
		c2.01,2.23,3.82,4.63,5.38,7.16l1.89-3.27c-3.38-4.82-7.64-9.04-12.32-12.55c-1.5-1.12-3.01-2.23-4.61-3.2
		c-1.81-1.1-3.26-2.43-4.91-3.75c-1.58-1.27-3.22-2.32-5-3.29c-0.35-0.19-0.78-0.25-1.05-0.57c-0.25-0.3-0.16-0.59-0.34-0.86
		c-0.34-0.52-0.17-0.49-0.86-0.92c-2.69-1.66-6.04-1.31-8.78-2.65c-0.91-0.45-1.4-0.72-1.36-1.73c0.05-1.02,0.91-2.14,1.41-2.92
		c0.84-1.29,1.62-2.46,2.07-3.94c0.74-2.42,2.78-3.46,4.51-5.14c1.57-1.52,2.77-3.44,4.5-4.79c1.71-1.33,3.69-2.48,5.52-3.62
		c1.23-0.77,2.12-1.76,3.05-2.75c0.45,0.28,0.91,0.59,1.38,0.65c1.26,0.16,2.79-0.15,4.01-0.41c3.87-0.82,7.79-1.42,11.64-2.38
		c2.54-0.63,5.07-1.55,7.43-2.68c2.98-1.43,6.05-2.59,9.05-3.96c2.88-1.31,6-1.89,8.68-3.59c3.01-1.91,6.11-3.07,9.38-4.42
		c1.69-0.7,3.97-1.87,5.06-3.37c1.87-2.57,2.04-5.6,2.21-8.66c0.13-2.27,0.41-4-1.91-4.81c-1.59-0.55-3-0.72-4.4-0.32
		c0.38-0.8,0.32-1.65-0.78-2.16c-4.52-2.07-8.68,3.15-11.09,5.99c-0.95,1.12-1.78,2.26-2.32,3.64c-0.43,1.11-0.48,2.61-1.06,3.63
		c-0.95,1.64-3.7,2.09-5.32,2.34c-1.93,0.29-3.82,0.79-5.75,1.09c-4.15,0.66-8.45,0.08-12.61,0.8c-0.05,0.01-2.03,0.47-2,0.51
		c-0.26-0.33,1.09-1.96,1.21-2.14c1.09-1.57,1.84-2.74,2.25-4.63c0.87-3.94,1.53-7.98,1.05-12.02c-0.45-3.81-2.31-6.92-3.91-10.31
		c1.2-0.02,2.44,0.05,3.53-0.02c1.55-0.1,3.02-0.53,4.51-0.94c3.66-1.01,7.23-3.1,11-3.58c3.88-0.49,7.74,0.15,11.62-0.23
		c3.88-0.38,7.68-1.44,11.53-2.07c3.4-0.56,6.55-1.94,9.65-3.39c3.55-1.65,7.25-3.06,10.75-4.8c3.84-1.92,7.52-3.72,11.67-4.93
		c1.74-0.51,3.19-0.79,4.7,0.34c0.8,0.6,1.45,1.39,2.28,1.99c1.44,1.03,2.97,1.6,4.62,2.22c2.27,0.86,3.99,1.56,5.89,3.02
		c1.17,0.9,2.76,1.81,4.29,1.9c2.18,0.13,4.65-1.22,4.87-3.41c0.57-0.14,1.13-0.34,1.7-0.71c1.49-0.97,2.9-2.65,4.01-4.02
		c1.38-1.71,0.76-2.66-0.33-4.39C212.82,29.57,211.68,27.24,210.13,25.63z"/>
	<polygon class="st1" points="133.21,109.06 107.22,154.08 40.11,154.08 14.13,109.06 7.56,109.06 36.83,159.76 110.5,159.76
		139.77,109.06 	"/>
</g>
</svg>