<svg height="128" viewBox="0 0 128 128" width="128" xmlns="http://www.w3.org/2000/svg"><g fill="none" fill-rule="evenodd"><path d="m0 0h128v128h-128z" fill="#dadadb"/><path d="m46 92.876v-12.136l21.156-22.96c1.0933388-1.1480057 1.8586645-2.159329 2.296-3.034s.656-1.9406604.656-3.198c0-1.5853413-.437329-2.8836616-1.312-3.895s-2.1866579-1.517-3.936-1.517c-.6013363 0-1.2299967.0819992-1.886.246s-1.2436641.4646645-1.763.902-.9429984 1.0113298-1.271 1.722-.492 1.6399943-.492 2.788h-13.448c0-2.8426809.5056616-5.3709889 1.517-7.585s2.3779914-4.0863257 4.1-5.617 3.717322-2.6786628 5.986-3.444 4.6876538-1.148 7.257-1.148c2.6786801 0 5.1659885.4099959 7.462 1.23s4.2776583 1.9816592 5.945 3.485c1.6673417 1.5033409 2.965662 3.3483224 3.895 5.535s1.394 4.646653 1.394 7.38c0 1.5306743-.1503318 2.9109939-.451 4.141-.3006682 1.2300062-.7653302 2.3916612-1.394 3.485s-1.3939955 2.1866612-2.296 3.28-1.9269943 2.2413273-3.075 3.444l-13.94 14.76h21.156v12.136z" fill="#000"/></g></svg>