<svg height="128" viewBox="0 0 128 128" width="128" xmlns="http://www.w3.org/2000/svg"><g fill="none" fill-rule="evenodd"><path d="m0 0h128v128h-128z" fill="#3b593e"/><path d="m69.42 75.098c0-2.1866776-.5876608-3.8403277-1.763-4.961s-2.5829918-1.681-4.223-1.681-3.0476608.5603277-4.223 1.681-1.763 2.7743224-1.763 4.961.5876608 3.8403277 1.763 4.961 2.5829918 1.681 4.223 1.681 3.0476608-.5603277 4.223-1.681 1.763-2.7743224 1.763-4.961zm13.448 0c0 3.1160156-.5193281 5.835655-1.558 8.159-1.0386719 2.3233449-2.4463244 4.2776587-4.223 5.863-1.7766755 1.5853413-3.8403216 2.7743294-6.191 3.567s-4.8379869 1.189-7.462 1.189-5.1113216-.3963294-7.462-1.189-4.4143244-1.9816587-6.191-3.567c-1.7766755-1.5853413-3.1843281-3.5396551-4.223-5.863-1.0386719-2.323345-1.558-5.0429844-1.558-8.159 0-3.0066817.5876608-5.8903195 1.763-8.651s2.4463265-5.5349861 3.813-8.323l11.234-23.124h14.76l-11.562 22.878c.6013363-.2186678 1.1889971-.3416665 1.763-.369s1.0796645-.041 1.517-.041c1.804009 0 3.6216575.3826628 5.453 1.148s3.4986591 1.8859926 5.002 3.362 2.7333286 3.3073224 3.69 5.494c.9566715 2.1866776 1.435 4.7286522 1.435 7.626z" fill="#aedf71"/></g></svg>