<?xml version="1.0" encoding="utf-8"?>
<!-- Generator: Adobe Illustrator 25.4.1, SVG Export Plug-In . SVG Version: 6.00 Build 0)  -->
<svg version="1.1" id="Ebene_1" xmlns="http://www.w3.org/2000/svg" xmlns:xlink="http://www.w3.org/1999/xlink" x="0px" y="0px"
	 viewBox="0 -28 167 167" style="enable-background:new 0 0 256 170;" xml:space="preserve" width="256" height="170">
<style type="text/css">
	.st0{fill:url(#SVGID_1_);}
	.st1{fill:url(#SVGID_00000106138407025940143580000011298669865441256628_);}
	.st2{display:none;}
	.st3{display:inline;opacity:0.93;fill:url(#SVGID_00000013184850362590157070000001986322282847413168_);}
	.st4{display:inline;opacity:0.8;fill:url(#SVGID_00000064317565430171028260000010040713857665266615_);}
	.st5{display:inline;opacity:0.93;fill:url(#SVGID_00000112617139161000778660000002071951486368559488_);}
	.st6{display:inline;opacity:0.8;fill:url(#SVGID_00000126311699486912778640000000441067591273540747_);}
	.st7{display:inline;opacity:0.93;fill:url(#SVGID_00000175285393381185550380000007836800352963072948_);}
	.st8{display:inline;opacity:0.8;fill:url(#SVGID_00000005955746085472959740000001839606853225775016_);}
	.st9{display:inline;opacity:0.93;fill:url(#SVGID_00000145745601656597430630000005340375256409029035_);}
</style>
<g id="LEFT_HAND_SIDE">
	<linearGradient id="SVGID_1_" gradientUnits="userSpaceOnUse" x1="2.728484e-12" y1="53.4708" x2="167.2547" y2="53.4708">
		<stop  offset="0" style="stop-color:#26160F"/>
		<stop  offset="0.9976" style="stop-color:#E2A58D"/>
	</linearGradient>
	<path class="st0" d="M34.41,0.13c-9.08,0-16.84,6.52-18.41,15.46L0,106.81h148.55L167.25,0.13H34.41z M127.34,62.76
		c-5.13,24.29-28.98,39.83-53.27,34.7c-9.52-2.01-17.7-6.9-23.81-13.57c0.22-1.6,0.46-3.2,0.76-4.79c0.8-4.16,2.66-7.78,5.98-10.53
		c2.47-2.04,5.32-3.34,8.36-4.26c1.36-0.41,2.74-0.73,4.14-1.1c-0.18-3.43-0.2-6.82,1.95-9.75c0.27,1.84,0.42,3.67,0.64,5.48
		c0.51,4.32,2.37,6.39,6.66,7.11c2.11,0.35,4.28,0.32,6.42,0.51c1.69,0.15,3.39,0.27,5.05,0.6c3.11,0.62,4.94,2.55,5.42,5.74
		c0.15,1.03,0.38,2.05,0.66,3.05c0.46,1.67,1.58,2.63,3.3,2.92c1.33,0.22,2.62,0.06,3.9-0.28c0.68-0.18,1.35-0.41,2.09-0.65
		c-0.97-1.15-1.84-2.19-2.79-3.3c0.37-0.33,0.71-0.63,1.04-0.93c1.5-1.37,1.98-1.3,3.03,0.45c0.46,0.78,0.87,1.59,1.36,2.35
		c0.4,0.63,0.75,0.63,1.1-0.02c0.42-0.77,0.78-1.59,1.04-2.42c0.46-1.46,0.83-2.94,1.19-4.21c-1.07-0.68-2.1-1.14-2.87-1.86
		c-1.64-1.55-3.29-3.13-4.69-4.89c-3.48-4.36-6.03-9.3-8.25-14.39c-0.14-0.33-0.27-0.68-0.48-0.97c-3.26-4.34-6.72-8.5-10.83-12.07
		c-0.52-0.46-1.22-0.83-1.89-0.98c-1.34-0.29-2.73-0.36-4.1-0.58c-1.76-0.28-3.52-0.6-5.27-0.95c-0.73-0.15-1.27-0.61-1.77-1.17
		c-1.05-1.19-2.13-2.36-3.27-3.46c-0.83-0.81-1.78-1.49-2.76-2.3c-0.44,1.96-1.05,4.85-1.23,5.48c-0.19,1.5-5.6,3.62-7.34,4.38
		c-1.32,0.57-9.84,3.43-17.11,6.69C45.42,19.3,68.81,4.45,92.63,9.48C116.93,14.61,132.46,38.46,127.34,62.76z"/>
</g>
<g id="LEFT_HAND_SIDE_DARKER">

		<linearGradient id="SVGID_00000003070539905955589590000015802786727532301240_" gradientUnits="userSpaceOnUse" x1="2.728484e-12" y1="53.4708" x2="167.2547" y2="53.4708">
		<stop  offset="0" style="stop-color:#0F0906"/>
		<stop  offset="0.9976" style="stop-color:#261710"/>
	</linearGradient>
	<path style="fill:url(#SVGID_00000003070539905955589590000015802786727532301240_);" d="M34.41,0.13
		c-9.08,0-16.84,6.52-18.41,15.46L0,106.81h148.55L167.25,0.13H34.41z M127.34,62.76c-5.13,24.29-28.98,39.83-53.27,34.7
		c-9.52-2.01-17.7-6.9-23.81-13.57c0.22-1.6,0.46-3.2,0.76-4.79c0.8-4.16,2.66-7.78,5.98-10.53c2.47-2.04,5.32-3.34,8.36-4.26
		c1.36-0.41,2.74-0.73,4.14-1.1c-0.18-3.43-0.2-6.82,1.95-9.75c0.27,1.84,0.42,3.67,0.64,5.48c0.51,4.32,2.37,6.39,6.66,7.11
		c2.11,0.35,4.28,0.32,6.42,0.51c1.69,0.15,3.39,0.27,5.05,0.6c3.11,0.62,4.94,2.55,5.42,5.74c0.15,1.03,0.38,2.05,0.66,3.05
		c0.46,1.67,1.58,2.63,3.3,2.92c1.33,0.22,2.62,0.06,3.9-0.28c0.68-0.18,1.35-0.41,2.09-0.65c-0.97-1.15-1.84-2.19-2.79-3.3
		c0.37-0.33,0.71-0.63,1.04-0.93c1.5-1.37,1.98-1.3,3.03,0.45c0.46,0.78,0.87,1.59,1.36,2.35c0.4,0.63,0.75,0.63,1.1-0.02
		c0.42-0.77,0.78-1.59,1.04-2.42c0.46-1.46,0.83-2.94,1.19-4.21c-1.07-0.68-2.1-1.14-2.87-1.86c-1.64-1.55-3.29-3.13-4.69-4.89
		c-3.48-4.36-6.03-9.3-8.25-14.39c-0.14-0.33-0.27-0.68-0.48-0.97c-3.26-4.34-6.72-8.5-10.83-12.07c-0.52-0.46-1.22-0.83-1.89-0.98
		c-1.34-0.29-2.73-0.36-4.1-0.58c-1.76-0.28-3.52-0.6-5.27-0.95c-0.73-0.15-1.27-0.61-1.77-1.17c-1.05-1.19-2.13-2.36-3.27-3.46
		c-0.83-0.81-1.78-1.49-2.76-2.3c-0.44,1.96-1.05,4.85-1.23,5.48c-0.19,1.5-5.6,3.62-7.34,4.38c-1.32,0.57-9.84,3.43-17.11,6.69
		C45.42,19.3,68.81,4.45,92.63,9.48C116.93,14.61,132.46,38.46,127.34,62.76z"/>
</g>
<g id="RIGHT_SIDE_BOX" class="st2">

		<linearGradient id="SVGID_00000001661363496591594690000011715792934272177811_" gradientUnits="userSpaceOnUse" x1="164.5564" y1="19.9231" x2="164.5564" y2="142.0306">
		<stop  offset="0" style="stop-color:#1658E5"/>
		<stop  offset="1" style="stop-color:#082969"/>
	</linearGradient>
	<path style="display:inline;opacity:0.93;fill:url(#SVGID_00000001661363496591594690000011715792934272177811_);" d="
		M405.42,120.81h-518.52l16.17-92.21c1.58-9.04,9.43-15.63,18.61-15.63h520.52l-15.82,90.24
		C424.6,113.38,415.76,120.81,405.42,120.81z"/>

		<linearGradient id="SVGID_00000136404708611305221830000004079035302864261508_" gradientUnits="userSpaceOnUse" x1="164.5564" y1="82.3246" x2="164.5564" y2="40.8828">
		<stop  offset="0" style="stop-color:#04172A"/>
		<stop  offset="1" style="stop-color:#042C46"/>
	</linearGradient>
	<path style="display:inline;opacity:0.8;fill:url(#SVGID_00000136404708611305221830000004079035302864261508_);" d="
		M405.42,120.81h-518.52l16.17-92.21c1.58-9.04,9.43-15.63,18.61-15.63h520.52l-15.82,90.24
		C424.6,113.38,415.76,120.81,405.42,120.81z"/>

		<linearGradient id="SVGID_00000162349563277342945750000000480819053579219620_" gradientUnits="userSpaceOnUse" x1="164.5564" y1="19.9231" x2="164.5564" y2="142.0306">
		<stop  offset="0" style="stop-color:#1658E5"/>
		<stop  offset="1" style="stop-color:#082969"/>
	</linearGradient>
	<path style="display:inline;opacity:0.93;fill:url(#SVGID_00000162349563277342945750000000480819053579219620_);" d="
		M405.42,120.81h-518.52l16.17-92.21c1.58-9.04,9.43-15.63,18.61-15.63h520.52l-15.82,90.24
		C424.6,113.38,415.76,120.81,405.42,120.81z"/>

		<linearGradient id="SVGID_00000128454177206861551560000009181611224344029616_" gradientUnits="userSpaceOnUse" x1="164.5564" y1="82.3246" x2="164.5564" y2="40.8828">
		<stop  offset="0" style="stop-color:#04172A"/>
		<stop  offset="1" style="stop-color:#042C46"/>
	</linearGradient>
	<path style="display:inline;opacity:0.8;fill:url(#SVGID_00000128454177206861551560000009181611224344029616_);" d="
		M405.42,120.81h-518.52l16.17-92.21c1.58-9.04,9.43-15.63,18.61-15.63h520.52l-15.82,90.24
		C424.6,113.38,415.76,120.81,405.42,120.81z"/>
</g>
<g id="RIGHT_SIDE_BOX_DARKER">
</g>
<g id="Layer_7">
</g>
<g id="RIGHT_SIDE_BLUE_BOX" class="st2">

		<linearGradient id="SVGID_00000096041493524314863970000001159777693435426196_" gradientUnits="userSpaceOnUse" x1="164.5564" y1="19.9231" x2="164.5564" y2="142.0306">
		<stop  offset="0" style="stop-color:#1658E5"/>
		<stop  offset="1" style="stop-color:#082969"/>
	</linearGradient>
	<path style="display:inline;opacity:0.93;fill:url(#SVGID_00000096041493524314863970000001159777693435426196_);" d="
		M405.42,120.81h-518.52l16.17-92.21c1.58-9.04,9.43-15.63,18.61-15.63h520.52l-15.82,90.24
		C424.6,113.38,415.76,120.81,405.42,120.81z"/>

		<linearGradient id="SVGID_00000021816566299340618660000000015074366960866478_" gradientUnits="userSpaceOnUse" x1="164.5564" y1="82.3246" x2="164.5564" y2="40.8828">
		<stop  offset="0" style="stop-color:#04172A"/>
		<stop  offset="1" style="stop-color:#042C46"/>
	</linearGradient>
	<path style="display:inline;opacity:0.8;fill:url(#SVGID_00000021816566299340618660000000015074366960866478_);" d="
		M405.42,120.81h-518.52l16.17-92.21c1.58-9.04,9.43-15.63,18.61-15.63h520.52l-15.82,90.24
		C424.6,113.38,415.76,120.81,405.42,120.81z"/>

		<linearGradient id="SVGID_00000010277539705510967890000008598634217249998729_" gradientUnits="userSpaceOnUse" x1="164.5564" y1="19.9231" x2="164.5564" y2="142.0306">
		<stop  offset="0" style="stop-color:#1658E5"/>
		<stop  offset="1" style="stop-color:#082969"/>
	</linearGradient>
	<path style="display:inline;opacity:0.93;fill:url(#SVGID_00000010277539705510967890000008598634217249998729_);" d="
		M405.42,120.81h-518.52l16.17-92.21c1.58-9.04,9.43-15.63,18.61-15.63h520.52l-15.82,90.24
		C424.6,113.38,415.76,120.81,405.42,120.81z"/>
</g>
<g id="TEXT">
</g>
</svg>
