<?xml version="1.0" encoding="UTF-8"?><svg id="a" xmlns="http://www.w3.org/2000/svg" width="60" height="72" viewBox="0 0 60 72"><defs><style>.c{fill:#fff;}</style></defs><path id="b" class="c" d="M54.656,29.936l-3.535-26.605L26.312,13.572l10.16,5.866-6.821,11.817c-1.714-.489-3.465-.736-5.205-.736-6.598,0-13.021,3.42-16.551,9.533-5.258,9.107-2.125,20.795,6.982,26.054,4.412,2.548,9.553,3.225,14.473,1.905,4.921-1.318,9.033-4.475,11.581-8.887,4.458-7.722,2.866-17.284-3.266-23.225l6.83-11.83,10.161,5.866Zm-21.063,24.952c-1.961,3.396-5.531,5.298-9.196,5.298-1.798,0-3.617-.457-5.282-1.419-5.062-2.922-6.802-9.417-3.879-14.479,1.415-2.452,3.7-4.206,6.436-4.938,2.734-.734,5.59-.357,8.043,1.059,5.062,2.922,6.802,9.418,3.879,14.479Z"/></svg>