<?xml version="1.0" encoding="UTF-8"?><svg id="a" xmlns="http://www.w3.org/2000/svg" width="60" height="72" viewBox="0 0 60 72"><defs><style>.c{fill:#fff;}</style></defs><path id="b" class="c" d="M51.922,32.938l4.632-8.022-10.793-6.231,6.232-10.794-8.022-4.632-6.232,10.793-10.793-6.231-4.632,8.023,10.793,6.231-5.339,9.249c-1.697-.488-3.446-.743-5.21-.743-1.657,0-3.324,.218-4.967,.658-4.921,1.318-9.034,4.475-11.581,8.887s-3.224,9.552-1.905,14.473c1.318,4.921,4.474,9.033,8.886,11.581,4.412,2.547,9.552,3.224,14.473,1.905,4.921-1.318,9.034-4.475,11.581-8.887s3.224-9.552,1.906-14.473c-.908-3.39-2.706-6.381-5.168-8.757l5.347-9.262,10.793,6.231Zm-20.215,22.023c-1.961,3.396-5.532,5.298-9.197,5.298-1.797,0-3.617-.457-5.282-1.419-5.061-2.922-6.802-9.417-3.88-14.479,2.922-5.062,9.418-6.804,14.479-3.879,5.062,2.922,6.802,9.417,3.879,14.479Z"/></svg>