<svg xmlns="http://www.w3.org/2000/svg" xmlns:xlink="http://www.w3.org/1999/xlink" viewBox="0 0 654.41 300" width="654" height="300"><defs><linearGradient id="linear-gradient" x1="330.15" y1="0.43" x2="330.15" y2="269.3" gradientUnits="userSpaceOnUse"><stop offset="0" stop-color="#1658e5"/><stop offset="1" stop-color="#082969"/></linearGradient><linearGradient id="linear-gradient-2" x1="330.01" y1="208.86" x2="330.01" y2="-60.09" gradientUnits="userSpaceOnUse"><stop offset="0" stop-color="#04172a"/><stop offset="1" stop-color="#022841"/></linearGradient></defs><g id="Ebene_2" data-name="Ebene 2"><g id="PP"><g id="BLUE_dogs" data-name="BLUE dogs"><path d="M562.52,269.39H5.89L46.29,39A47.19,47.19,0,0,1,92.77,0H654.41L614.88,225.41A53.16,53.16,0,0,1,562.52,269.39Z" opacity="0.9" fill="url(#linear-gradient)"/><path d="M562.25,269.39H5.89L46.29,39A47.19,47.19,0,0,1,92.77,0H654.14L614.61,225.41A53.17,53.17,0,0,1,562.25,269.39Z" opacity="0.8" fill="url(#linear-gradient-2)"/><path d="M0,300H556.63A53.16,53.16,0,0,0,609,256l4.11-23.41a53.17,53.17,0,0,1-50.58,36.78H5.89" fill="#d5d5d4" opacity="0.9"/></g></g></g></svg>