<svg xmlns="http://www.w3.org/2000/svg" xmlns:xlink="http://www.w3.org/1999/xlink" viewBox="0 0 342.24 82.26" width="342" height="82"><defs><linearGradient id="Unbenannter_Verlauf_27" x1="114.62" y1="82.26" x2="114.62" y2="56.51" gradientUnits="userSpaceOnUse"><stop offset="0" stop-color="#e6e6e6"/><stop offset="1" stop-color="#e6e6e8"/></linearGradient><linearGradient id="Unbenannter_Verlauf_30" x1="263.34" y1="0.09" x2="263.34" y2="54.21" gradientTransform="matrix(1, 0, -0.17, 1, 0, 0)" gradientUnits="userSpaceOnUse"><stop offset="0" stop-color="#3f62a9"/><stop offset="1" stop-color="#1d3c5e"/></linearGradient><linearGradient id="Unbenannter_Verlauf_35" x1="97.18" y1="0.15" x2="97.18" y2="53.05" gradientTransform="matrix(1, 0, -0.15, 1.02, 0, 0)" gradientUnits="userSpaceOnUse"><stop offset="0" stop-color="#012841"/><stop offset="1" stop-color="#022b43"/><stop offset="1" stop-color="#1d3c5e"/></linearGradient></defs><g id="Ebene_2" data-name="Ebene 2"><g id="Ebene_1-2" data-name="Ebene 1"><path d="M222.88,82.26H0L3.9,58.6a2.49,2.49,0,0,1,2.46-2.09H229.24l-3.9,23.66A2.48,2.48,0,0,1,222.88,82.26Z" fill="url(#Unbenannter_Verlauf_27)"/><path d="M324.8,54H175.49l7.6-45.22A10.41,10.41,0,0,1,193.27,0h149l-7.66,45.56A10,10,0,0,1,324.8,54Z" fill="url(#Unbenannter_Verlauf_30)"/><path d="M164.26,54H4.07L11.62,8.83A10.75,10.75,0,0,1,22.42.07H182.24l-7.6,45.47A10.33,10.33,0,0,1,164.26,54Z" fill="url(#Unbenannter_Verlauf_35)"/></g></g></svg>