<?xml version="1.0" encoding="utf-8"?>
<!-- Generator: Adobe Illustrator 27.2.0, SVG Export Plug-In . SVG Version: 6.00 Build 0)  -->
<svg version="1.1" id="Ebene_1" xmlns="http://www.w3.org/2000/svg" xmlns:xlink="http://www.w3.org/1999/xlink" x="0px" y="0px"
	 viewBox="0 0 256 170" width="256" height="170" style="enable-background:new 0 0 256 170;" xml:space="preserve">
<style type="text/css">
	.st0{display:none;}
	.st1{display:inline;opacity:0.93;fill:url(#SVGID_1_);enable-background:new    ;}

		.st2{display:inline;opacity:0.8;fill:url(#SVGID_00000175322658373666262830000017494109724695332798_);enable-background:new    ;}

		.st3{display:inline;opacity:0.93;fill:url(#SVGID_00000053536733933584923050000016537843478911662506_);enable-background:new    ;}

		.st4{display:inline;opacity:0.8;fill:url(#SVGID_00000071539060662144692350000008089844186628543909_);enable-background:new    ;}

		.st5{display:inline;opacity:0.93;fill:url(#SVGID_00000047739654352163409240000007139642093792706205_);enable-background:new    ;}

		.st6{display:inline;opacity:0.8;fill:url(#SVGID_00000093895737463108640050000009513030545549199503_);enable-background:new    ;}

		.st7{display:inline;opacity:0.93;fill:url(#SVGID_00000126292127186180297790000002201602875998051007_);enable-background:new    ;}
	.st8{fill:url(#SVGID_00000075126607332201254470000015422962324360385947_);}
	.st9{fill:url(#SVGID_00000013905372360813155630000017493455891067046309_);}
</style>
<g id="RIGHT_SIDE_BOX" class="st0">

		<linearGradient id="SVGID_1_" gradientUnits="userSpaceOnUse" x1="129.0161" y1="-105.4332" x2="129.0161" y2="16.6743" gradientTransform="matrix(1.018 0 0 1.018 79.2116 156.1104)">
		<stop  offset="0" style="stop-color:#1658E5"/>
		<stop  offset="1" style="stop-color:#082969"/>
	</linearGradient>
	<path class="st1" d="M455.7,151.5H-72.1l16.5-93.9c1.6-9.2,9.6-15.9,18.9-15.9h529.9L477,133.6
		C475.2,143.9,466.2,151.5,455.7,151.5z"/>

		<linearGradient id="SVGID_00000170961414776952671570000000169619362076906683_" gradientUnits="userSpaceOnUse" x1="129.0161" y1="-43.0317" x2="129.0161" y2="-84.4735" gradientTransform="matrix(1.018 0 0 1.018 79.2116 156.1104)">
		<stop  offset="0" style="stop-color:#04172A"/>
		<stop  offset="1" style="stop-color:#042C46"/>
	</linearGradient>

		<path style="display:inline;opacity:0.8;fill:url(#SVGID_00000170961414776952671570000000169619362076906683_);enable-background:new    ;" d="
		M455.7,151.5H-72.1l16.5-93.9c1.6-9.2,9.6-15.9,18.9-15.9h529.9L477,133.6C475.2,143.9,466.2,151.5,455.7,151.5z"/>

		<linearGradient id="SVGID_00000005247303432014568950000004765684279421557670_" gradientUnits="userSpaceOnUse" x1="129.0161" y1="-105.4332" x2="129.0161" y2="16.6743" gradientTransform="matrix(1.018 0 0 1.018 79.2116 156.1104)">
		<stop  offset="0" style="stop-color:#1658E5"/>
		<stop  offset="1" style="stop-color:#082969"/>
	</linearGradient>

		<path style="display:inline;opacity:0.93;fill:url(#SVGID_00000005247303432014568950000004765684279421557670_);enable-background:new    ;" d="
		M455.7,151.5H-72.1l16.5-93.9c1.6-9.2,9.6-15.9,18.9-15.9h529.9L477,133.6C475.2,143.9,466.2,151.5,455.7,151.5z"/>

		<linearGradient id="SVGID_00000040559400411832776700000006224077540899295930_" gradientUnits="userSpaceOnUse" x1="129.0161" y1="-43.0317" x2="129.0161" y2="-84.4735" gradientTransform="matrix(1.018 0 0 1.018 79.2116 156.1104)">
		<stop  offset="0" style="stop-color:#04172A"/>
		<stop  offset="1" style="stop-color:#042C46"/>
	</linearGradient>

		<path style="display:inline;opacity:0.8;fill:url(#SVGID_00000040559400411832776700000006224077540899295930_);enable-background:new    ;" d="
		M455.7,151.5H-72.1l16.5-93.9c1.6-9.2,9.6-15.9,18.9-15.9h529.9L477,133.6C475.2,143.9,466.2,151.5,455.7,151.5z"/>
</g>
<g id="RIGHT_SIDE_BOX_DARKER">
</g>
<g id="Layer_7">
</g>
<g id="RIGHT_SIDE_BLUE_BOX" class="st0">

		<linearGradient id="SVGID_00000134952142850154772930000013100564303026446525_" gradientUnits="userSpaceOnUse" x1="129.0161" y1="-105.4332" x2="129.0161" y2="16.6743" gradientTransform="matrix(1.018 0 0 1.018 79.2116 156.1104)">
		<stop  offset="0" style="stop-color:#1658E5"/>
		<stop  offset="1" style="stop-color:#082969"/>
	</linearGradient>

		<path style="display:inline;opacity:0.93;fill:url(#SVGID_00000134952142850154772930000013100564303026446525_);enable-background:new    ;" d="
		M455.7,151.5H-72.1l16.5-93.9c1.6-9.2,9.6-15.9,18.9-15.9h529.9L477,133.6C475.2,143.9,466.2,151.5,455.7,151.5z"/>

		<linearGradient id="SVGID_00000068636653791103157150000002324404407725821575_" gradientUnits="userSpaceOnUse" x1="129.0161" y1="-43.0317" x2="129.0161" y2="-84.4735" gradientTransform="matrix(1.018 0 0 1.018 79.2116 156.1104)">
		<stop  offset="0" style="stop-color:#04172A"/>
		<stop  offset="1" style="stop-color:#042C46"/>
	</linearGradient>

		<path style="display:inline;opacity:0.8;fill:url(#SVGID_00000068636653791103157150000002324404407725821575_);enable-background:new    ;" d="
		M455.7,151.5H-72.1l16.5-93.9c1.6-9.2,9.6-15.9,18.9-15.9h529.9L477,133.6C475.2,143.9,466.2,151.5,455.7,151.5z"/>

		<linearGradient id="SVGID_00000016762810218922498570000010941559199479405711_" gradientUnits="userSpaceOnUse" x1="129.0161" y1="-105.4332" x2="129.0161" y2="16.6743" gradientTransform="matrix(1.018 0 0 1.018 79.2116 156.1104)">
		<stop  offset="0" style="stop-color:#1658E5"/>
		<stop  offset="1" style="stop-color:#082969"/>
	</linearGradient>

		<path style="display:inline;opacity:0.93;fill:url(#SVGID_00000016762810218922498570000010941559199479405711_);enable-background:new    ;" d="
		M455.7,151.5H-72.1l16.5-93.9c1.6-9.2,9.6-15.9,18.9-15.9h529.9L477,133.6C475.2,143.9,466.2,151.5,455.7,151.5z"/>
</g>
<g id="TEXT">
</g>
<linearGradient id="SVGID_00000076571831392401866140000005948228995692693126_" gradientUnits="userSpaceOnUse" x1="43" y1="82.9" x2="213.2" y2="82.9">
	<stop  offset="0" style="stop-color:#26160F"/>
	<stop  offset="0.9976" style="stop-color:#E2A58D"/>
</linearGradient>
<path style="fill:url(#SVGID_00000076571831392401866140000005948228995692693126_);" d="M78,28.6c-9.2,0-17.1,6.6-18.7,15.7
	L43,137.2h151.2l19-108.6H78z M115.815,90.18c0.236,1.625,0.373,3.241,0.563,4.849c0.448,3.815,2.091,5.648,5.882,6.282
	c1.866,0.311,3.787,0.28,5.679,0.45c1.493,0.132,2.998,0.238,4.462,0.532c1.406,0.282,2.514,0.867,3.32,1.745l-35.401,2.465
	c0.746-1.083,1.647-2.079,2.725-2.971c2.179-1.806,4.701-2.954,7.386-3.765c1.199-0.362,2.424-0.645,3.663-0.969
	C113.931,95.768,113.914,92.772,115.815,90.18z M125.868,82.945c0-1.092,0.885-1.977,1.977-1.977c1.092,0,1.977,0.885,1.977,1.977
	c0,1.092-0.885,1.977-1.977,1.977C126.754,84.922,125.868,84.037,125.868,82.945z M137.107,106.892
	c0.032,0.154,0.061,0.311,0.085,0.472c0.137,0.907,0.338,1.808,0.581,2.694c0.404,1.475,1.395,2.327,2.914,2.583
	c1.172,0.196,2.316,0.051,3.447-0.247c0.601-0.157,1.19-0.364,1.85-0.57c-0.857-1.018-1.629-1.932-2.462-2.919
	c0.325-0.291,0.625-0.556,0.919-0.826c1.32-1.214,1.751-1.155,2.674,0.395c0.409,0.689,0.771,1.406,1.201,2.078
	c0.356,0.552,0.665,0.559,0.974-0.018c0.367-0.682,0.689-1.402,0.923-2.14c0.411-1.287,0.74-2.599,1.051-3.72
	c-0.947-0.605-1.852-1.009-2.533-1.649c-1.451-1.371-2.906-2.769-4.147-4.325c-3.078-3.857-5.326-8.216-7.293-12.722
	c-0.126-0.291-0.238-0.605-0.426-0.854c-2.881-3.833-5.944-7.507-9.569-10.671c-0.464-0.404-1.078-0.737-1.674-0.865
	c-1.188-0.254-2.418-0.318-3.621-0.512c-1.557-0.25-3.109-0.532-4.654-0.841c-0.643-0.128-1.124-0.534-1.565-1.038
	c-0.925-1.051-1.881-2.08-2.888-3.054c-0.737-0.713-1.574-1.318-2.444-2.036c-0.391,1.731-0.93,4.292-1.091,4.849
	c-0.172,1.325-4.854,3.258-6.489,3.654c-1.105,0.267-6.473,0.802-12.369,1.723c3.138-17.769,18.689-31.31,37.345-31.31
	c20.911,0,37.923,17.012,37.923,37.923c0,20.911-17.012,37.923-37.923,37.923c-10.718,0-20.411-4.471-27.315-11.644L137.107,106.892
	z M127.845,128.69c-13.235,0-25.156-5.623-33.508-14.608c1.219-1.651,2.202-2.845,2.802-3.722c0.516,0.576,1.047,1.142,1.598,1.693
	c7.775,7.775,18.112,12.057,29.108,12.057c10.995,0,21.333-4.282,29.108-12.057c7.775-7.775,12.057-18.112,12.057-29.108
	s-4.282-21.333-12.057-29.108c-7.775-7.775-18.112-12.057-29.108-12.057c-10.995,0-21.333,4.282-29.108,12.057
	c-6.331,6.331-10.345,14.36-11.618,23.061c-1.617,0.291-3.221,0.611-4.737,0.964C84.912,54.99,104.3,37.2,127.845,37.2
	c25.264,0,45.745,20.481,45.745,45.745S153.11,128.69,127.845,128.69z"/>
<linearGradient id="SVGID_00000132795025046338334150000009137097048828551868_" gradientUnits="userSpaceOnUse" x1="43" y1="82.9" x2="213.2" y2="82.9">
	<stop  offset="0" style="stop-color:#0F0906"/>
	<stop  offset="0.9976" style="stop-color:#540D30"/>
</linearGradient>
<path style="fill:url(#SVGID_00000132795025046338334150000009137097048828551868_);" d="M78,28.6c-9.2,0-17.1,6.6-18.7,15.7
	L43,137.2h151.2l19-108.6H78z M115.815,90.18c0.236,1.625,0.373,3.241,0.563,4.849c0.448,3.815,2.091,5.648,5.882,6.282
	c1.866,0.311,3.787,0.28,5.679,0.45c1.493,0.132,2.998,0.238,4.462,0.532c1.406,0.282,2.514,0.867,3.32,1.745l-35.401,2.465
	c0.746-1.083,1.647-2.079,2.725-2.971c2.179-1.806,4.701-2.954,7.386-3.765c1.199-0.362,2.424-0.645,3.663-0.969
	C113.931,95.768,113.914,92.772,115.815,90.18z M125.868,82.945c0-1.092,0.885-1.977,1.977-1.977c1.092,0,1.977,0.885,1.977,1.977
	c0,1.092-0.885,1.977-1.977,1.977C126.754,84.922,125.868,84.037,125.868,82.945z M137.107,106.892
	c0.032,0.154,0.061,0.311,0.085,0.472c0.137,0.907,0.338,1.808,0.581,2.694c0.404,1.475,1.395,2.327,2.914,2.583
	c1.172,0.196,2.316,0.051,3.447-0.247c0.601-0.157,1.19-0.364,1.85-0.57c-0.857-1.018-1.629-1.932-2.462-2.919
	c0.325-0.291,0.625-0.556,0.919-0.826c1.32-1.214,1.751-1.155,2.674,0.395c0.409,0.689,0.771,1.406,1.201,2.078
	c0.356,0.552,0.665,0.559,0.974-0.018c0.367-0.682,0.689-1.402,0.923-2.14c0.411-1.287,0.74-2.599,1.051-3.72
	c-0.947-0.605-1.852-1.009-2.533-1.649c-1.451-1.371-2.906-2.769-4.147-4.325c-3.078-3.857-5.326-8.216-7.293-12.722
	c-0.126-0.291-0.238-0.605-0.426-0.854c-2.881-3.833-5.944-7.507-9.569-10.671c-0.464-0.404-1.078-0.737-1.674-0.865
	c-1.188-0.254-2.418-0.318-3.621-0.512c-1.557-0.25-3.109-0.532-4.654-0.841c-0.643-0.128-1.124-0.534-1.565-1.038
	c-0.925-1.051-1.881-2.08-2.888-3.054c-0.737-0.713-1.574-1.318-2.444-2.036c-0.391,1.731-0.93,4.292-1.091,4.849
	c-0.172,1.325-4.854,3.258-6.489,3.654c-1.105,0.267-6.473,0.802-12.369,1.723c3.138-17.769,18.689-31.31,37.345-31.31
	c20.911,0,37.923,17.012,37.923,37.923c0,20.911-17.012,37.923-37.923,37.923c-10.718,0-20.411-4.471-27.315-11.644L137.107,106.892
	z M127.845,128.69c-13.235,0-25.156-5.623-33.508-14.608c1.219-1.651,2.202-2.845,2.802-3.722c0.516,0.576,1.047,1.142,1.598,1.693
	c7.775,7.775,18.112,12.057,29.108,12.057c10.995,0,21.333-4.282,29.108-12.057c7.775-7.775,12.057-18.112,12.057-29.108
	s-4.282-21.333-12.057-29.108c-7.775-7.775-18.112-12.057-29.108-12.057c-10.995,0-21.333,4.282-29.108,12.057
	c-6.331,6.331-10.345,14.36-11.618,23.061c-1.617,0.291-3.221,0.611-4.737,0.964C84.912,54.99,104.3,37.2,127.845,37.2
	c25.264,0,45.745,20.481,45.745,45.745S153.11,128.69,127.845,128.69z"/>
</svg>
